%TF.GenerationSoftware,KiCad,Pcbnew,6.0.9-8da3e8f707~117~ubuntu20.04.1*%
%TF.CreationDate,2022-12-24T01:50:11+01:00*%
%TF.ProjectId,garden-reporter-board,67617264-656e-42d7-9265-706f72746572,2.1*%
%TF.SameCoordinates,Original*%
%TF.FileFunction,Copper,L1,Top*%
%TF.FilePolarity,Positive*%
%FSLAX46Y46*%
G04 Gerber Fmt 4.6, Leading zero omitted, Abs format (unit mm)*
G04 Created by KiCad (PCBNEW 6.0.9-8da3e8f707~117~ubuntu20.04.1) date 2022-12-24 01:50:11*
%MOMM*%
%LPD*%
G01*
G04 APERTURE LIST*
G04 Aperture macros list*
%AMRoundRect*
0 Rectangle with rounded corners*
0 $1 Rounding radius*
0 $2 $3 $4 $5 $6 $7 $8 $9 X,Y pos of 4 corners*
0 Add a 4 corners polygon primitive as box body*
4,1,4,$2,$3,$4,$5,$6,$7,$8,$9,$2,$3,0*
0 Add four circle primitives for the rounded corners*
1,1,$1+$1,$2,$3*
1,1,$1+$1,$4,$5*
1,1,$1+$1,$6,$7*
1,1,$1+$1,$8,$9*
0 Add four rect primitives between the rounded corners*
20,1,$1+$1,$2,$3,$4,$5,0*
20,1,$1+$1,$4,$5,$6,$7,0*
20,1,$1+$1,$6,$7,$8,$9,0*
20,1,$1+$1,$8,$9,$2,$3,0*%
G04 Aperture macros list end*
%TA.AperFunction,ComponentPad*%
%ADD10C,1.524000*%
%TD*%
%TA.AperFunction,ComponentPad*%
%ADD11RoundRect,0.250000X-0.620000X-0.620000X0.620000X-0.620000X0.620000X0.620000X-0.620000X0.620000X0*%
%TD*%
%TA.AperFunction,ComponentPad*%
%ADD12C,1.740000*%
%TD*%
%TA.AperFunction,ComponentPad*%
%ADD13R,1.050000X1.500000*%
%TD*%
%TA.AperFunction,ComponentPad*%
%ADD14O,1.050000X1.500000*%
%TD*%
%TA.AperFunction,ComponentPad*%
%ADD15R,1.600000X1.600000*%
%TD*%
%TA.AperFunction,ComponentPad*%
%ADD16O,1.600000X1.600000*%
%TD*%
%TA.AperFunction,ComponentPad*%
%ADD17C,1.600000*%
%TD*%
%TA.AperFunction,ComponentPad*%
%ADD18RoundRect,0.250000X-0.620000X0.620000X-0.620000X-0.620000X0.620000X-0.620000X0.620000X0.620000X0*%
%TD*%
%TA.AperFunction,ComponentPad*%
%ADD19R,1.500000X1.050000*%
%TD*%
%TA.AperFunction,ComponentPad*%
%ADD20O,1.500000X1.050000*%
%TD*%
%TA.AperFunction,ComponentPad*%
%ADD21R,1.700000X1.700000*%
%TD*%
%TA.AperFunction,ComponentPad*%
%ADD22O,1.700000X1.700000*%
%TD*%
%TA.AperFunction,ComponentPad*%
%ADD23RoundRect,0.250000X0.620000X-0.620000X0.620000X0.620000X-0.620000X0.620000X-0.620000X-0.620000X0*%
%TD*%
%TA.AperFunction,Conductor*%
%ADD24C,1.000000*%
%TD*%
%TA.AperFunction,Conductor*%
%ADD25C,0.250000*%
%TD*%
G04 APERTURE END LIST*
D10*
%TO.P,JP1,1,VDD*%
%TO.N,+3.3V*%
X142671800Y-63065660D03*
%TO.P,JP1,2,DOUT*%
%TO.N,Net-(J2-Pad2)*%
X142671800Y-65067180D03*
%TO.P,JP1,3,DIN*%
%TO.N,Net-(J2-Pad1)*%
X142671800Y-67066160D03*
%TO.P,JP1,4,DIO12*%
%TO.N,unconnected-(JP1-Pad4)*%
X142671800Y-69067680D03*
%TO.P,JP1,5,RESET*%
%TO.N,unconnected-(JP1-Pad5)*%
X142671800Y-71066660D03*
%TO.P,JP1,6,RSSI*%
%TO.N,unconnected-(JP1-Pad6)*%
X142671800Y-73065640D03*
%TO.P,JP1,7,DIO11*%
%TO.N,unconnected-(JP1-Pad7)*%
X142671800Y-75067160D03*
%TO.P,JP1,8,RES*%
%TO.N,unconnected-(JP1-Pad8)*%
X142671800Y-77066140D03*
%TO.P,JP1,9,DTR*%
%TO.N,unconnected-(JP1-Pad9)*%
X142671800Y-79067660D03*
%TO.P,JP1,10,GND*%
%TO.N,-BATT*%
X142671800Y-81066640D03*
%TO.P,JP1,11,DIO4*%
%TO.N,unconnected-(JP1-Pad11)*%
X164668200Y-81066640D03*
%TO.P,JP1,12,CTS*%
%TO.N,unconnected-(JP1-Pad12)*%
X164668200Y-79067660D03*
%TO.P,JP1,13,DIO9*%
%TO.N,/xbee_ON*%
X164668200Y-77066140D03*
%TO.P,JP1,14,RES*%
%TO.N,unconnected-(JP1-Pad14)*%
X164668200Y-75067160D03*
%TO.P,JP1,15,DIO5*%
%TO.N,unconnected-(JP1-Pad15)*%
X164668200Y-73065640D03*
%TO.P,JP1,16,RTS*%
%TO.N,unconnected-(JP1-Pad16)*%
X164668200Y-71066660D03*
%TO.P,JP1,17,DIO3*%
%TO.N,/sensor_light*%
X164668200Y-69067680D03*
%TO.P,JP1,18,DIO2*%
%TO.N,/sensor_temp*%
X164668200Y-67066160D03*
%TO.P,JP1,19,DIO1*%
%TO.N,/sensor_soil*%
X164668200Y-65067180D03*
%TO.P,JP1,20,DIO0*%
%TO.N,/sensor_batt*%
X164668200Y-63065660D03*
%TD*%
D11*
%TO.P,J3,1,Pin_1*%
%TO.N,+3.3VADC*%
X151384000Y-121666000D03*
D12*
%TO.P,J3,2,Pin_2*%
%TO.N,/sensor_soil*%
X153924000Y-121666000D03*
%TO.P,J3,3,Pin_3*%
%TO.N,-BATT*%
X156464000Y-121666000D03*
%TD*%
D13*
%TO.P,U1,1,GND*%
%TO.N,-BATT*%
X146558000Y-93112000D03*
D14*
%TO.P,U1,2,VI*%
%TO.N,+BATT*%
X145288000Y-93112000D03*
%TO.P,U1,3,VO*%
%TO.N,+3.3V*%
X144018000Y-93112000D03*
%TD*%
D13*
%TO.P,Q1,1,S*%
%TO.N,-BATT*%
X160782000Y-107040000D03*
D14*
%TO.P,Q1,2,G*%
%TO.N,/xbee_ON*%
X162052000Y-107040000D03*
%TO.P,Q1,3,D*%
%TO.N,Net-(Q1-Pad3)*%
X163322000Y-107040000D03*
%TD*%
D15*
%TO.P,D2,1,K*%
%TO.N,/sensor_batt*%
X160528000Y-89916000D03*
D16*
%TO.P,D2,2,A*%
%TO.N,-BATT*%
X168148000Y-89916000D03*
%TD*%
D17*
%TO.P,C1,1*%
%TO.N,+BATT*%
X144526000Y-98298000D03*
%TO.P,C1,2*%
%TO.N,-BATT*%
X147026000Y-98298000D03*
%TD*%
%TO.P,R2,1*%
%TO.N,/sensor_batt*%
X160528000Y-86106000D03*
D16*
%TO.P,R2,2*%
%TO.N,-BATT*%
X168148000Y-86106000D03*
%TD*%
D17*
%TO.P,R5,1*%
%TO.N,/sensor_light*%
X170942000Y-94234000D03*
D16*
%TO.P,R5,2*%
%TO.N,-BATT*%
X163322000Y-94234000D03*
%TD*%
D11*
%TO.P,J4,1,Pin_1*%
%TO.N,+3.3VADC*%
X164338000Y-121666000D03*
D12*
%TO.P,J4,2,Pin_2*%
%TO.N,/sensor_temp*%
X166878000Y-121666000D03*
%TO.P,J4,3,Pin_3*%
%TO.N,-BATT*%
X169418000Y-121666000D03*
%TD*%
D18*
%TO.P,J1,1,Pin_1*%
%TO.N,+BATT*%
X142990000Y-106934000D03*
D12*
%TO.P,J1,2,Pin_2*%
%TO.N,-BATT*%
X142990000Y-109474000D03*
%TD*%
D19*
%TO.P,U2,1,GND*%
%TO.N,-BATT*%
X139700000Y-120650000D03*
D20*
%TO.P,U2,2,VI*%
%TO.N,VDD*%
X139700000Y-121920000D03*
%TO.P,U2,3,VO*%
%TO.N,+3.3VADC*%
X139700000Y-123190000D03*
%TD*%
D17*
%TO.P,R4,1*%
%TO.N,/sensor_soil*%
X162306000Y-115062000D03*
D16*
%TO.P,R4,2*%
%TO.N,-BATT*%
X169926000Y-115062000D03*
%TD*%
D17*
%TO.P,C3,1*%
%TO.N,+3.3V*%
X138069000Y-91694000D03*
%TO.P,C3,2*%
%TO.N,-BATT*%
X140569000Y-91694000D03*
%TD*%
%TO.P,R1,1*%
%TO.N,VDD*%
X155194000Y-93726000D03*
D16*
%TO.P,R1,2*%
%TO.N,/sensor_batt*%
X155194000Y-86106000D03*
%TD*%
D17*
%TO.P,C7,1*%
%TO.N,+3.3VADC*%
X146558000Y-123952000D03*
%TO.P,C7,2*%
%TO.N,-BATT*%
X144058000Y-123952000D03*
%TD*%
D13*
%TO.P,Q2,1,S*%
%TO.N,+BATT*%
X154432000Y-107294000D03*
D14*
%TO.P,Q2,2,G*%
%TO.N,Net-(Q2-Pad2)*%
X155702000Y-107294000D03*
%TO.P,Q2,3,D*%
%TO.N,VDD*%
X156972000Y-107294000D03*
%TD*%
D17*
%TO.P,C8,1*%
%TO.N,VDD*%
X152654000Y-98064000D03*
%TO.P,C8,2*%
%TO.N,-BATT*%
X152654000Y-100564000D03*
%TD*%
D13*
%TO.P,U3,1,GND*%
%TO.N,-BATT*%
X155956000Y-98952000D03*
D14*
%TO.P,U3,2,VI*%
%TO.N,VDD*%
X157226000Y-98952000D03*
%TO.P,U3,3,VO*%
%TO.N,+1V2*%
X158496000Y-98952000D03*
%TD*%
D17*
%TO.P,R3,1*%
%TO.N,Net-(Q1-Pad3)*%
X157988000Y-113030000D03*
D16*
%TO.P,R3,2*%
%TO.N,Net-(Q2-Pad2)*%
X150368000Y-113030000D03*
%TD*%
D17*
%TO.P,R6,1*%
%TO.N,+BATT*%
X137668000Y-116078000D03*
D16*
%TO.P,R6,2*%
%TO.N,Net-(Q1-Pad3)*%
X145288000Y-116078000D03*
%TD*%
D17*
%TO.P,C4,1*%
%TO.N,+3.3V*%
X138069000Y-85090000D03*
%TO.P,C4,2*%
%TO.N,-BATT*%
X140569000Y-85090000D03*
%TD*%
%TO.P,C6,1*%
%TO.N,VDD*%
X146538000Y-119888000D03*
%TO.P,C6,2*%
%TO.N,-BATT*%
X144038000Y-119888000D03*
%TD*%
%TO.P,C9,1*%
%TO.N,+1V2*%
X163322000Y-101326000D03*
%TO.P,C9,2*%
%TO.N,-BATT*%
X163322000Y-98826000D03*
%TD*%
D21*
%TO.P,J2,1,Pin_1*%
%TO.N,Net-(J2-Pad1)*%
X149103000Y-86106000D03*
D22*
%TO.P,J2,2,Pin_2*%
%TO.N,Net-(J2-Pad2)*%
X146563000Y-86106000D03*
%TD*%
D17*
%TO.P,C5,1*%
%TO.N,+3.3V*%
X138069000Y-88138000D03*
%TO.P,C5,2*%
%TO.N,-BATT*%
X140569000Y-88138000D03*
%TD*%
%TO.P,C11,1*%
%TO.N,+BATT*%
X148578000Y-106954000D03*
%TO.P,C11,2*%
%TO.N,-BATT*%
X148578000Y-109454000D03*
%TD*%
%TO.P,C2,1*%
%TO.N,+3.3V*%
X138196000Y-94996000D03*
%TO.P,C2,2*%
%TO.N,-BATT*%
X140696000Y-94996000D03*
%TD*%
%TO.P,C10,1*%
%TO.N,+BATT*%
X140716000Y-98298000D03*
%TO.P,C10,2*%
%TO.N,-BATT*%
X138216000Y-98298000D03*
%TD*%
D23*
%TO.P,J5,1,Pin_1*%
%TO.N,+1V2*%
X168402000Y-105664000D03*
D12*
%TO.P,J5,2,Pin_2*%
%TO.N,/sensor_light*%
X168402000Y-103124000D03*
%TD*%
D24*
%TO.N,+BATT*%
X137668000Y-112256000D02*
X137668000Y-116078000D01*
X144526000Y-98298000D02*
X145288000Y-97536000D01*
X140716000Y-98298000D02*
X144526000Y-98298000D01*
X142990000Y-106934000D02*
X137668000Y-112256000D01*
X142990000Y-106934000D02*
X148558000Y-106934000D01*
X145288000Y-97536000D02*
X145288000Y-93112000D01*
X154092000Y-106954000D02*
X154432000Y-107294000D01*
X148578000Y-106954000D02*
X154092000Y-106954000D01*
X140716000Y-98298000D02*
X140716000Y-104660000D01*
X140716000Y-104660000D02*
X142990000Y-106934000D01*
X148558000Y-106934000D02*
X148578000Y-106954000D01*
%TO.N,+3.3V*%
X138196000Y-91821000D02*
X138069000Y-91694000D01*
X144018000Y-93112000D02*
X144018000Y-94412000D01*
X141934000Y-96496000D02*
X139696000Y-96496000D01*
X144018000Y-94412000D02*
X141934000Y-96496000D01*
X138069000Y-85090000D02*
X138069000Y-66590830D01*
X138069000Y-88138000D02*
X138069000Y-85090000D01*
X138069000Y-91694000D02*
X138069000Y-88138000D01*
X138069000Y-66590830D02*
X141594170Y-63065660D01*
X138196000Y-94996000D02*
X138196000Y-91821000D01*
X141594170Y-63065660D02*
X142671800Y-63065660D01*
X139696000Y-96496000D02*
X138196000Y-94996000D01*
%TO.N,+3.3VADC*%
X141962000Y-125452000D02*
X139700000Y-123190000D01*
X146558000Y-123952000D02*
X145058000Y-125452000D01*
X151384000Y-121666000D02*
X148844000Y-121666000D01*
X145058000Y-125452000D02*
X141962000Y-125452000D01*
X146558000Y-123952000D02*
X162052000Y-123952000D01*
X148844000Y-121666000D02*
X146558000Y-123952000D01*
X162052000Y-123952000D02*
X164338000Y-121666000D01*
D25*
%TO.N,/sensor_batt*%
X155194000Y-89916000D02*
X152654000Y-87376000D01*
X160528000Y-89916000D02*
X155194000Y-89916000D01*
X155194000Y-86106000D02*
X160528000Y-86106000D01*
X152654000Y-66294000D02*
X155882340Y-63065660D01*
X160528000Y-86106000D02*
X160528000Y-89916000D01*
X152654000Y-87376000D02*
X152654000Y-66294000D01*
X155882340Y-63065660D02*
X164668200Y-63065660D01*
%TO.N,Net-(J2-Pad1)*%
X142671800Y-67066160D02*
X144526000Y-68920360D01*
X144526000Y-68920360D02*
X144526000Y-82042000D01*
X144526000Y-82042000D02*
X148590000Y-86106000D01*
X148590000Y-86106000D02*
X149103000Y-86106000D01*
%TO.N,Net-(J2-Pad2)*%
X144018000Y-86106000D02*
X140970000Y-83058000D01*
X140970000Y-83058000D02*
X140970000Y-66768980D01*
X140970000Y-66768980D02*
X142671800Y-65067180D01*
X146563000Y-86106000D02*
X144018000Y-86106000D01*
%TO.N,/sensor_soil*%
X162306000Y-117513986D02*
X156958986Y-122861000D01*
X160020000Y-93726000D02*
X160020000Y-103124000D01*
X162306000Y-115062000D02*
X162306000Y-117513986D01*
X158750000Y-104394000D02*
X158750000Y-109728000D01*
X155119000Y-122861000D02*
X153924000Y-121666000D01*
X157226000Y-115062000D02*
X162306000Y-115062000D01*
X156210000Y-114046000D02*
X157226000Y-115062000D01*
X156958986Y-122861000D02*
X155119000Y-122861000D01*
X160020000Y-103124000D02*
X158750000Y-104394000D01*
X164668200Y-65067180D02*
X162052000Y-67683380D01*
X162052000Y-67683380D02*
X162052000Y-91694000D01*
X156210000Y-112268000D02*
X156210000Y-114046000D01*
X162052000Y-91694000D02*
X160020000Y-93726000D01*
X158750000Y-109728000D02*
X156210000Y-112268000D01*
%TO.N,/sensor_temp*%
X172212000Y-116332000D02*
X172212000Y-74609960D01*
X166878000Y-121666000D02*
X172212000Y-116332000D01*
X172212000Y-74609960D02*
X164668200Y-67066160D01*
%TO.N,/sensor_light*%
X170942000Y-94234000D02*
X170942000Y-100584000D01*
X170942000Y-100584000D02*
X168402000Y-103124000D01*
X170942000Y-94234000D02*
X170942000Y-75341480D01*
X170942000Y-75341480D02*
X164668200Y-69067680D01*
%TO.N,/xbee_ON*%
X161036000Y-103632000D02*
X162052000Y-104648000D01*
X162814000Y-92202000D02*
X161036000Y-93980000D01*
X161036000Y-93980000D02*
X161036000Y-103632000D01*
X164668200Y-77066140D02*
X162814000Y-78920340D01*
X162052000Y-104648000D02*
X162052000Y-107040000D01*
X162814000Y-78920340D02*
X162814000Y-92202000D01*
D24*
%TO.N,+1V2*%
X167660000Y-105664000D02*
X163322000Y-101326000D01*
X168402000Y-105664000D02*
X167660000Y-105664000D01*
%TO.N,VDD*%
X144506000Y-121920000D02*
X139700000Y-121920000D01*
X152654000Y-98064000D02*
X153453999Y-97264001D01*
X156943001Y-97264001D02*
X157226000Y-97547000D01*
X156972000Y-106606588D02*
X156972000Y-107294000D01*
X153453999Y-97264001D02*
X156943001Y-97264001D01*
X156209412Y-105844000D02*
X156972000Y-106606588D01*
X155628000Y-105844000D02*
X156209412Y-105844000D01*
X150876000Y-96774000D02*
X150876000Y-101092000D01*
X156972000Y-102382000D02*
X152654000Y-98064000D01*
X150876000Y-101092000D02*
X155628000Y-105844000D01*
X156972000Y-109454000D02*
X146538000Y-119888000D01*
X153924000Y-93726000D02*
X150876000Y-96774000D01*
X155194000Y-93726000D02*
X153924000Y-93726000D01*
X157226000Y-97547000D02*
X157226000Y-98952000D01*
X146538000Y-119888000D02*
X144506000Y-121920000D01*
X156972000Y-107294000D02*
X156972000Y-102382000D01*
X156972000Y-107294000D02*
X156972000Y-109454000D01*
D25*
%TO.N,Net-(Q1-Pad3)*%
X163322000Y-107696000D02*
X163322000Y-107040000D01*
X157988000Y-113030000D02*
X163322000Y-107696000D01*
%TO.N,Net-(Q2-Pad2)*%
X150368000Y-113030000D02*
X151499370Y-113030000D01*
X155702000Y-108827370D02*
X155702000Y-107294000D01*
X151499370Y-113030000D02*
X155702000Y-108827370D01*
%TD*%
M02*
