%TF.GenerationSoftware,KiCad,Pcbnew,6.0.9-8da3e8f707~117~ubuntu20.04.1*%
%TF.CreationDate,2022-12-24T01:50:11+01:00*%
%TF.ProjectId,garden-reporter-board,67617264-656e-42d7-9265-706f72746572,2.1*%
%TF.SameCoordinates,Original*%
%TF.FileFunction,Copper,L2,Bot*%
%TF.FilePolarity,Positive*%
%FSLAX46Y46*%
G04 Gerber Fmt 4.6, Leading zero omitted, Abs format (unit mm)*
G04 Created by KiCad (PCBNEW 6.0.9-8da3e8f707~117~ubuntu20.04.1) date 2022-12-24 01:50:11*
%MOMM*%
%LPD*%
G01*
G04 APERTURE LIST*
G04 Aperture macros list*
%AMRoundRect*
0 Rectangle with rounded corners*
0 $1 Rounding radius*
0 $2 $3 $4 $5 $6 $7 $8 $9 X,Y pos of 4 corners*
0 Add a 4 corners polygon primitive as box body*
4,1,4,$2,$3,$4,$5,$6,$7,$8,$9,$2,$3,0*
0 Add four circle primitives for the rounded corners*
1,1,$1+$1,$2,$3*
1,1,$1+$1,$4,$5*
1,1,$1+$1,$6,$7*
1,1,$1+$1,$8,$9*
0 Add four rect primitives between the rounded corners*
20,1,$1+$1,$2,$3,$4,$5,0*
20,1,$1+$1,$4,$5,$6,$7,0*
20,1,$1+$1,$6,$7,$8,$9,0*
20,1,$1+$1,$8,$9,$2,$3,0*%
G04 Aperture macros list end*
%TA.AperFunction,ComponentPad*%
%ADD10C,1.524000*%
%TD*%
%TA.AperFunction,ComponentPad*%
%ADD11RoundRect,0.250000X-0.620000X-0.620000X0.620000X-0.620000X0.620000X0.620000X-0.620000X0.620000X0*%
%TD*%
%TA.AperFunction,ComponentPad*%
%ADD12C,1.740000*%
%TD*%
%TA.AperFunction,ComponentPad*%
%ADD13R,1.050000X1.500000*%
%TD*%
%TA.AperFunction,ComponentPad*%
%ADD14O,1.050000X1.500000*%
%TD*%
%TA.AperFunction,ComponentPad*%
%ADD15R,1.600000X1.600000*%
%TD*%
%TA.AperFunction,ComponentPad*%
%ADD16O,1.600000X1.600000*%
%TD*%
%TA.AperFunction,ComponentPad*%
%ADD17C,1.600000*%
%TD*%
%TA.AperFunction,ComponentPad*%
%ADD18RoundRect,0.250000X-0.620000X0.620000X-0.620000X-0.620000X0.620000X-0.620000X0.620000X0.620000X0*%
%TD*%
%TA.AperFunction,ComponentPad*%
%ADD19R,1.500000X1.050000*%
%TD*%
%TA.AperFunction,ComponentPad*%
%ADD20O,1.500000X1.050000*%
%TD*%
%TA.AperFunction,ComponentPad*%
%ADD21R,1.700000X1.700000*%
%TD*%
%TA.AperFunction,ComponentPad*%
%ADD22O,1.700000X1.700000*%
%TD*%
%TA.AperFunction,ComponentPad*%
%ADD23RoundRect,0.250000X0.620000X-0.620000X0.620000X0.620000X-0.620000X0.620000X-0.620000X-0.620000X0*%
%TD*%
%TA.AperFunction,Conductor*%
%ADD24C,1.000000*%
%TD*%
%TA.AperFunction,Conductor*%
%ADD25C,0.250000*%
%TD*%
G04 APERTURE END LIST*
D10*
%TO.P,JP1,1,VDD*%
%TO.N,+3.3V*%
X142671800Y-63065660D03*
%TO.P,JP1,2,DOUT*%
%TO.N,Net-(J2-Pad2)*%
X142671800Y-65067180D03*
%TO.P,JP1,3,DIN*%
%TO.N,Net-(J2-Pad1)*%
X142671800Y-67066160D03*
%TO.P,JP1,4,DIO12*%
%TO.N,unconnected-(JP1-Pad4)*%
X142671800Y-69067680D03*
%TO.P,JP1,5,RESET*%
%TO.N,unconnected-(JP1-Pad5)*%
X142671800Y-71066660D03*
%TO.P,JP1,6,RSSI*%
%TO.N,unconnected-(JP1-Pad6)*%
X142671800Y-73065640D03*
%TO.P,JP1,7,DIO11*%
%TO.N,unconnected-(JP1-Pad7)*%
X142671800Y-75067160D03*
%TO.P,JP1,8,RES*%
%TO.N,unconnected-(JP1-Pad8)*%
X142671800Y-77066140D03*
%TO.P,JP1,9,DTR*%
%TO.N,unconnected-(JP1-Pad9)*%
X142671800Y-79067660D03*
%TO.P,JP1,10,GND*%
%TO.N,-BATT*%
X142671800Y-81066640D03*
%TO.P,JP1,11,DIO4*%
%TO.N,unconnected-(JP1-Pad11)*%
X164668200Y-81066640D03*
%TO.P,JP1,12,CTS*%
%TO.N,unconnected-(JP1-Pad12)*%
X164668200Y-79067660D03*
%TO.P,JP1,13,DIO9*%
%TO.N,/xbee_ON*%
X164668200Y-77066140D03*
%TO.P,JP1,14,RES*%
%TO.N,unconnected-(JP1-Pad14)*%
X164668200Y-75067160D03*
%TO.P,JP1,15,DIO5*%
%TO.N,unconnected-(JP1-Pad15)*%
X164668200Y-73065640D03*
%TO.P,JP1,16,RTS*%
%TO.N,unconnected-(JP1-Pad16)*%
X164668200Y-71066660D03*
%TO.P,JP1,17,DIO3*%
%TO.N,/sensor_light*%
X164668200Y-69067680D03*
%TO.P,JP1,18,DIO2*%
%TO.N,/sensor_temp*%
X164668200Y-67066160D03*
%TO.P,JP1,19,DIO1*%
%TO.N,/sensor_soil*%
X164668200Y-65067180D03*
%TO.P,JP1,20,DIO0*%
%TO.N,/sensor_batt*%
X164668200Y-63065660D03*
%TD*%
D11*
%TO.P,J3,1,Pin_1*%
%TO.N,+3.3VADC*%
X151384000Y-121666000D03*
D12*
%TO.P,J3,2,Pin_2*%
%TO.N,/sensor_soil*%
X153924000Y-121666000D03*
%TO.P,J3,3,Pin_3*%
%TO.N,-BATT*%
X156464000Y-121666000D03*
%TD*%
D13*
%TO.P,U1,1,GND*%
%TO.N,-BATT*%
X146558000Y-93112000D03*
D14*
%TO.P,U1,2,VI*%
%TO.N,+BATT*%
X145288000Y-93112000D03*
%TO.P,U1,3,VO*%
%TO.N,+3.3V*%
X144018000Y-93112000D03*
%TD*%
D13*
%TO.P,Q1,1,S*%
%TO.N,-BATT*%
X160782000Y-107040000D03*
D14*
%TO.P,Q1,2,G*%
%TO.N,/xbee_ON*%
X162052000Y-107040000D03*
%TO.P,Q1,3,D*%
%TO.N,Net-(Q1-Pad3)*%
X163322000Y-107040000D03*
%TD*%
D15*
%TO.P,D2,1,K*%
%TO.N,/sensor_batt*%
X160528000Y-89916000D03*
D16*
%TO.P,D2,2,A*%
%TO.N,-BATT*%
X168148000Y-89916000D03*
%TD*%
D17*
%TO.P,C1,1*%
%TO.N,+BATT*%
X144526000Y-98298000D03*
%TO.P,C1,2*%
%TO.N,-BATT*%
X147026000Y-98298000D03*
%TD*%
%TO.P,R2,1*%
%TO.N,/sensor_batt*%
X160528000Y-86106000D03*
D16*
%TO.P,R2,2*%
%TO.N,-BATT*%
X168148000Y-86106000D03*
%TD*%
D17*
%TO.P,R5,1*%
%TO.N,/sensor_light*%
X170942000Y-94234000D03*
D16*
%TO.P,R5,2*%
%TO.N,-BATT*%
X163322000Y-94234000D03*
%TD*%
D11*
%TO.P,J4,1,Pin_1*%
%TO.N,+3.3VADC*%
X164338000Y-121666000D03*
D12*
%TO.P,J4,2,Pin_2*%
%TO.N,/sensor_temp*%
X166878000Y-121666000D03*
%TO.P,J4,3,Pin_3*%
%TO.N,-BATT*%
X169418000Y-121666000D03*
%TD*%
D18*
%TO.P,J1,1,Pin_1*%
%TO.N,+BATT*%
X142990000Y-106934000D03*
D12*
%TO.P,J1,2,Pin_2*%
%TO.N,-BATT*%
X142990000Y-109474000D03*
%TD*%
D19*
%TO.P,U2,1,GND*%
%TO.N,-BATT*%
X139700000Y-120650000D03*
D20*
%TO.P,U2,2,VI*%
%TO.N,VDD*%
X139700000Y-121920000D03*
%TO.P,U2,3,VO*%
%TO.N,+3.3VADC*%
X139700000Y-123190000D03*
%TD*%
D17*
%TO.P,R4,1*%
%TO.N,/sensor_soil*%
X162306000Y-115062000D03*
D16*
%TO.P,R4,2*%
%TO.N,-BATT*%
X169926000Y-115062000D03*
%TD*%
D17*
%TO.P,C3,1*%
%TO.N,+3.3V*%
X138069000Y-91694000D03*
%TO.P,C3,2*%
%TO.N,-BATT*%
X140569000Y-91694000D03*
%TD*%
%TO.P,R1,1*%
%TO.N,VDD*%
X155194000Y-93726000D03*
D16*
%TO.P,R1,2*%
%TO.N,/sensor_batt*%
X155194000Y-86106000D03*
%TD*%
D17*
%TO.P,C7,1*%
%TO.N,+3.3VADC*%
X146558000Y-123952000D03*
%TO.P,C7,2*%
%TO.N,-BATT*%
X144058000Y-123952000D03*
%TD*%
D13*
%TO.P,Q2,1,S*%
%TO.N,+BATT*%
X154432000Y-107294000D03*
D14*
%TO.P,Q2,2,G*%
%TO.N,Net-(Q2-Pad2)*%
X155702000Y-107294000D03*
%TO.P,Q2,3,D*%
%TO.N,VDD*%
X156972000Y-107294000D03*
%TD*%
D17*
%TO.P,C8,1*%
%TO.N,VDD*%
X152654000Y-98064000D03*
%TO.P,C8,2*%
%TO.N,-BATT*%
X152654000Y-100564000D03*
%TD*%
D13*
%TO.P,U3,1,GND*%
%TO.N,-BATT*%
X155956000Y-98952000D03*
D14*
%TO.P,U3,2,VI*%
%TO.N,VDD*%
X157226000Y-98952000D03*
%TO.P,U3,3,VO*%
%TO.N,+1V2*%
X158496000Y-98952000D03*
%TD*%
D17*
%TO.P,R3,1*%
%TO.N,Net-(Q1-Pad3)*%
X157988000Y-113030000D03*
D16*
%TO.P,R3,2*%
%TO.N,Net-(Q2-Pad2)*%
X150368000Y-113030000D03*
%TD*%
D17*
%TO.P,R6,1*%
%TO.N,+BATT*%
X137668000Y-116078000D03*
D16*
%TO.P,R6,2*%
%TO.N,Net-(Q1-Pad3)*%
X145288000Y-116078000D03*
%TD*%
D17*
%TO.P,C4,1*%
%TO.N,+3.3V*%
X138069000Y-85090000D03*
%TO.P,C4,2*%
%TO.N,-BATT*%
X140569000Y-85090000D03*
%TD*%
%TO.P,C6,1*%
%TO.N,VDD*%
X146538000Y-119888000D03*
%TO.P,C6,2*%
%TO.N,-BATT*%
X144038000Y-119888000D03*
%TD*%
%TO.P,C9,1*%
%TO.N,+1V2*%
X163322000Y-101326000D03*
%TO.P,C9,2*%
%TO.N,-BATT*%
X163322000Y-98826000D03*
%TD*%
D21*
%TO.P,J2,1,Pin_1*%
%TO.N,Net-(J2-Pad1)*%
X149103000Y-86106000D03*
D22*
%TO.P,J2,2,Pin_2*%
%TO.N,Net-(J2-Pad2)*%
X146563000Y-86106000D03*
%TD*%
D17*
%TO.P,C5,1*%
%TO.N,+3.3V*%
X138069000Y-88138000D03*
%TO.P,C5,2*%
%TO.N,-BATT*%
X140569000Y-88138000D03*
%TD*%
%TO.P,C11,1*%
%TO.N,+BATT*%
X148578000Y-106954000D03*
%TO.P,C11,2*%
%TO.N,-BATT*%
X148578000Y-109454000D03*
%TD*%
%TO.P,C2,1*%
%TO.N,+3.3V*%
X138196000Y-94996000D03*
%TO.P,C2,2*%
%TO.N,-BATT*%
X140696000Y-94996000D03*
%TD*%
%TO.P,C10,1*%
%TO.N,+BATT*%
X140716000Y-98298000D03*
%TO.P,C10,2*%
%TO.N,-BATT*%
X138216000Y-98298000D03*
%TD*%
D23*
%TO.P,J5,1,Pin_1*%
%TO.N,+1V2*%
X168402000Y-105664000D03*
D12*
%TO.P,J5,2,Pin_2*%
%TO.N,/sensor_light*%
X168402000Y-103124000D03*
%TD*%
D24*
%TO.N,+1V2*%
X163322000Y-101326000D02*
X160870000Y-101326000D01*
X160870000Y-101326000D02*
X158496000Y-98952000D01*
D25*
%TO.N,Net-(Q1-Pad3)*%
X154940000Y-116078000D02*
X157988000Y-113030000D01*
X145288000Y-116078000D02*
X154940000Y-116078000D01*
%TD*%
%TA.AperFunction,Conductor*%
%TO.N,-BATT*%
G36*
X141532054Y-78252002D02*
G01*
X141578547Y-78305658D01*
X141588651Y-78375932D01*
X141573052Y-78421000D01*
X141570464Y-78425483D01*
X141567312Y-78429984D01*
X141473360Y-78631464D01*
X141415822Y-78846197D01*
X141396447Y-79067660D01*
X141415822Y-79289123D01*
X141473360Y-79503856D01*
X141475682Y-79508837D01*
X141475683Y-79508838D01*
X141564986Y-79700349D01*
X141564989Y-79700354D01*
X141567312Y-79705336D01*
X141694823Y-79887441D01*
X141852019Y-80044637D01*
X141856527Y-80047794D01*
X141856530Y-80047796D01*
X141922421Y-80093933D01*
X142034123Y-80172148D01*
X142039105Y-80174471D01*
X142039110Y-80174474D01*
X142205851Y-80252226D01*
X142241696Y-80277326D01*
X142658988Y-80694618D01*
X142672932Y-80702232D01*
X142674765Y-80702101D01*
X142681380Y-80697850D01*
X143101904Y-80277326D01*
X143137749Y-80252226D01*
X143304490Y-80174474D01*
X143304495Y-80174471D01*
X143309477Y-80172148D01*
X143421179Y-80093933D01*
X143487070Y-80047796D01*
X143487073Y-80047794D01*
X143491581Y-80044637D01*
X143648777Y-79887441D01*
X143776288Y-79705336D01*
X143778611Y-79700354D01*
X143778614Y-79700349D01*
X143867917Y-79508838D01*
X143867918Y-79508837D01*
X143870240Y-79503856D01*
X143927778Y-79289123D01*
X143947153Y-79067660D01*
X143927778Y-78846197D01*
X143870240Y-78631464D01*
X143776288Y-78429984D01*
X143773136Y-78425483D01*
X143770548Y-78421000D01*
X143753810Y-78352004D01*
X143777031Y-78284913D01*
X143832838Y-78241025D01*
X143879667Y-78232000D01*
X163460333Y-78232000D01*
X163528454Y-78252002D01*
X163574947Y-78305658D01*
X163585051Y-78375932D01*
X163569452Y-78421000D01*
X163566864Y-78425483D01*
X163563712Y-78429984D01*
X163469760Y-78631464D01*
X163412222Y-78846197D01*
X163392847Y-79067660D01*
X163412222Y-79289123D01*
X163469760Y-79503856D01*
X163472082Y-79508837D01*
X163472083Y-79508838D01*
X163561386Y-79700349D01*
X163561389Y-79700354D01*
X163563712Y-79705336D01*
X163691223Y-79887441D01*
X163781837Y-79978055D01*
X163815863Y-80040367D01*
X163810798Y-80111182D01*
X163781837Y-80156245D01*
X163691223Y-80246859D01*
X163688066Y-80251367D01*
X163688064Y-80251370D01*
X163566869Y-80424455D01*
X163563712Y-80428964D01*
X163561389Y-80433946D01*
X163561386Y-80433951D01*
X163472083Y-80625462D01*
X163469760Y-80630444D01*
X163412222Y-80845177D01*
X163392847Y-81066640D01*
X163412222Y-81288103D01*
X163469760Y-81502836D01*
X163472082Y-81507817D01*
X163472083Y-81507818D01*
X163561386Y-81699329D01*
X163561389Y-81699334D01*
X163563712Y-81704316D01*
X163566868Y-81708823D01*
X163566869Y-81708825D01*
X163603307Y-81760863D01*
X163691223Y-81886421D01*
X163848419Y-82043617D01*
X163852927Y-82046774D01*
X163852930Y-82046776D01*
X163928695Y-82099827D01*
X164030523Y-82171128D01*
X164035505Y-82173451D01*
X164035510Y-82173454D01*
X164226010Y-82262285D01*
X164232004Y-82265080D01*
X164237312Y-82266502D01*
X164237314Y-82266503D01*
X164303149Y-82284143D01*
X164446737Y-82322618D01*
X164668200Y-82341993D01*
X164889663Y-82322618D01*
X165033251Y-82284143D01*
X165099086Y-82266503D01*
X165099088Y-82266502D01*
X165104396Y-82265080D01*
X165110390Y-82262285D01*
X165300890Y-82173454D01*
X165300895Y-82173451D01*
X165305877Y-82171128D01*
X165407705Y-82099827D01*
X165483470Y-82046776D01*
X165483473Y-82046774D01*
X165487981Y-82043617D01*
X165645177Y-81886421D01*
X165733094Y-81760863D01*
X165769531Y-81708825D01*
X165769532Y-81708823D01*
X165772688Y-81704316D01*
X165775011Y-81699334D01*
X165775014Y-81699329D01*
X165864317Y-81507818D01*
X165864318Y-81507817D01*
X165866640Y-81502836D01*
X165924178Y-81288103D01*
X165943553Y-81066640D01*
X165924178Y-80845177D01*
X165866640Y-80630444D01*
X165864317Y-80625462D01*
X165775014Y-80433951D01*
X165775011Y-80433946D01*
X165772688Y-80428964D01*
X165769531Y-80424455D01*
X165648336Y-80251370D01*
X165648334Y-80251367D01*
X165645177Y-80246859D01*
X165554563Y-80156245D01*
X165520537Y-80093933D01*
X165525602Y-80023118D01*
X165554563Y-79978055D01*
X165645177Y-79887441D01*
X165772688Y-79705336D01*
X165775011Y-79700354D01*
X165775014Y-79700349D01*
X165864317Y-79508838D01*
X165864318Y-79508837D01*
X165866640Y-79503856D01*
X165924178Y-79289123D01*
X165943553Y-79067660D01*
X165924178Y-78846197D01*
X165866640Y-78631464D01*
X165772688Y-78429984D01*
X165769536Y-78425483D01*
X165766948Y-78421000D01*
X165750210Y-78352004D01*
X165773431Y-78284913D01*
X165829238Y-78241025D01*
X165876067Y-78232000D01*
X173355500Y-78232000D01*
X173423621Y-78252002D01*
X173470114Y-78305658D01*
X173481500Y-78358000D01*
X173481500Y-128905500D01*
X173461498Y-128973621D01*
X173407842Y-129020114D01*
X173355500Y-129031500D01*
X133984500Y-129031500D01*
X133916379Y-129011498D01*
X133869886Y-128957842D01*
X133858500Y-128905500D01*
X133858500Y-125038062D01*
X143336493Y-125038062D01*
X143345789Y-125050077D01*
X143396994Y-125085931D01*
X143406489Y-125091414D01*
X143603947Y-125183490D01*
X143614239Y-125187236D01*
X143824688Y-125243625D01*
X143835481Y-125245528D01*
X144052525Y-125264517D01*
X144063475Y-125264517D01*
X144280519Y-125245528D01*
X144291312Y-125243625D01*
X144501761Y-125187236D01*
X144512053Y-125183490D01*
X144709511Y-125091414D01*
X144719006Y-125085931D01*
X144771048Y-125049491D01*
X144779424Y-125039012D01*
X144772356Y-125025566D01*
X144070812Y-124324022D01*
X144056868Y-124316408D01*
X144055035Y-124316539D01*
X144048420Y-124320790D01*
X143342923Y-125026287D01*
X143336493Y-125038062D01*
X133858500Y-125038062D01*
X133858500Y-123182750D01*
X138436524Y-123182750D01*
X138440869Y-123230493D01*
X138453107Y-123364957D01*
X138454894Y-123384596D01*
X138456632Y-123390502D01*
X138456633Y-123390506D01*
X138488255Y-123497947D01*
X138512119Y-123579029D01*
X138514972Y-123584486D01*
X138514973Y-123584489D01*
X138519127Y-123592435D01*
X138606019Y-123758645D01*
X138609879Y-123763445D01*
X138609879Y-123763446D01*
X138615729Y-123770722D01*
X138733019Y-123916601D01*
X138888281Y-124046881D01*
X138893673Y-124049845D01*
X138893677Y-124049848D01*
X139060494Y-124141556D01*
X139065891Y-124144523D01*
X139259084Y-124205807D01*
X139265201Y-124206493D01*
X139265205Y-124206494D01*
X139339348Y-124214810D01*
X139416817Y-124223500D01*
X139976004Y-124223500D01*
X140126713Y-124208723D01*
X140320742Y-124150142D01*
X140499698Y-124054990D01*
X140619262Y-123957475D01*
X142745483Y-123957475D01*
X142764472Y-124174519D01*
X142766375Y-124185312D01*
X142822764Y-124395761D01*
X142826510Y-124406053D01*
X142918586Y-124603511D01*
X142924069Y-124613006D01*
X142960509Y-124665048D01*
X142970988Y-124673424D01*
X142984434Y-124666356D01*
X143685978Y-123964812D01*
X143692356Y-123953132D01*
X144422408Y-123953132D01*
X144422539Y-123954965D01*
X144426790Y-123961580D01*
X145132287Y-124667077D01*
X145144062Y-124673507D01*
X145156077Y-124664211D01*
X145191934Y-124613002D01*
X145198591Y-124601472D01*
X145249973Y-124552479D01*
X145319687Y-124539042D01*
X145385598Y-124565429D01*
X145416829Y-124601472D01*
X145418153Y-124603765D01*
X145420477Y-124608749D01*
X145551802Y-124796300D01*
X145713700Y-124958198D01*
X145718208Y-124961355D01*
X145718211Y-124961357D01*
X145796389Y-125016098D01*
X145901251Y-125089523D01*
X145906233Y-125091846D01*
X145906238Y-125091849D01*
X146102765Y-125183490D01*
X146108757Y-125186284D01*
X146114065Y-125187706D01*
X146114067Y-125187707D01*
X146324598Y-125244119D01*
X146324600Y-125244119D01*
X146329913Y-125245543D01*
X146558000Y-125265498D01*
X146786087Y-125245543D01*
X146791400Y-125244119D01*
X146791402Y-125244119D01*
X147001933Y-125187707D01*
X147001935Y-125187706D01*
X147007243Y-125186284D01*
X147013235Y-125183490D01*
X147209762Y-125091849D01*
X147209767Y-125091846D01*
X147214749Y-125089523D01*
X147319611Y-125016098D01*
X147397789Y-124961357D01*
X147397792Y-124961355D01*
X147402300Y-124958198D01*
X147564198Y-124796300D01*
X147695523Y-124608749D01*
X147697846Y-124603767D01*
X147697849Y-124603762D01*
X147789961Y-124406225D01*
X147789961Y-124406224D01*
X147792284Y-124401243D01*
X147812976Y-124324022D01*
X147850119Y-124185402D01*
X147850119Y-124185400D01*
X147851543Y-124180087D01*
X147871498Y-123952000D01*
X147851543Y-123723913D01*
X147814184Y-123584489D01*
X147793707Y-123508067D01*
X147793706Y-123508065D01*
X147792284Y-123502757D01*
X147737185Y-123384596D01*
X147697849Y-123300238D01*
X147697846Y-123300233D01*
X147695523Y-123295251D01*
X147564198Y-123107700D01*
X147402300Y-122945802D01*
X147397792Y-122942645D01*
X147397789Y-122942643D01*
X147315902Y-122885305D01*
X147214749Y-122814477D01*
X147209767Y-122812154D01*
X147209762Y-122812151D01*
X147012225Y-122720039D01*
X147012224Y-122720039D01*
X147007243Y-122717716D01*
X147001935Y-122716294D01*
X147001933Y-122716293D01*
X146791402Y-122659881D01*
X146791400Y-122659881D01*
X146786087Y-122658457D01*
X146558000Y-122638502D01*
X146329913Y-122658457D01*
X146324600Y-122659881D01*
X146324598Y-122659881D01*
X146114067Y-122716293D01*
X146114065Y-122716294D01*
X146108757Y-122717716D01*
X146103776Y-122720039D01*
X146103775Y-122720039D01*
X145906238Y-122812151D01*
X145906233Y-122812154D01*
X145901251Y-122814477D01*
X145800098Y-122885305D01*
X145718211Y-122942643D01*
X145718208Y-122942645D01*
X145713700Y-122945802D01*
X145551802Y-123107700D01*
X145548645Y-123112208D01*
X145548643Y-123112211D01*
X145489098Y-123197250D01*
X145420477Y-123295251D01*
X145418153Y-123300235D01*
X145416829Y-123302528D01*
X145365447Y-123351521D01*
X145295733Y-123364957D01*
X145229822Y-123338571D01*
X145198591Y-123302528D01*
X145191934Y-123290998D01*
X145155491Y-123238952D01*
X145145012Y-123230576D01*
X145131566Y-123237644D01*
X144430022Y-123939188D01*
X144422408Y-123953132D01*
X143692356Y-123953132D01*
X143693592Y-123950868D01*
X143693461Y-123949035D01*
X143689210Y-123942420D01*
X142983713Y-123236923D01*
X142971938Y-123230493D01*
X142959923Y-123239789D01*
X142924069Y-123290994D01*
X142918586Y-123300489D01*
X142826510Y-123497947D01*
X142822764Y-123508239D01*
X142766375Y-123718688D01*
X142764472Y-123729481D01*
X142745483Y-123946525D01*
X142745483Y-123957475D01*
X140619262Y-123957475D01*
X140656763Y-123926890D01*
X140669246Y-123911801D01*
X140782027Y-123775472D01*
X140782029Y-123775469D01*
X140785956Y-123770722D01*
X140882356Y-123592435D01*
X140942290Y-123398820D01*
X140948623Y-123338571D01*
X140962832Y-123203378D01*
X140962832Y-123203377D01*
X140963476Y-123197250D01*
X140949875Y-123047800D01*
X140945665Y-123001543D01*
X140945664Y-123001540D01*
X140945106Y-122995404D01*
X140940534Y-122979868D01*
X140906722Y-122864988D01*
X143336576Y-122864988D01*
X143343644Y-122878434D01*
X144045188Y-123579978D01*
X144059132Y-123587592D01*
X144060965Y-123587461D01*
X144067580Y-123583210D01*
X144773077Y-122877713D01*
X144779507Y-122865938D01*
X144770211Y-122853923D01*
X144719006Y-122818069D01*
X144709511Y-122812586D01*
X144512053Y-122720510D01*
X144501761Y-122716764D01*
X144291312Y-122660375D01*
X144280519Y-122658472D01*
X144063475Y-122639483D01*
X144052525Y-122639483D01*
X143835481Y-122658472D01*
X143824688Y-122660375D01*
X143614239Y-122716764D01*
X143603947Y-122720510D01*
X143406489Y-122812586D01*
X143396994Y-122818069D01*
X143344952Y-122854509D01*
X143336576Y-122864988D01*
X140906722Y-122864988D01*
X140889620Y-122806880D01*
X140887881Y-122800971D01*
X140883951Y-122793452D01*
X140814380Y-122660375D01*
X140793981Y-122621355D01*
X140794016Y-122621337D01*
X140774111Y-122555559D01*
X140789271Y-122494591D01*
X140824216Y-122429962D01*
X140874805Y-122336400D01*
X150005500Y-122336400D01*
X150005837Y-122339646D01*
X150005837Y-122339650D01*
X150015378Y-122431599D01*
X150016474Y-122442166D01*
X150018655Y-122448702D01*
X150018655Y-122448704D01*
X150033964Y-122494591D01*
X150072450Y-122609946D01*
X150165522Y-122760348D01*
X150290697Y-122885305D01*
X150296927Y-122889145D01*
X150296928Y-122889146D01*
X150434090Y-122973694D01*
X150441262Y-122978115D01*
X150475569Y-122989494D01*
X150602611Y-123031632D01*
X150602613Y-123031632D01*
X150609139Y-123033797D01*
X150615975Y-123034497D01*
X150615978Y-123034498D01*
X150659031Y-123038909D01*
X150713600Y-123044500D01*
X152054400Y-123044500D01*
X152057646Y-123044163D01*
X152057650Y-123044163D01*
X152153308Y-123034238D01*
X152153312Y-123034237D01*
X152160166Y-123033526D01*
X152166702Y-123031345D01*
X152166704Y-123031345D01*
X152298806Y-122987272D01*
X152327946Y-122977550D01*
X152478348Y-122884478D01*
X152603305Y-122759303D01*
X152627218Y-122720510D01*
X152696115Y-122608738D01*
X152698164Y-122610001D01*
X152737487Y-122565344D01*
X152805765Y-122545886D01*
X152873724Y-122566430D01*
X152899997Y-122589384D01*
X152956209Y-122654276D01*
X153130615Y-122799071D01*
X153217044Y-122849576D01*
X153321867Y-122910829D01*
X153321870Y-122910831D01*
X153326329Y-122913436D01*
X153538093Y-122994301D01*
X153543161Y-122995332D01*
X153543164Y-122995333D01*
X153649764Y-123017021D01*
X153760221Y-123039494D01*
X153765394Y-123039684D01*
X153765397Y-123039684D01*
X153981583Y-123047611D01*
X153981587Y-123047611D01*
X153986747Y-123047800D01*
X153991867Y-123047144D01*
X153991869Y-123047144D01*
X154063513Y-123037966D01*
X154211588Y-123018997D01*
X154216537Y-123017512D01*
X154216543Y-123017511D01*
X154423756Y-122955344D01*
X154423755Y-122955344D01*
X154428706Y-122953859D01*
X154632270Y-122854134D01*
X154636475Y-122851134D01*
X154636481Y-122851131D01*
X154700490Y-122805474D01*
X155689355Y-122805474D01*
X155694636Y-122812529D01*
X155862087Y-122910380D01*
X155871370Y-122914827D01*
X156073402Y-122991975D01*
X156083300Y-122994851D01*
X156295219Y-123037966D01*
X156305447Y-123039185D01*
X156521560Y-123047111D01*
X156531846Y-123046644D01*
X156746353Y-123019164D01*
X156756439Y-123017021D01*
X156963581Y-122954875D01*
X156973158Y-122951122D01*
X157167378Y-122855975D01*
X157176216Y-122850706D01*
X157227587Y-122814064D01*
X157235988Y-122803364D01*
X157229002Y-122790213D01*
X156476811Y-122038021D01*
X156462868Y-122030408D01*
X156461034Y-122030539D01*
X156454420Y-122034790D01*
X155696112Y-122793099D01*
X155689355Y-122805474D01*
X154700490Y-122805474D01*
X154812609Y-122725500D01*
X154812611Y-122725498D01*
X154816813Y-122722501D01*
X154977378Y-122562495D01*
X154983166Y-122554441D01*
X155066725Y-122438155D01*
X155093262Y-122401226D01*
X155149256Y-122357578D01*
X155219959Y-122351132D01*
X155282924Y-122383935D01*
X155303016Y-122408916D01*
X155315914Y-122429962D01*
X155326372Y-122439424D01*
X155335148Y-122435641D01*
X156091979Y-121678811D01*
X156098356Y-121667132D01*
X156828408Y-121667132D01*
X156828539Y-121668966D01*
X156832790Y-121675580D01*
X157588810Y-122431599D01*
X157600816Y-122438155D01*
X157612555Y-122429186D01*
X157646206Y-122382356D01*
X157651516Y-122373519D01*
X157669861Y-122336400D01*
X162959500Y-122336400D01*
X162959837Y-122339646D01*
X162959837Y-122339650D01*
X162969378Y-122431599D01*
X162970474Y-122442166D01*
X162972655Y-122448702D01*
X162972655Y-122448704D01*
X162987964Y-122494591D01*
X163026450Y-122609946D01*
X163119522Y-122760348D01*
X163244697Y-122885305D01*
X163250927Y-122889145D01*
X163250928Y-122889146D01*
X163388090Y-122973694D01*
X163395262Y-122978115D01*
X163429569Y-122989494D01*
X163556611Y-123031632D01*
X163556613Y-123031632D01*
X163563139Y-123033797D01*
X163569975Y-123034497D01*
X163569978Y-123034498D01*
X163613031Y-123038909D01*
X163667600Y-123044500D01*
X165008400Y-123044500D01*
X165011646Y-123044163D01*
X165011650Y-123044163D01*
X165107308Y-123034238D01*
X165107312Y-123034237D01*
X165114166Y-123033526D01*
X165120702Y-123031345D01*
X165120704Y-123031345D01*
X165252806Y-122987272D01*
X165281946Y-122977550D01*
X165432348Y-122884478D01*
X165557305Y-122759303D01*
X165581218Y-122720510D01*
X165650115Y-122608738D01*
X165652164Y-122610001D01*
X165691487Y-122565344D01*
X165759765Y-122545886D01*
X165827724Y-122566430D01*
X165853997Y-122589384D01*
X165910209Y-122654276D01*
X166084615Y-122799071D01*
X166171044Y-122849576D01*
X166275867Y-122910829D01*
X166275870Y-122910831D01*
X166280329Y-122913436D01*
X166492093Y-122994301D01*
X166497161Y-122995332D01*
X166497164Y-122995333D01*
X166603764Y-123017021D01*
X166714221Y-123039494D01*
X166719394Y-123039684D01*
X166719397Y-123039684D01*
X166935583Y-123047611D01*
X166935587Y-123047611D01*
X166940747Y-123047800D01*
X166945867Y-123047144D01*
X166945869Y-123047144D01*
X167017513Y-123037966D01*
X167165588Y-123018997D01*
X167170537Y-123017512D01*
X167170543Y-123017511D01*
X167377756Y-122955344D01*
X167377755Y-122955344D01*
X167382706Y-122953859D01*
X167586270Y-122854134D01*
X167590475Y-122851134D01*
X167590481Y-122851131D01*
X167654490Y-122805474D01*
X168643355Y-122805474D01*
X168648636Y-122812529D01*
X168816087Y-122910380D01*
X168825370Y-122914827D01*
X169027402Y-122991975D01*
X169037300Y-122994851D01*
X169249219Y-123037966D01*
X169259447Y-123039185D01*
X169475560Y-123047111D01*
X169485846Y-123046644D01*
X169700353Y-123019164D01*
X169710439Y-123017021D01*
X169917581Y-122954875D01*
X169927158Y-122951122D01*
X170121378Y-122855975D01*
X170130216Y-122850706D01*
X170181587Y-122814064D01*
X170189988Y-122803364D01*
X170183002Y-122790213D01*
X169430811Y-122038021D01*
X169416868Y-122030408D01*
X169415034Y-122030539D01*
X169408420Y-122034790D01*
X168650112Y-122793099D01*
X168643355Y-122805474D01*
X167654490Y-122805474D01*
X167766609Y-122725500D01*
X167766611Y-122725498D01*
X167770813Y-122722501D01*
X167931378Y-122562495D01*
X167937166Y-122554441D01*
X168020725Y-122438155D01*
X168047262Y-122401226D01*
X168103256Y-122357578D01*
X168173959Y-122351132D01*
X168236924Y-122383935D01*
X168257016Y-122408916D01*
X168269914Y-122429962D01*
X168280372Y-122439424D01*
X168289148Y-122435641D01*
X169045979Y-121678811D01*
X169052356Y-121667132D01*
X169782408Y-121667132D01*
X169782539Y-121668966D01*
X169786790Y-121675580D01*
X170542810Y-122431599D01*
X170554816Y-122438155D01*
X170566555Y-122429186D01*
X170600206Y-122382356D01*
X170605516Y-122373519D01*
X170701329Y-122179655D01*
X170705128Y-122170060D01*
X170767991Y-121963156D01*
X170770170Y-121953075D01*
X170798635Y-121736868D01*
X170799154Y-121730193D01*
X170800641Y-121669364D01*
X170800447Y-121662646D01*
X170782580Y-121445316D01*
X170780897Y-121435154D01*
X170728213Y-121225407D01*
X170724895Y-121215660D01*
X170638659Y-121017330D01*
X170633792Y-121008255D01*
X170565528Y-120902734D01*
X170554843Y-120893531D01*
X170545276Y-120897935D01*
X169790021Y-121653189D01*
X169782408Y-121667132D01*
X169052356Y-121667132D01*
X169053592Y-121664868D01*
X169053461Y-121663034D01*
X169049210Y-121656420D01*
X168293451Y-120900662D01*
X168281920Y-120894365D01*
X168269636Y-120903989D01*
X168251940Y-120929931D01*
X168197029Y-120974935D01*
X168126504Y-120983107D01*
X168062757Y-120951853D01*
X168042059Y-120927368D01*
X167976722Y-120826373D01*
X167976720Y-120826370D01*
X167973914Y-120822033D01*
X167821356Y-120654374D01*
X167817305Y-120651175D01*
X167817301Y-120651171D01*
X167661518Y-120528141D01*
X168644936Y-120528141D01*
X168651679Y-120540468D01*
X169405189Y-121293979D01*
X169419132Y-121301592D01*
X169420966Y-121301461D01*
X169427580Y-121297210D01*
X170185633Y-120539156D01*
X170192650Y-120526305D01*
X170185295Y-120516210D01*
X170178664Y-120511804D01*
X169989334Y-120407288D01*
X169979937Y-120403065D01*
X169776086Y-120330877D01*
X169766115Y-120328243D01*
X169553216Y-120290321D01*
X169542962Y-120289351D01*
X169326716Y-120286708D01*
X169316431Y-120287428D01*
X169102666Y-120320138D01*
X169092647Y-120322525D01*
X168887086Y-120389713D01*
X168877584Y-120393708D01*
X168685768Y-120493560D01*
X168677048Y-120499052D01*
X168653390Y-120516815D01*
X168644936Y-120528141D01*
X167661518Y-120528141D01*
X167647519Y-120517085D01*
X167647515Y-120517083D01*
X167643464Y-120513883D01*
X167620904Y-120501429D01*
X167573103Y-120475042D01*
X167445015Y-120404334D01*
X167440146Y-120402610D01*
X167440142Y-120402608D01*
X167236214Y-120330393D01*
X167236210Y-120330392D01*
X167231339Y-120328667D01*
X167226246Y-120327760D01*
X167226243Y-120327759D01*
X167153832Y-120314861D01*
X167008173Y-120288915D01*
X166919227Y-120287828D01*
X166786681Y-120286208D01*
X166786679Y-120286208D01*
X166781511Y-120286145D01*
X166557441Y-120320433D01*
X166341979Y-120390857D01*
X166337391Y-120393245D01*
X166337387Y-120393247D01*
X166154448Y-120488479D01*
X166140913Y-120495525D01*
X166136780Y-120498628D01*
X166136777Y-120498630D01*
X165989103Y-120609507D01*
X165959641Y-120631628D01*
X165956069Y-120635366D01*
X165849634Y-120746743D01*
X165788109Y-120782173D01*
X165717197Y-120778716D01*
X165659411Y-120737470D01*
X165649821Y-120721887D01*
X165649550Y-120722054D01*
X165560332Y-120577880D01*
X165556478Y-120571652D01*
X165533793Y-120549006D01*
X165436483Y-120451866D01*
X165431303Y-120446695D01*
X165425072Y-120442854D01*
X165286968Y-120357725D01*
X165286966Y-120357724D01*
X165280738Y-120353885D01*
X165179883Y-120320433D01*
X165119389Y-120300368D01*
X165119387Y-120300368D01*
X165112861Y-120298203D01*
X165106025Y-120297503D01*
X165106022Y-120297502D01*
X165062969Y-120293091D01*
X165008400Y-120287500D01*
X163667600Y-120287500D01*
X163664354Y-120287837D01*
X163664350Y-120287837D01*
X163568692Y-120297762D01*
X163568688Y-120297763D01*
X163561834Y-120298474D01*
X163555298Y-120300655D01*
X163555296Y-120300655D01*
X163431212Y-120342053D01*
X163394054Y-120354450D01*
X163243652Y-120447522D01*
X163118695Y-120572697D01*
X163025885Y-120723262D01*
X162970203Y-120891139D01*
X162969503Y-120897975D01*
X162969502Y-120897978D01*
X162968427Y-120908475D01*
X162959500Y-120995600D01*
X162959500Y-122336400D01*
X157669861Y-122336400D01*
X157747329Y-122179655D01*
X157751128Y-122170060D01*
X157813991Y-121963156D01*
X157816170Y-121953075D01*
X157844635Y-121736868D01*
X157845154Y-121730193D01*
X157846641Y-121669364D01*
X157846447Y-121662646D01*
X157828580Y-121445316D01*
X157826897Y-121435154D01*
X157774213Y-121225407D01*
X157770895Y-121215660D01*
X157684659Y-121017330D01*
X157679792Y-121008255D01*
X157611528Y-120902734D01*
X157600843Y-120893531D01*
X157591276Y-120897935D01*
X156836021Y-121653189D01*
X156828408Y-121667132D01*
X156098356Y-121667132D01*
X156099592Y-121664868D01*
X156099461Y-121663034D01*
X156095210Y-121656420D01*
X155339451Y-120900662D01*
X155327920Y-120894365D01*
X155315636Y-120903989D01*
X155297940Y-120929931D01*
X155243029Y-120974935D01*
X155172504Y-120983107D01*
X155108757Y-120951853D01*
X155088059Y-120927368D01*
X155022722Y-120826373D01*
X155022720Y-120826370D01*
X155019914Y-120822033D01*
X154867356Y-120654374D01*
X154863305Y-120651175D01*
X154863301Y-120651171D01*
X154707518Y-120528141D01*
X155690936Y-120528141D01*
X155697679Y-120540468D01*
X156451189Y-121293979D01*
X156465132Y-121301592D01*
X156466966Y-121301461D01*
X156473580Y-121297210D01*
X157231633Y-120539156D01*
X157238650Y-120526305D01*
X157231295Y-120516210D01*
X157224664Y-120511804D01*
X157035334Y-120407288D01*
X157025937Y-120403065D01*
X156822086Y-120330877D01*
X156812115Y-120328243D01*
X156599216Y-120290321D01*
X156588962Y-120289351D01*
X156372716Y-120286708D01*
X156362431Y-120287428D01*
X156148666Y-120320138D01*
X156138647Y-120322525D01*
X155933086Y-120389713D01*
X155923584Y-120393708D01*
X155731768Y-120493560D01*
X155723048Y-120499052D01*
X155699390Y-120516815D01*
X155690936Y-120528141D01*
X154707518Y-120528141D01*
X154693519Y-120517085D01*
X154693515Y-120517083D01*
X154689464Y-120513883D01*
X154666904Y-120501429D01*
X154619103Y-120475042D01*
X154491015Y-120404334D01*
X154486146Y-120402610D01*
X154486142Y-120402608D01*
X154282214Y-120330393D01*
X154282210Y-120330392D01*
X154277339Y-120328667D01*
X154272246Y-120327760D01*
X154272243Y-120327759D01*
X154199832Y-120314861D01*
X154054173Y-120288915D01*
X153965227Y-120287828D01*
X153832681Y-120286208D01*
X153832679Y-120286208D01*
X153827511Y-120286145D01*
X153603441Y-120320433D01*
X153387979Y-120390857D01*
X153383391Y-120393245D01*
X153383387Y-120393247D01*
X153200448Y-120488479D01*
X153186913Y-120495525D01*
X153182780Y-120498628D01*
X153182777Y-120498630D01*
X153035103Y-120609507D01*
X153005641Y-120631628D01*
X153002069Y-120635366D01*
X152895634Y-120746743D01*
X152834109Y-120782173D01*
X152763197Y-120778716D01*
X152705411Y-120737470D01*
X152695821Y-120721887D01*
X152695550Y-120722054D01*
X152606332Y-120577880D01*
X152602478Y-120571652D01*
X152579793Y-120549006D01*
X152482483Y-120451866D01*
X152477303Y-120446695D01*
X152471072Y-120442854D01*
X152332968Y-120357725D01*
X152332966Y-120357724D01*
X152326738Y-120353885D01*
X152225883Y-120320433D01*
X152165389Y-120300368D01*
X152165387Y-120300368D01*
X152158861Y-120298203D01*
X152152025Y-120297503D01*
X152152022Y-120297502D01*
X152108969Y-120293091D01*
X152054400Y-120287500D01*
X150713600Y-120287500D01*
X150710354Y-120287837D01*
X150710350Y-120287837D01*
X150614692Y-120297762D01*
X150614688Y-120297763D01*
X150607834Y-120298474D01*
X150601298Y-120300655D01*
X150601296Y-120300655D01*
X150477212Y-120342053D01*
X150440054Y-120354450D01*
X150289652Y-120447522D01*
X150164695Y-120572697D01*
X150071885Y-120723262D01*
X150016203Y-120891139D01*
X150015503Y-120897975D01*
X150015502Y-120897978D01*
X150014427Y-120908475D01*
X150005500Y-120995600D01*
X150005500Y-122336400D01*
X140874805Y-122336400D01*
X140882356Y-122322435D01*
X140942290Y-122128820D01*
X140951834Y-122038021D01*
X140962832Y-121933378D01*
X140962832Y-121933377D01*
X140963476Y-121927250D01*
X140955898Y-121843986D01*
X140945665Y-121731543D01*
X140945664Y-121731540D01*
X140945106Y-121725404D01*
X140939188Y-121705294D01*
X140889620Y-121536881D01*
X140887881Y-121530971D01*
X140888559Y-121530771D01*
X140882044Y-121464727D01*
X140895320Y-121427677D01*
X140903321Y-121413063D01*
X140948478Y-121292606D01*
X140952105Y-121277351D01*
X140957631Y-121226486D01*
X140958000Y-121219672D01*
X140958000Y-120974062D01*
X143316493Y-120974062D01*
X143325789Y-120986077D01*
X143376994Y-121021931D01*
X143386489Y-121027414D01*
X143583947Y-121119490D01*
X143594239Y-121123236D01*
X143804688Y-121179625D01*
X143815481Y-121181528D01*
X144032525Y-121200517D01*
X144043475Y-121200517D01*
X144260519Y-121181528D01*
X144271312Y-121179625D01*
X144481761Y-121123236D01*
X144492053Y-121119490D01*
X144689511Y-121027414D01*
X144699006Y-121021931D01*
X144751048Y-120985491D01*
X144759424Y-120975012D01*
X144752356Y-120961566D01*
X144050812Y-120260022D01*
X144036868Y-120252408D01*
X144035035Y-120252539D01*
X144028420Y-120256790D01*
X143322923Y-120962287D01*
X143316493Y-120974062D01*
X140958000Y-120974062D01*
X140958000Y-120922115D01*
X140953525Y-120906876D01*
X140952135Y-120905671D01*
X140944452Y-120904000D01*
X140146242Y-120904000D01*
X140132197Y-120903215D01*
X140117799Y-120901600D01*
X139983183Y-120886500D01*
X139423996Y-120886500D01*
X139273287Y-120901277D01*
X139270998Y-120901968D01*
X139250276Y-120904000D01*
X138460116Y-120904000D01*
X138444877Y-120908475D01*
X138443672Y-120909865D01*
X138442001Y-120917548D01*
X138442001Y-121219669D01*
X138442371Y-121226490D01*
X138447895Y-121277352D01*
X138451521Y-121292604D01*
X138496677Y-121413056D01*
X138505114Y-121428466D01*
X138520284Y-121497823D01*
X138514960Y-121526235D01*
X138457710Y-121711180D01*
X138436524Y-121912750D01*
X138454894Y-122114596D01*
X138456632Y-122120502D01*
X138456633Y-122120506D01*
X138474042Y-122179655D01*
X138512119Y-122309029D01*
X138514972Y-122314486D01*
X138514973Y-122314489D01*
X138558958Y-122398625D01*
X138605923Y-122488460D01*
X138605923Y-122488462D01*
X138606019Y-122488645D01*
X138605984Y-122488663D01*
X138625889Y-122554441D01*
X138610729Y-122615409D01*
X138517644Y-122787565D01*
X138489738Y-122877713D01*
X138465708Y-122955344D01*
X138457710Y-122981180D01*
X138457066Y-122987305D01*
X138457066Y-122987306D01*
X138451689Y-123038461D01*
X138436524Y-123182750D01*
X133858500Y-123182750D01*
X133858500Y-120377885D01*
X138442000Y-120377885D01*
X138446475Y-120393124D01*
X138447865Y-120394329D01*
X138455548Y-120396000D01*
X139427885Y-120396000D01*
X139443124Y-120391525D01*
X139444329Y-120390135D01*
X139446000Y-120382452D01*
X139446000Y-120377885D01*
X139954000Y-120377885D01*
X139958475Y-120393124D01*
X139959865Y-120394329D01*
X139967548Y-120396000D01*
X140939884Y-120396000D01*
X140955123Y-120391525D01*
X140956328Y-120390135D01*
X140957999Y-120382452D01*
X140957999Y-120080331D01*
X140957629Y-120073510D01*
X140952105Y-120022648D01*
X140948479Y-120007396D01*
X140905772Y-119893475D01*
X142725483Y-119893475D01*
X142744472Y-120110519D01*
X142746375Y-120121312D01*
X142802764Y-120331761D01*
X142806510Y-120342053D01*
X142898586Y-120539511D01*
X142904069Y-120549006D01*
X142940509Y-120601048D01*
X142950988Y-120609424D01*
X142964434Y-120602356D01*
X143665978Y-119900812D01*
X143672356Y-119889132D01*
X144402408Y-119889132D01*
X144402539Y-119890965D01*
X144406790Y-119897580D01*
X145112287Y-120603077D01*
X145124062Y-120609507D01*
X145136077Y-120600211D01*
X145171934Y-120549002D01*
X145178591Y-120537472D01*
X145229973Y-120488479D01*
X145299687Y-120475042D01*
X145365598Y-120501429D01*
X145396829Y-120537472D01*
X145398153Y-120539765D01*
X145400477Y-120544749D01*
X145439312Y-120600211D01*
X145525474Y-120723262D01*
X145531802Y-120732300D01*
X145693700Y-120894198D01*
X145698208Y-120897355D01*
X145698211Y-120897357D01*
X145744732Y-120929931D01*
X145881251Y-121025523D01*
X145886233Y-121027846D01*
X145886238Y-121027849D01*
X145944486Y-121055010D01*
X146088757Y-121122284D01*
X146094065Y-121123706D01*
X146094067Y-121123707D01*
X146304598Y-121180119D01*
X146304600Y-121180119D01*
X146309913Y-121181543D01*
X146538000Y-121201498D01*
X146766087Y-121181543D01*
X146771400Y-121180119D01*
X146771402Y-121180119D01*
X146981933Y-121123707D01*
X146981935Y-121123706D01*
X146987243Y-121122284D01*
X147131514Y-121055010D01*
X147189762Y-121027849D01*
X147189767Y-121027846D01*
X147194749Y-121025523D01*
X147331268Y-120929931D01*
X147377789Y-120897357D01*
X147377792Y-120897355D01*
X147382300Y-120894198D01*
X147544198Y-120732300D01*
X147550527Y-120723262D01*
X147636688Y-120600211D01*
X147675523Y-120544749D01*
X147677846Y-120539767D01*
X147677849Y-120539762D01*
X147769961Y-120342225D01*
X147769961Y-120342224D01*
X147772284Y-120337243D01*
X147774120Y-120330393D01*
X147830119Y-120121402D01*
X147830119Y-120121400D01*
X147831543Y-120116087D01*
X147851498Y-119888000D01*
X147831543Y-119659913D01*
X147821616Y-119622865D01*
X147773707Y-119444067D01*
X147773706Y-119444065D01*
X147772284Y-119438757D01*
X147769961Y-119433775D01*
X147677849Y-119236238D01*
X147677846Y-119236233D01*
X147675523Y-119231251D01*
X147544198Y-119043700D01*
X147382300Y-118881802D01*
X147377792Y-118878645D01*
X147377789Y-118878643D01*
X147251920Y-118790509D01*
X147194749Y-118750477D01*
X147189767Y-118748154D01*
X147189762Y-118748151D01*
X146992225Y-118656039D01*
X146992224Y-118656039D01*
X146987243Y-118653716D01*
X146981935Y-118652294D01*
X146981933Y-118652293D01*
X146771402Y-118595881D01*
X146771400Y-118595881D01*
X146766087Y-118594457D01*
X146538000Y-118574502D01*
X146309913Y-118594457D01*
X146304600Y-118595881D01*
X146304598Y-118595881D01*
X146094067Y-118652293D01*
X146094065Y-118652294D01*
X146088757Y-118653716D01*
X146083776Y-118656039D01*
X146083775Y-118656039D01*
X145886238Y-118748151D01*
X145886233Y-118748154D01*
X145881251Y-118750477D01*
X145824080Y-118790509D01*
X145698211Y-118878643D01*
X145698208Y-118878645D01*
X145693700Y-118881802D01*
X145531802Y-119043700D01*
X145400477Y-119231251D01*
X145398153Y-119236235D01*
X145396829Y-119238528D01*
X145345447Y-119287521D01*
X145275733Y-119300957D01*
X145209822Y-119274571D01*
X145178591Y-119238528D01*
X145171934Y-119226998D01*
X145135491Y-119174952D01*
X145125012Y-119166576D01*
X145111566Y-119173644D01*
X144410022Y-119875188D01*
X144402408Y-119889132D01*
X143672356Y-119889132D01*
X143673592Y-119886868D01*
X143673461Y-119885035D01*
X143669210Y-119878420D01*
X142963713Y-119172923D01*
X142951938Y-119166493D01*
X142939923Y-119175789D01*
X142904069Y-119226994D01*
X142898586Y-119236489D01*
X142806510Y-119433947D01*
X142802764Y-119444239D01*
X142746375Y-119654688D01*
X142744472Y-119665481D01*
X142725483Y-119882525D01*
X142725483Y-119893475D01*
X140905772Y-119893475D01*
X140903324Y-119886946D01*
X140894786Y-119871351D01*
X140818285Y-119769276D01*
X140805724Y-119756715D01*
X140703649Y-119680214D01*
X140688054Y-119671676D01*
X140567606Y-119626522D01*
X140552351Y-119622895D01*
X140501486Y-119617369D01*
X140494672Y-119617000D01*
X139972115Y-119617000D01*
X139956876Y-119621475D01*
X139955671Y-119622865D01*
X139954000Y-119630548D01*
X139954000Y-120377885D01*
X139446000Y-120377885D01*
X139446000Y-119635116D01*
X139441525Y-119619877D01*
X139440135Y-119618672D01*
X139432452Y-119617001D01*
X138905331Y-119617001D01*
X138898510Y-119617371D01*
X138847648Y-119622895D01*
X138832396Y-119626521D01*
X138711946Y-119671676D01*
X138696351Y-119680214D01*
X138594276Y-119756715D01*
X138581715Y-119769276D01*
X138505214Y-119871351D01*
X138496676Y-119886946D01*
X138451522Y-120007394D01*
X138447895Y-120022649D01*
X138442369Y-120073514D01*
X138442000Y-120080328D01*
X138442000Y-120377885D01*
X133858500Y-120377885D01*
X133858500Y-118800988D01*
X143316576Y-118800988D01*
X143323644Y-118814434D01*
X144025188Y-119515978D01*
X144039132Y-119523592D01*
X144040965Y-119523461D01*
X144047580Y-119519210D01*
X144753077Y-118813713D01*
X144759507Y-118801938D01*
X144750211Y-118789923D01*
X144699006Y-118754069D01*
X144689511Y-118748586D01*
X144492053Y-118656510D01*
X144481761Y-118652764D01*
X144271312Y-118596375D01*
X144260519Y-118594472D01*
X144043475Y-118575483D01*
X144032525Y-118575483D01*
X143815481Y-118594472D01*
X143804688Y-118596375D01*
X143594239Y-118652764D01*
X143583947Y-118656510D01*
X143386489Y-118748586D01*
X143376994Y-118754069D01*
X143324952Y-118790509D01*
X143316576Y-118800988D01*
X133858500Y-118800988D01*
X133858500Y-116078000D01*
X136354502Y-116078000D01*
X136374457Y-116306087D01*
X136375881Y-116311400D01*
X136375881Y-116311402D01*
X136428934Y-116509395D01*
X136433716Y-116527243D01*
X136436039Y-116532224D01*
X136436039Y-116532225D01*
X136528151Y-116729762D01*
X136528154Y-116729767D01*
X136530477Y-116734749D01*
X136661802Y-116922300D01*
X136823700Y-117084198D01*
X136828208Y-117087355D01*
X136828211Y-117087357D01*
X136906389Y-117142098D01*
X137011251Y-117215523D01*
X137016233Y-117217846D01*
X137016238Y-117217849D01*
X137213775Y-117309961D01*
X137218757Y-117312284D01*
X137224065Y-117313706D01*
X137224067Y-117313707D01*
X137434598Y-117370119D01*
X137434600Y-117370119D01*
X137439913Y-117371543D01*
X137668000Y-117391498D01*
X137896087Y-117371543D01*
X137901400Y-117370119D01*
X137901402Y-117370119D01*
X138111933Y-117313707D01*
X138111935Y-117313706D01*
X138117243Y-117312284D01*
X138122225Y-117309961D01*
X138319762Y-117217849D01*
X138319767Y-117217846D01*
X138324749Y-117215523D01*
X138429611Y-117142098D01*
X138507789Y-117087357D01*
X138507792Y-117087355D01*
X138512300Y-117084198D01*
X138674198Y-116922300D01*
X138805523Y-116734749D01*
X138807846Y-116729767D01*
X138807849Y-116729762D01*
X138899961Y-116532225D01*
X138899961Y-116532224D01*
X138902284Y-116527243D01*
X138907067Y-116509395D01*
X138960119Y-116311402D01*
X138960119Y-116311400D01*
X138961543Y-116306087D01*
X138981498Y-116078000D01*
X143974502Y-116078000D01*
X143994457Y-116306087D01*
X143995881Y-116311400D01*
X143995881Y-116311402D01*
X144048934Y-116509395D01*
X144053716Y-116527243D01*
X144056039Y-116532224D01*
X144056039Y-116532225D01*
X144148151Y-116729762D01*
X144148154Y-116729767D01*
X144150477Y-116734749D01*
X144281802Y-116922300D01*
X144443700Y-117084198D01*
X144448208Y-117087355D01*
X144448211Y-117087357D01*
X144526389Y-117142098D01*
X144631251Y-117215523D01*
X144636233Y-117217846D01*
X144636238Y-117217849D01*
X144833775Y-117309961D01*
X144838757Y-117312284D01*
X144844065Y-117313706D01*
X144844067Y-117313707D01*
X145054598Y-117370119D01*
X145054600Y-117370119D01*
X145059913Y-117371543D01*
X145288000Y-117391498D01*
X145516087Y-117371543D01*
X145521400Y-117370119D01*
X145521402Y-117370119D01*
X145731933Y-117313707D01*
X145731935Y-117313706D01*
X145737243Y-117312284D01*
X145742225Y-117309961D01*
X145939762Y-117217849D01*
X145939767Y-117217846D01*
X145944749Y-117215523D01*
X146049611Y-117142098D01*
X146127789Y-117087357D01*
X146127792Y-117087355D01*
X146132300Y-117084198D01*
X146294198Y-116922300D01*
X146404181Y-116765229D01*
X146459638Y-116720901D01*
X146507394Y-116711500D01*
X154861233Y-116711500D01*
X154872416Y-116712027D01*
X154879909Y-116713702D01*
X154887835Y-116713453D01*
X154887836Y-116713453D01*
X154947986Y-116711562D01*
X154951945Y-116711500D01*
X154979856Y-116711500D01*
X154983791Y-116711003D01*
X154983856Y-116710995D01*
X154995693Y-116710062D01*
X155027951Y-116709048D01*
X155031970Y-116708922D01*
X155039889Y-116708673D01*
X155059343Y-116703021D01*
X155078700Y-116699013D01*
X155090930Y-116697468D01*
X155090931Y-116697468D01*
X155098797Y-116696474D01*
X155106168Y-116693555D01*
X155106170Y-116693555D01*
X155139912Y-116680196D01*
X155151142Y-116676351D01*
X155185983Y-116666229D01*
X155185984Y-116666229D01*
X155193593Y-116664018D01*
X155200412Y-116659985D01*
X155200417Y-116659983D01*
X155211028Y-116653707D01*
X155228776Y-116645012D01*
X155247617Y-116637552D01*
X155283387Y-116611564D01*
X155293307Y-116605048D01*
X155324535Y-116586580D01*
X155324538Y-116586578D01*
X155331362Y-116582542D01*
X155345683Y-116568221D01*
X155360717Y-116555380D01*
X155370694Y-116548131D01*
X155377107Y-116543472D01*
X155405298Y-116509395D01*
X155413288Y-116500616D01*
X156851904Y-115062000D01*
X160992502Y-115062000D01*
X161012457Y-115290087D01*
X161013881Y-115295400D01*
X161013881Y-115295402D01*
X161048473Y-115424498D01*
X161071716Y-115511243D01*
X161074039Y-115516224D01*
X161074039Y-115516225D01*
X161166151Y-115713762D01*
X161166154Y-115713767D01*
X161168477Y-115718749D01*
X161299802Y-115906300D01*
X161461700Y-116068198D01*
X161466208Y-116071355D01*
X161466211Y-116071357D01*
X161544389Y-116126098D01*
X161649251Y-116199523D01*
X161654233Y-116201846D01*
X161654238Y-116201849D01*
X161850765Y-116293490D01*
X161856757Y-116296284D01*
X161862065Y-116297706D01*
X161862067Y-116297707D01*
X162072598Y-116354119D01*
X162072600Y-116354119D01*
X162077913Y-116355543D01*
X162306000Y-116375498D01*
X162534087Y-116355543D01*
X162539400Y-116354119D01*
X162539402Y-116354119D01*
X162749933Y-116297707D01*
X162749935Y-116297706D01*
X162755243Y-116296284D01*
X162761235Y-116293490D01*
X162957762Y-116201849D01*
X162957767Y-116201846D01*
X162962749Y-116199523D01*
X163067611Y-116126098D01*
X163145789Y-116071357D01*
X163145792Y-116071355D01*
X163150300Y-116068198D01*
X163312198Y-115906300D01*
X163443523Y-115718749D01*
X163445846Y-115713767D01*
X163445849Y-115713762D01*
X163537961Y-115516225D01*
X163537961Y-115516224D01*
X163540284Y-115511243D01*
X163563528Y-115424498D01*
X163589245Y-115328522D01*
X168643273Y-115328522D01*
X168690764Y-115505761D01*
X168694510Y-115516053D01*
X168786586Y-115713511D01*
X168792069Y-115723007D01*
X168917028Y-115901467D01*
X168924084Y-115909875D01*
X169078125Y-116063916D01*
X169086533Y-116070972D01*
X169264993Y-116195931D01*
X169274489Y-116201414D01*
X169471947Y-116293490D01*
X169482239Y-116297236D01*
X169654503Y-116343394D01*
X169668599Y-116343058D01*
X169672000Y-116335116D01*
X169672000Y-116329967D01*
X170180000Y-116329967D01*
X170183973Y-116343498D01*
X170192522Y-116344727D01*
X170369761Y-116297236D01*
X170380053Y-116293490D01*
X170577511Y-116201414D01*
X170587007Y-116195931D01*
X170765467Y-116070972D01*
X170773875Y-116063916D01*
X170927916Y-115909875D01*
X170934972Y-115901467D01*
X171059931Y-115723007D01*
X171065414Y-115713511D01*
X171157490Y-115516053D01*
X171161236Y-115505761D01*
X171207394Y-115333497D01*
X171207058Y-115319401D01*
X171199116Y-115316000D01*
X170198115Y-115316000D01*
X170182876Y-115320475D01*
X170181671Y-115321865D01*
X170180000Y-115329548D01*
X170180000Y-116329967D01*
X169672000Y-116329967D01*
X169672000Y-115334115D01*
X169667525Y-115318876D01*
X169666135Y-115317671D01*
X169658452Y-115316000D01*
X168658033Y-115316000D01*
X168644502Y-115319973D01*
X168643273Y-115328522D01*
X163589245Y-115328522D01*
X163598119Y-115295402D01*
X163598119Y-115295400D01*
X163599543Y-115290087D01*
X163619498Y-115062000D01*
X163599543Y-114833913D01*
X163589244Y-114795478D01*
X163587911Y-114790503D01*
X168644606Y-114790503D01*
X168644942Y-114804599D01*
X168652884Y-114808000D01*
X169653885Y-114808000D01*
X169669124Y-114803525D01*
X169670329Y-114802135D01*
X169672000Y-114794452D01*
X169672000Y-114789885D01*
X170180000Y-114789885D01*
X170184475Y-114805124D01*
X170185865Y-114806329D01*
X170193548Y-114808000D01*
X171193967Y-114808000D01*
X171207498Y-114804027D01*
X171208727Y-114795478D01*
X171161236Y-114618239D01*
X171157490Y-114607947D01*
X171065414Y-114410489D01*
X171059931Y-114400993D01*
X170934972Y-114222533D01*
X170927916Y-114214125D01*
X170773875Y-114060084D01*
X170765467Y-114053028D01*
X170587007Y-113928069D01*
X170577511Y-113922586D01*
X170380053Y-113830510D01*
X170369761Y-113826764D01*
X170197497Y-113780606D01*
X170183401Y-113780942D01*
X170180000Y-113788884D01*
X170180000Y-114789885D01*
X169672000Y-114789885D01*
X169672000Y-113794033D01*
X169668027Y-113780502D01*
X169659478Y-113779273D01*
X169482239Y-113826764D01*
X169471947Y-113830510D01*
X169274489Y-113922586D01*
X169264993Y-113928069D01*
X169086533Y-114053028D01*
X169078125Y-114060084D01*
X168924084Y-114214125D01*
X168917028Y-114222533D01*
X168792069Y-114400993D01*
X168786586Y-114410489D01*
X168694510Y-114607947D01*
X168690764Y-114618239D01*
X168644606Y-114790503D01*
X163587911Y-114790503D01*
X163541707Y-114618067D01*
X163541706Y-114618065D01*
X163540284Y-114612757D01*
X163445966Y-114410489D01*
X163445849Y-114410238D01*
X163445846Y-114410233D01*
X163443523Y-114405251D01*
X163312198Y-114217700D01*
X163150300Y-114055802D01*
X163145792Y-114052645D01*
X163145789Y-114052643D01*
X163067611Y-113997902D01*
X162962749Y-113924477D01*
X162957767Y-113922154D01*
X162957762Y-113922151D01*
X162760225Y-113830039D01*
X162760224Y-113830039D01*
X162755243Y-113827716D01*
X162749935Y-113826294D01*
X162749933Y-113826293D01*
X162539402Y-113769881D01*
X162539400Y-113769881D01*
X162534087Y-113768457D01*
X162306000Y-113748502D01*
X162077913Y-113768457D01*
X162072600Y-113769881D01*
X162072598Y-113769881D01*
X161862067Y-113826293D01*
X161862065Y-113826294D01*
X161856757Y-113827716D01*
X161851776Y-113830039D01*
X161851775Y-113830039D01*
X161654238Y-113922151D01*
X161654233Y-113922154D01*
X161649251Y-113924477D01*
X161544389Y-113997902D01*
X161466211Y-114052643D01*
X161466208Y-114052645D01*
X161461700Y-114055802D01*
X161299802Y-114217700D01*
X161168477Y-114405251D01*
X161166154Y-114410233D01*
X161166151Y-114410238D01*
X161166034Y-114410489D01*
X161071716Y-114612757D01*
X161070294Y-114618065D01*
X161070293Y-114618067D01*
X161022756Y-114795478D01*
X161012457Y-114833913D01*
X160992502Y-115062000D01*
X156851904Y-115062000D01*
X157574752Y-114339152D01*
X157637064Y-114305126D01*
X157696459Y-114306541D01*
X157754591Y-114322118D01*
X157754602Y-114322120D01*
X157759913Y-114323543D01*
X157988000Y-114343498D01*
X158216087Y-114323543D01*
X158221400Y-114322119D01*
X158221402Y-114322119D01*
X158431933Y-114265707D01*
X158431935Y-114265706D01*
X158437243Y-114264284D01*
X158442225Y-114261961D01*
X158639762Y-114169849D01*
X158639767Y-114169846D01*
X158644749Y-114167523D01*
X158749611Y-114094098D01*
X158827789Y-114039357D01*
X158827792Y-114039355D01*
X158832300Y-114036198D01*
X158994198Y-113874300D01*
X159125523Y-113686749D01*
X159127846Y-113681767D01*
X159127849Y-113681762D01*
X159219961Y-113484225D01*
X159219961Y-113484224D01*
X159222284Y-113479243D01*
X159245523Y-113392517D01*
X159280119Y-113263402D01*
X159280119Y-113263400D01*
X159281543Y-113258087D01*
X159301498Y-113030000D01*
X159281543Y-112801913D01*
X159222284Y-112580757D01*
X159219961Y-112575775D01*
X159127849Y-112378238D01*
X159127846Y-112378233D01*
X159125523Y-112373251D01*
X158994198Y-112185700D01*
X158832300Y-112023802D01*
X158827792Y-112020645D01*
X158827789Y-112020643D01*
X158749611Y-111965902D01*
X158644749Y-111892477D01*
X158639767Y-111890154D01*
X158639762Y-111890151D01*
X158442225Y-111798039D01*
X158442224Y-111798039D01*
X158437243Y-111795716D01*
X158431935Y-111794294D01*
X158431933Y-111794293D01*
X158221402Y-111737881D01*
X158221400Y-111737881D01*
X158216087Y-111736457D01*
X157988000Y-111716502D01*
X157759913Y-111736457D01*
X157754600Y-111737881D01*
X157754598Y-111737881D01*
X157544067Y-111794293D01*
X157544065Y-111794294D01*
X157538757Y-111795716D01*
X157533776Y-111798039D01*
X157533775Y-111798039D01*
X157336238Y-111890151D01*
X157336233Y-111890154D01*
X157331251Y-111892477D01*
X157226389Y-111965902D01*
X157148211Y-112020643D01*
X157148208Y-112020645D01*
X157143700Y-112023802D01*
X156981802Y-112185700D01*
X156850477Y-112373251D01*
X156848154Y-112378233D01*
X156848151Y-112378238D01*
X156756039Y-112575775D01*
X156753716Y-112580757D01*
X156694457Y-112801913D01*
X156674502Y-113030000D01*
X156694457Y-113258087D01*
X156695880Y-113263398D01*
X156695882Y-113263409D01*
X156711459Y-113321541D01*
X156709770Y-113392517D01*
X156678848Y-113443248D01*
X154714500Y-115407595D01*
X154652188Y-115441621D01*
X154625405Y-115444500D01*
X146507394Y-115444500D01*
X146439273Y-115424498D01*
X146404181Y-115390771D01*
X146297357Y-115238211D01*
X146297355Y-115238208D01*
X146294198Y-115233700D01*
X146132300Y-115071802D01*
X146127792Y-115068645D01*
X146127789Y-115068643D01*
X146049611Y-115013902D01*
X145944749Y-114940477D01*
X145939767Y-114938154D01*
X145939762Y-114938151D01*
X145742225Y-114846039D01*
X145742224Y-114846039D01*
X145737243Y-114843716D01*
X145731935Y-114842294D01*
X145731933Y-114842293D01*
X145521402Y-114785881D01*
X145521400Y-114785881D01*
X145516087Y-114784457D01*
X145288000Y-114764502D01*
X145059913Y-114784457D01*
X145054600Y-114785881D01*
X145054598Y-114785881D01*
X144844067Y-114842293D01*
X144844065Y-114842294D01*
X144838757Y-114843716D01*
X144833776Y-114846039D01*
X144833775Y-114846039D01*
X144636238Y-114938151D01*
X144636233Y-114938154D01*
X144631251Y-114940477D01*
X144526389Y-115013902D01*
X144448211Y-115068643D01*
X144448208Y-115068645D01*
X144443700Y-115071802D01*
X144281802Y-115233700D01*
X144150477Y-115421251D01*
X144148154Y-115426233D01*
X144148151Y-115426238D01*
X144110989Y-115505933D01*
X144053716Y-115628757D01*
X144052294Y-115634065D01*
X144052293Y-115634067D01*
X143995881Y-115844598D01*
X143994457Y-115849913D01*
X143974502Y-116078000D01*
X138981498Y-116078000D01*
X138961543Y-115849913D01*
X138960119Y-115844598D01*
X138903707Y-115634067D01*
X138903706Y-115634065D01*
X138902284Y-115628757D01*
X138845011Y-115505933D01*
X138807849Y-115426238D01*
X138807846Y-115426233D01*
X138805523Y-115421251D01*
X138674198Y-115233700D01*
X138512300Y-115071802D01*
X138507792Y-115068645D01*
X138507789Y-115068643D01*
X138429611Y-115013902D01*
X138324749Y-114940477D01*
X138319767Y-114938154D01*
X138319762Y-114938151D01*
X138122225Y-114846039D01*
X138122224Y-114846039D01*
X138117243Y-114843716D01*
X138111935Y-114842294D01*
X138111933Y-114842293D01*
X137901402Y-114785881D01*
X137901400Y-114785881D01*
X137896087Y-114784457D01*
X137668000Y-114764502D01*
X137439913Y-114784457D01*
X137434600Y-114785881D01*
X137434598Y-114785881D01*
X137224067Y-114842293D01*
X137224065Y-114842294D01*
X137218757Y-114843716D01*
X137213776Y-114846039D01*
X137213775Y-114846039D01*
X137016238Y-114938151D01*
X137016233Y-114938154D01*
X137011251Y-114940477D01*
X136906389Y-115013902D01*
X136828211Y-115068643D01*
X136828208Y-115068645D01*
X136823700Y-115071802D01*
X136661802Y-115233700D01*
X136530477Y-115421251D01*
X136528154Y-115426233D01*
X136528151Y-115426238D01*
X136490989Y-115505933D01*
X136433716Y-115628757D01*
X136432294Y-115634065D01*
X136432293Y-115634067D01*
X136375881Y-115844598D01*
X136374457Y-115849913D01*
X136354502Y-116078000D01*
X133858500Y-116078000D01*
X133858500Y-113030000D01*
X149054502Y-113030000D01*
X149074457Y-113258087D01*
X149075881Y-113263400D01*
X149075881Y-113263402D01*
X149110478Y-113392517D01*
X149133716Y-113479243D01*
X149136039Y-113484224D01*
X149136039Y-113484225D01*
X149228151Y-113681762D01*
X149228154Y-113681767D01*
X149230477Y-113686749D01*
X149361802Y-113874300D01*
X149523700Y-114036198D01*
X149528208Y-114039355D01*
X149528211Y-114039357D01*
X149606389Y-114094098D01*
X149711251Y-114167523D01*
X149716233Y-114169846D01*
X149716238Y-114169849D01*
X149913775Y-114261961D01*
X149918757Y-114264284D01*
X149924065Y-114265706D01*
X149924067Y-114265707D01*
X150134598Y-114322119D01*
X150134600Y-114322119D01*
X150139913Y-114323543D01*
X150368000Y-114343498D01*
X150596087Y-114323543D01*
X150601400Y-114322119D01*
X150601402Y-114322119D01*
X150811933Y-114265707D01*
X150811935Y-114265706D01*
X150817243Y-114264284D01*
X150822225Y-114261961D01*
X151019762Y-114169849D01*
X151019767Y-114169846D01*
X151024749Y-114167523D01*
X151129611Y-114094098D01*
X151207789Y-114039357D01*
X151207792Y-114039355D01*
X151212300Y-114036198D01*
X151374198Y-113874300D01*
X151505523Y-113686749D01*
X151507846Y-113681767D01*
X151507849Y-113681762D01*
X151599961Y-113484225D01*
X151599961Y-113484224D01*
X151602284Y-113479243D01*
X151625523Y-113392517D01*
X151660119Y-113263402D01*
X151660119Y-113263400D01*
X151661543Y-113258087D01*
X151681498Y-113030000D01*
X151661543Y-112801913D01*
X151602284Y-112580757D01*
X151599961Y-112575775D01*
X151507849Y-112378238D01*
X151507846Y-112378233D01*
X151505523Y-112373251D01*
X151374198Y-112185700D01*
X151212300Y-112023802D01*
X151207792Y-112020645D01*
X151207789Y-112020643D01*
X151129611Y-111965902D01*
X151024749Y-111892477D01*
X151019767Y-111890154D01*
X151019762Y-111890151D01*
X150822225Y-111798039D01*
X150822224Y-111798039D01*
X150817243Y-111795716D01*
X150811935Y-111794294D01*
X150811933Y-111794293D01*
X150601402Y-111737881D01*
X150601400Y-111737881D01*
X150596087Y-111736457D01*
X150368000Y-111716502D01*
X150139913Y-111736457D01*
X150134600Y-111737881D01*
X150134598Y-111737881D01*
X149924067Y-111794293D01*
X149924065Y-111794294D01*
X149918757Y-111795716D01*
X149913776Y-111798039D01*
X149913775Y-111798039D01*
X149716238Y-111890151D01*
X149716233Y-111890154D01*
X149711251Y-111892477D01*
X149606389Y-111965902D01*
X149528211Y-112020643D01*
X149528208Y-112020645D01*
X149523700Y-112023802D01*
X149361802Y-112185700D01*
X149230477Y-112373251D01*
X149228154Y-112378233D01*
X149228151Y-112378238D01*
X149136039Y-112575775D01*
X149133716Y-112580757D01*
X149074457Y-112801913D01*
X149054502Y-113030000D01*
X133858500Y-113030000D01*
X133858500Y-110613474D01*
X142215355Y-110613474D01*
X142220636Y-110620529D01*
X142388087Y-110718380D01*
X142397370Y-110722827D01*
X142599402Y-110799975D01*
X142609300Y-110802851D01*
X142821219Y-110845966D01*
X142831447Y-110847185D01*
X143047560Y-110855111D01*
X143057846Y-110854644D01*
X143272353Y-110827164D01*
X143282439Y-110825021D01*
X143489581Y-110762875D01*
X143499158Y-110759122D01*
X143693378Y-110663975D01*
X143702216Y-110658706D01*
X143753587Y-110622064D01*
X143761988Y-110611364D01*
X143755002Y-110598213D01*
X143696851Y-110540062D01*
X147856493Y-110540062D01*
X147865789Y-110552077D01*
X147916994Y-110587931D01*
X147926489Y-110593414D01*
X148123947Y-110685490D01*
X148134239Y-110689236D01*
X148344688Y-110745625D01*
X148355481Y-110747528D01*
X148572525Y-110766517D01*
X148583475Y-110766517D01*
X148800519Y-110747528D01*
X148811312Y-110745625D01*
X149021761Y-110689236D01*
X149032053Y-110685490D01*
X149229511Y-110593414D01*
X149239006Y-110587931D01*
X149291048Y-110551491D01*
X149299424Y-110541012D01*
X149292356Y-110527566D01*
X148590812Y-109826022D01*
X148576868Y-109818408D01*
X148575035Y-109818539D01*
X148568420Y-109822790D01*
X147862923Y-110528287D01*
X147856493Y-110540062D01*
X143696851Y-110540062D01*
X143002811Y-109846021D01*
X142988868Y-109838408D01*
X142987034Y-109838539D01*
X142980420Y-109842790D01*
X142222112Y-110601099D01*
X142215355Y-110613474D01*
X133858500Y-110613474D01*
X133858500Y-109445373D01*
X141607987Y-109445373D01*
X141620437Y-109661279D01*
X141621870Y-109671481D01*
X141669412Y-109882442D01*
X141672495Y-109892282D01*
X141753857Y-110092652D01*
X141758500Y-110101843D01*
X141841915Y-110237964D01*
X141852372Y-110247424D01*
X141861148Y-110243641D01*
X142617979Y-109486811D01*
X142624356Y-109475132D01*
X143354408Y-109475132D01*
X143354539Y-109476966D01*
X143358790Y-109483580D01*
X144114810Y-110239599D01*
X144126816Y-110246155D01*
X144138555Y-110237186D01*
X144172206Y-110190356D01*
X144177516Y-110181519D01*
X144273329Y-109987655D01*
X144277128Y-109978060D01*
X144339991Y-109771156D01*
X144342170Y-109761075D01*
X144370635Y-109544868D01*
X144371154Y-109538193D01*
X144372641Y-109477364D01*
X144372447Y-109470646D01*
X144371529Y-109459475D01*
X147265483Y-109459475D01*
X147284472Y-109676519D01*
X147286375Y-109687312D01*
X147342764Y-109897761D01*
X147346510Y-109908053D01*
X147438586Y-110105511D01*
X147444069Y-110115006D01*
X147480509Y-110167048D01*
X147490988Y-110175424D01*
X147504434Y-110168356D01*
X148205978Y-109466812D01*
X148212356Y-109455132D01*
X148942408Y-109455132D01*
X148942539Y-109456965D01*
X148946790Y-109463580D01*
X149652287Y-110169077D01*
X149664062Y-110175507D01*
X149676077Y-110166211D01*
X149711931Y-110115006D01*
X149717414Y-110105511D01*
X149809490Y-109908053D01*
X149813236Y-109897761D01*
X149869625Y-109687312D01*
X149871528Y-109676519D01*
X149890517Y-109459475D01*
X149890517Y-109448525D01*
X149871528Y-109231481D01*
X149869625Y-109220688D01*
X149813236Y-109010239D01*
X149809490Y-108999947D01*
X149717414Y-108802489D01*
X149711931Y-108792994D01*
X149675491Y-108740952D01*
X149665012Y-108732576D01*
X149651566Y-108739644D01*
X148950022Y-109441188D01*
X148942408Y-109455132D01*
X148212356Y-109455132D01*
X148213592Y-109452868D01*
X148213461Y-109451035D01*
X148209210Y-109444420D01*
X147503713Y-108738923D01*
X147491938Y-108732493D01*
X147479923Y-108741789D01*
X147444069Y-108792994D01*
X147438586Y-108802489D01*
X147346510Y-108999947D01*
X147342764Y-109010239D01*
X147286375Y-109220688D01*
X147284472Y-109231481D01*
X147265483Y-109448525D01*
X147265483Y-109459475D01*
X144371529Y-109459475D01*
X144354580Y-109253316D01*
X144352897Y-109243154D01*
X144300213Y-109033407D01*
X144296895Y-109023660D01*
X144210659Y-108825330D01*
X144205792Y-108816255D01*
X144137528Y-108710734D01*
X144126843Y-108701531D01*
X144117276Y-108705935D01*
X143362021Y-109461189D01*
X143354408Y-109475132D01*
X142624356Y-109475132D01*
X142625592Y-109472868D01*
X142625461Y-109471034D01*
X142621210Y-109464420D01*
X141865451Y-108708662D01*
X141853920Y-108702365D01*
X141841637Y-108711988D01*
X141790639Y-108786749D01*
X141785554Y-108795700D01*
X141694501Y-108991857D01*
X141690942Y-109001530D01*
X141633148Y-109209932D01*
X141631221Y-109220036D01*
X141608239Y-109435084D01*
X141607987Y-109445373D01*
X133858500Y-109445373D01*
X133858500Y-107604400D01*
X141611500Y-107604400D01*
X141611837Y-107607646D01*
X141611837Y-107607650D01*
X141619293Y-107679506D01*
X141622474Y-107710166D01*
X141624655Y-107716702D01*
X141624655Y-107716704D01*
X141650373Y-107793789D01*
X141678450Y-107877946D01*
X141771522Y-108028348D01*
X141896697Y-108153305D01*
X141902927Y-108157145D01*
X141902928Y-108157146D01*
X142040090Y-108241694D01*
X142047262Y-108246115D01*
X142147311Y-108279299D01*
X142205670Y-108319729D01*
X142218187Y-108338427D01*
X142223679Y-108348468D01*
X142977189Y-109101979D01*
X142991132Y-109109592D01*
X142992966Y-109109461D01*
X142999580Y-109105210D01*
X143757631Y-108347158D01*
X143762463Y-108338309D01*
X143812666Y-108288106D01*
X143833175Y-108279170D01*
X143901838Y-108256262D01*
X143933946Y-108245550D01*
X144084348Y-108152478D01*
X144209305Y-108027303D01*
X144250669Y-107960198D01*
X144298275Y-107882968D01*
X144298276Y-107882966D01*
X144302115Y-107876738D01*
X144357797Y-107708861D01*
X144368500Y-107604400D01*
X144368500Y-106954000D01*
X147264502Y-106954000D01*
X147284457Y-107182087D01*
X147285881Y-107187400D01*
X147285881Y-107187402D01*
X147323202Y-107326683D01*
X147343716Y-107403243D01*
X147346039Y-107408224D01*
X147346039Y-107408225D01*
X147438151Y-107605762D01*
X147438154Y-107605767D01*
X147440477Y-107610749D01*
X147571802Y-107798300D01*
X147733700Y-107960198D01*
X147738208Y-107963355D01*
X147738211Y-107963357D01*
X147829536Y-108027303D01*
X147921251Y-108091523D01*
X147926235Y-108093847D01*
X147928528Y-108095171D01*
X147977521Y-108146553D01*
X147990957Y-108216267D01*
X147964571Y-108282178D01*
X147928528Y-108313409D01*
X147916998Y-108320066D01*
X147864952Y-108356509D01*
X147856576Y-108366988D01*
X147863644Y-108380434D01*
X148565188Y-109081978D01*
X148579132Y-109089592D01*
X148580965Y-109089461D01*
X148587580Y-109085210D01*
X149293077Y-108379713D01*
X149299507Y-108367938D01*
X149290211Y-108355923D01*
X149239002Y-108320066D01*
X149227472Y-108313409D01*
X149178479Y-108262027D01*
X149165042Y-108192313D01*
X149191429Y-108126402D01*
X149227472Y-108095171D01*
X149229765Y-108093847D01*
X149233439Y-108092134D01*
X153398500Y-108092134D01*
X153405255Y-108154316D01*
X153456385Y-108290705D01*
X153543739Y-108407261D01*
X153660295Y-108494615D01*
X153796684Y-108545745D01*
X153858866Y-108552500D01*
X155005134Y-108552500D01*
X155067316Y-108545745D01*
X155108623Y-108530260D01*
X155195296Y-108497768D01*
X155195299Y-108497766D01*
X155203705Y-108494615D01*
X155210894Y-108489227D01*
X155211137Y-108489094D01*
X155280494Y-108473924D01*
X155308907Y-108479248D01*
X155493180Y-108536290D01*
X155499305Y-108536934D01*
X155499306Y-108536934D01*
X155688622Y-108556832D01*
X155688623Y-108556832D01*
X155694750Y-108557476D01*
X155778014Y-108549898D01*
X155890457Y-108539665D01*
X155890460Y-108539664D01*
X155896596Y-108539106D01*
X155902502Y-108537368D01*
X155902506Y-108537367D01*
X156085120Y-108483620D01*
X156085119Y-108483620D01*
X156091029Y-108481881D01*
X156096486Y-108479028D01*
X156096489Y-108479027D01*
X156233765Y-108407261D01*
X156270460Y-108388077D01*
X156270462Y-108388077D01*
X156270645Y-108387981D01*
X156270663Y-108388016D01*
X156336441Y-108368111D01*
X156397409Y-108383271D01*
X156569565Y-108476356D01*
X156638733Y-108497767D01*
X156757293Y-108534468D01*
X156757296Y-108534469D01*
X156763180Y-108536290D01*
X156769305Y-108536934D01*
X156769306Y-108536934D01*
X156958622Y-108556832D01*
X156958623Y-108556832D01*
X156964750Y-108557476D01*
X157048014Y-108549898D01*
X157160457Y-108539665D01*
X157160460Y-108539664D01*
X157166596Y-108539106D01*
X157172502Y-108537368D01*
X157172506Y-108537367D01*
X157355120Y-108483620D01*
X157355119Y-108483620D01*
X157361029Y-108481881D01*
X157366486Y-108479028D01*
X157366489Y-108479027D01*
X157503765Y-108407261D01*
X157540645Y-108387981D01*
X157565574Y-108367938D01*
X157648173Y-108301526D01*
X157698601Y-108260981D01*
X157828881Y-108105719D01*
X157831845Y-108100327D01*
X157831848Y-108100323D01*
X157923556Y-107933506D01*
X157926523Y-107928109D01*
X157956164Y-107834669D01*
X159749001Y-107834669D01*
X159749371Y-107841490D01*
X159754895Y-107892352D01*
X159758521Y-107907604D01*
X159803676Y-108028054D01*
X159812214Y-108043649D01*
X159888715Y-108145724D01*
X159901276Y-108158285D01*
X160003351Y-108234786D01*
X160018946Y-108243324D01*
X160139394Y-108288478D01*
X160154649Y-108292105D01*
X160205514Y-108297631D01*
X160212328Y-108298000D01*
X160509885Y-108298000D01*
X160525124Y-108293525D01*
X160526329Y-108292135D01*
X160528000Y-108284452D01*
X160528000Y-107316004D01*
X161018500Y-107316004D01*
X161033277Y-107466713D01*
X161033968Y-107469002D01*
X161036000Y-107489724D01*
X161036000Y-108279884D01*
X161040475Y-108295123D01*
X161041865Y-108296328D01*
X161049548Y-108297999D01*
X161351669Y-108297999D01*
X161358490Y-108297629D01*
X161409352Y-108292105D01*
X161424604Y-108288479D01*
X161545056Y-108243323D01*
X161560466Y-108234886D01*
X161629823Y-108219716D01*
X161658235Y-108225040D01*
X161843180Y-108282290D01*
X161849305Y-108282934D01*
X161849306Y-108282934D01*
X162038622Y-108302832D01*
X162038623Y-108302832D01*
X162044750Y-108303476D01*
X162154090Y-108293525D01*
X162240457Y-108285665D01*
X162240460Y-108285664D01*
X162246596Y-108285106D01*
X162252502Y-108283368D01*
X162252506Y-108283367D01*
X162435120Y-108229620D01*
X162435119Y-108229620D01*
X162441029Y-108227881D01*
X162446486Y-108225028D01*
X162446489Y-108225027D01*
X162585263Y-108152478D01*
X162620460Y-108134077D01*
X162620462Y-108134077D01*
X162620645Y-108133981D01*
X162620663Y-108134016D01*
X162686441Y-108114111D01*
X162747409Y-108129271D01*
X162919565Y-108222356D01*
X162994493Y-108245550D01*
X163107293Y-108280468D01*
X163107296Y-108280469D01*
X163113180Y-108282290D01*
X163119305Y-108282934D01*
X163119306Y-108282934D01*
X163308622Y-108302832D01*
X163308623Y-108302832D01*
X163314750Y-108303476D01*
X163424090Y-108293525D01*
X163510457Y-108285665D01*
X163510460Y-108285664D01*
X163516596Y-108285106D01*
X163522502Y-108283368D01*
X163522506Y-108283367D01*
X163705120Y-108229620D01*
X163705119Y-108229620D01*
X163711029Y-108227881D01*
X163716486Y-108225028D01*
X163716489Y-108225027D01*
X163855263Y-108152478D01*
X163890645Y-108133981D01*
X164048601Y-108006981D01*
X164178881Y-107851719D01*
X164181845Y-107846327D01*
X164181848Y-107846323D01*
X164273556Y-107679506D01*
X164276523Y-107674109D01*
X164337807Y-107480916D01*
X164339401Y-107466713D01*
X164355107Y-107326683D01*
X164355500Y-107323183D01*
X164355500Y-106763996D01*
X164340723Y-106613287D01*
X164282142Y-106419258D01*
X164186990Y-106240302D01*
X164170342Y-106219889D01*
X164077552Y-106106119D01*
X164058890Y-106083237D01*
X164021066Y-106051946D01*
X163907472Y-105957973D01*
X163907469Y-105957971D01*
X163902722Y-105954044D01*
X163724435Y-105857644D01*
X163601645Y-105819634D01*
X163536707Y-105799532D01*
X163536704Y-105799531D01*
X163530820Y-105797710D01*
X163524695Y-105797066D01*
X163524694Y-105797066D01*
X163335378Y-105777168D01*
X163335377Y-105777168D01*
X163329250Y-105776524D01*
X163250709Y-105783672D01*
X163133543Y-105794335D01*
X163133540Y-105794336D01*
X163127404Y-105794894D01*
X163121498Y-105796632D01*
X163121494Y-105796633D01*
X162985442Y-105836676D01*
X162932971Y-105852119D01*
X162927514Y-105854972D01*
X162927511Y-105854973D01*
X162843163Y-105899069D01*
X162753540Y-105945923D01*
X162753538Y-105945923D01*
X162753355Y-105946019D01*
X162753337Y-105945984D01*
X162687559Y-105965889D01*
X162626591Y-105950729D01*
X162617815Y-105945984D01*
X162454435Y-105857644D01*
X162331645Y-105819634D01*
X162266707Y-105799532D01*
X162266704Y-105799531D01*
X162260820Y-105797710D01*
X162254695Y-105797066D01*
X162254694Y-105797066D01*
X162065378Y-105777168D01*
X162065377Y-105777168D01*
X162059250Y-105776524D01*
X161980709Y-105783672D01*
X161863543Y-105794335D01*
X161863540Y-105794336D01*
X161857404Y-105794894D01*
X161851498Y-105796632D01*
X161851494Y-105796633D01*
X161773345Y-105819634D01*
X161662971Y-105852119D01*
X161662771Y-105851441D01*
X161596727Y-105857956D01*
X161559677Y-105844680D01*
X161545063Y-105836679D01*
X161424606Y-105791522D01*
X161409351Y-105787895D01*
X161358486Y-105782369D01*
X161351672Y-105782000D01*
X161054115Y-105782000D01*
X161038876Y-105786475D01*
X161037671Y-105787865D01*
X161036000Y-105795548D01*
X161036000Y-106593758D01*
X161035215Y-106607803D01*
X161018500Y-106756817D01*
X161018500Y-107316004D01*
X160528000Y-107316004D01*
X160528000Y-107312115D01*
X160523525Y-107296876D01*
X160522135Y-107295671D01*
X160514452Y-107294000D01*
X159767116Y-107294000D01*
X159751877Y-107298475D01*
X159750672Y-107299865D01*
X159749001Y-107307548D01*
X159749001Y-107834669D01*
X157956164Y-107834669D01*
X157987807Y-107734916D01*
X157989998Y-107715389D01*
X158005107Y-107580683D01*
X158005500Y-107577183D01*
X158005500Y-107017996D01*
X157990723Y-106867287D01*
X157960712Y-106767885D01*
X159749000Y-106767885D01*
X159753475Y-106783124D01*
X159754865Y-106784329D01*
X159762548Y-106786000D01*
X160509885Y-106786000D01*
X160525124Y-106781525D01*
X160526329Y-106780135D01*
X160528000Y-106772452D01*
X160528000Y-105800116D01*
X160523525Y-105784877D01*
X160522135Y-105783672D01*
X160514452Y-105782001D01*
X160212331Y-105782001D01*
X160205510Y-105782371D01*
X160154648Y-105787895D01*
X160139396Y-105791521D01*
X160018946Y-105836676D01*
X160003351Y-105845214D01*
X159901276Y-105921715D01*
X159888715Y-105934276D01*
X159812214Y-106036351D01*
X159803676Y-106051946D01*
X159758522Y-106172394D01*
X159754895Y-106187649D01*
X159749369Y-106238514D01*
X159749000Y-106245328D01*
X159749000Y-106767885D01*
X157960712Y-106767885D01*
X157932142Y-106673258D01*
X157836990Y-106494302D01*
X157792838Y-106440166D01*
X157712785Y-106342013D01*
X157708890Y-106337237D01*
X157670772Y-106305703D01*
X157557472Y-106211973D01*
X157557469Y-106211971D01*
X157552722Y-106208044D01*
X157374435Y-106111644D01*
X157249658Y-106073019D01*
X157186707Y-106053532D01*
X157186704Y-106053531D01*
X157180820Y-106051710D01*
X157174695Y-106051066D01*
X157174694Y-106051066D01*
X156985378Y-106031168D01*
X156985377Y-106031168D01*
X156979250Y-106030524D01*
X156895986Y-106038102D01*
X156783543Y-106048335D01*
X156783540Y-106048336D01*
X156777404Y-106048894D01*
X156771498Y-106050632D01*
X156771494Y-106050633D01*
X156636947Y-106090233D01*
X156582971Y-106106119D01*
X156577514Y-106108972D01*
X156577511Y-106108973D01*
X156496554Y-106151296D01*
X156403540Y-106199923D01*
X156403538Y-106199923D01*
X156403355Y-106200019D01*
X156403337Y-106199984D01*
X156337559Y-106219889D01*
X156276591Y-106204729D01*
X156267815Y-106199984D01*
X156104435Y-106111644D01*
X155979658Y-106073019D01*
X155916707Y-106053532D01*
X155916704Y-106053531D01*
X155910820Y-106051710D01*
X155904695Y-106051066D01*
X155904694Y-106051066D01*
X155715378Y-106031168D01*
X155715377Y-106031168D01*
X155709250Y-106030524D01*
X155625986Y-106038102D01*
X155513543Y-106048335D01*
X155513540Y-106048336D01*
X155507404Y-106048894D01*
X155501498Y-106050632D01*
X155501494Y-106050633D01*
X155318879Y-106104380D01*
X155318877Y-106104381D01*
X155317493Y-106104788D01*
X155314045Y-106105803D01*
X155312971Y-106106119D01*
X155312718Y-106105260D01*
X155247338Y-106111714D01*
X155210594Y-106098548D01*
X155203705Y-106093385D01*
X155195304Y-106090236D01*
X155195301Y-106090234D01*
X155097397Y-106053532D01*
X155067316Y-106042255D01*
X155005134Y-106035500D01*
X153858866Y-106035500D01*
X153796684Y-106042255D01*
X153660295Y-106093385D01*
X153543739Y-106180739D01*
X153456385Y-106297295D01*
X153405255Y-106433684D01*
X153398500Y-106495866D01*
X153398500Y-108092134D01*
X149233439Y-108092134D01*
X149234749Y-108091523D01*
X149326464Y-108027303D01*
X149417789Y-107963357D01*
X149417792Y-107963355D01*
X149422300Y-107960198D01*
X149584198Y-107798300D01*
X149715523Y-107610749D01*
X149717846Y-107605767D01*
X149717849Y-107605762D01*
X149809961Y-107408225D01*
X149809961Y-107408224D01*
X149812284Y-107403243D01*
X149832799Y-107326683D01*
X149870119Y-107187402D01*
X149870119Y-107187400D01*
X149871543Y-107182087D01*
X149891498Y-106954000D01*
X149871543Y-106725913D01*
X149838072Y-106600998D01*
X149813707Y-106510067D01*
X149813706Y-106510065D01*
X149812284Y-106504757D01*
X149809946Y-106499743D01*
X149717849Y-106302238D01*
X149717846Y-106302233D01*
X149715523Y-106297251D01*
X149628097Y-106172394D01*
X149587357Y-106114211D01*
X149587355Y-106114208D01*
X149584198Y-106109700D01*
X149422300Y-105947802D01*
X149417792Y-105944645D01*
X149417789Y-105944643D01*
X149285651Y-105852119D01*
X149234749Y-105816477D01*
X149229767Y-105814154D01*
X149229762Y-105814151D01*
X149032225Y-105722039D01*
X149032224Y-105722039D01*
X149027243Y-105719716D01*
X149021935Y-105718294D01*
X149021933Y-105718293D01*
X148811402Y-105661881D01*
X148811400Y-105661881D01*
X148806087Y-105660457D01*
X148578000Y-105640502D01*
X148349913Y-105660457D01*
X148344600Y-105661881D01*
X148344598Y-105661881D01*
X148134067Y-105718293D01*
X148134065Y-105718294D01*
X148128757Y-105719716D01*
X148123776Y-105722039D01*
X148123775Y-105722039D01*
X147926238Y-105814151D01*
X147926233Y-105814154D01*
X147921251Y-105816477D01*
X147870349Y-105852119D01*
X147738211Y-105944643D01*
X147738208Y-105944645D01*
X147733700Y-105947802D01*
X147571802Y-106109700D01*
X147568645Y-106114208D01*
X147568643Y-106114211D01*
X147527903Y-106172394D01*
X147440477Y-106297251D01*
X147438154Y-106302233D01*
X147438151Y-106302238D01*
X147346054Y-106499743D01*
X147343716Y-106504757D01*
X147342294Y-106510065D01*
X147342293Y-106510067D01*
X147317928Y-106600998D01*
X147284457Y-106725913D01*
X147264502Y-106954000D01*
X144368500Y-106954000D01*
X144368500Y-106263600D01*
X144365587Y-106235526D01*
X144358238Y-106164692D01*
X144358237Y-106164688D01*
X144357526Y-106157834D01*
X144340273Y-106106119D01*
X144303868Y-105997002D01*
X144301550Y-105990054D01*
X144208478Y-105839652D01*
X144083303Y-105714695D01*
X144077072Y-105710854D01*
X143938968Y-105625725D01*
X143938966Y-105625724D01*
X143932738Y-105621885D01*
X143772254Y-105568655D01*
X143771389Y-105568368D01*
X143771387Y-105568368D01*
X143764861Y-105566203D01*
X143758025Y-105565503D01*
X143758022Y-105565502D01*
X143714969Y-105561091D01*
X143660400Y-105555500D01*
X142319600Y-105555500D01*
X142316354Y-105555837D01*
X142316350Y-105555837D01*
X142220692Y-105565762D01*
X142220688Y-105565763D01*
X142213834Y-105566474D01*
X142207298Y-105568655D01*
X142207296Y-105568655D01*
X142075194Y-105612728D01*
X142046054Y-105622450D01*
X141895652Y-105715522D01*
X141770695Y-105840697D01*
X141766855Y-105846927D01*
X141766854Y-105846928D01*
X141698405Y-105957973D01*
X141677885Y-105991262D01*
X141660051Y-106045029D01*
X141640247Y-106104739D01*
X141622203Y-106159139D01*
X141611500Y-106263600D01*
X141611500Y-107604400D01*
X133858500Y-107604400D01*
X133858500Y-103090205D01*
X167019189Y-103090205D01*
X167019486Y-103095358D01*
X167019486Y-103095361D01*
X167024840Y-103188220D01*
X167032237Y-103316508D01*
X167033374Y-103321554D01*
X167033375Y-103321560D01*
X167054729Y-103416310D01*
X167082072Y-103537640D01*
X167084014Y-103542422D01*
X167084015Y-103542426D01*
X167120874Y-103633199D01*
X167167354Y-103747665D01*
X167285793Y-103940940D01*
X167289174Y-103944843D01*
X167430824Y-104108369D01*
X167430828Y-104108373D01*
X167434209Y-104112276D01*
X167475713Y-104146733D01*
X167515348Y-104205635D01*
X167516846Y-104276616D01*
X167479732Y-104337139D01*
X167457658Y-104351810D01*
X167458054Y-104352450D01*
X167307652Y-104445522D01*
X167182695Y-104570697D01*
X167089885Y-104721262D01*
X167034203Y-104889139D01*
X167023500Y-104993600D01*
X167023500Y-106334400D01*
X167023837Y-106337646D01*
X167023837Y-106337650D01*
X167033034Y-106426285D01*
X167034474Y-106440166D01*
X167036655Y-106446702D01*
X167036655Y-106446704D01*
X167054361Y-106499775D01*
X167090450Y-106607946D01*
X167183522Y-106758348D01*
X167308697Y-106883305D01*
X167314927Y-106887145D01*
X167314928Y-106887146D01*
X167452090Y-106971694D01*
X167459262Y-106976115D01*
X167539005Y-107002564D01*
X167620611Y-107029632D01*
X167620613Y-107029632D01*
X167627139Y-107031797D01*
X167633975Y-107032497D01*
X167633978Y-107032498D01*
X167677031Y-107036909D01*
X167731600Y-107042500D01*
X169072400Y-107042500D01*
X169075646Y-107042163D01*
X169075650Y-107042163D01*
X169171308Y-107032238D01*
X169171312Y-107032237D01*
X169178166Y-107031526D01*
X169184702Y-107029345D01*
X169184704Y-107029345D01*
X169316806Y-106985272D01*
X169345946Y-106975550D01*
X169496348Y-106882478D01*
X169621305Y-106757303D01*
X169640654Y-106725913D01*
X169710275Y-106612968D01*
X169710276Y-106612966D01*
X169714115Y-106606738D01*
X169749593Y-106499775D01*
X169767632Y-106445389D01*
X169767632Y-106445387D01*
X169769797Y-106438861D01*
X169780500Y-106334400D01*
X169780500Y-104993600D01*
X169769526Y-104887834D01*
X169713550Y-104720054D01*
X169620478Y-104569652D01*
X169495303Y-104444695D01*
X169344738Y-104351885D01*
X169346282Y-104349380D01*
X169303043Y-104311318D01*
X169283573Y-104243043D01*
X169304106Y-104175080D01*
X169320629Y-104154775D01*
X169451717Y-104024143D01*
X169455378Y-104020495D01*
X169587654Y-103836413D01*
X169688089Y-103633199D01*
X169753985Y-103416310D01*
X169783573Y-103191570D01*
X169785224Y-103124000D01*
X169779077Y-103049233D01*
X169767074Y-102903235D01*
X169767073Y-102903229D01*
X169766650Y-102898084D01*
X169711428Y-102678234D01*
X169709369Y-102673498D01*
X169623100Y-102475093D01*
X169623098Y-102475090D01*
X169621040Y-102470356D01*
X169618125Y-102465849D01*
X169500722Y-102284373D01*
X169500720Y-102284370D01*
X169497914Y-102280033D01*
X169345356Y-102112374D01*
X169341305Y-102109175D01*
X169341301Y-102109171D01*
X169171519Y-101975085D01*
X169171515Y-101975083D01*
X169167464Y-101971883D01*
X168969015Y-101862334D01*
X168964146Y-101860610D01*
X168964142Y-101860608D01*
X168760214Y-101788393D01*
X168760210Y-101788392D01*
X168755339Y-101786667D01*
X168750246Y-101785760D01*
X168750243Y-101785759D01*
X168661395Y-101769933D01*
X168532173Y-101746915D01*
X168446179Y-101745864D01*
X168310681Y-101744208D01*
X168310679Y-101744208D01*
X168305511Y-101744145D01*
X168081441Y-101778433D01*
X167865979Y-101848857D01*
X167861391Y-101851245D01*
X167861387Y-101851247D01*
X167835289Y-101864833D01*
X167664913Y-101953525D01*
X167660780Y-101956628D01*
X167660777Y-101956630D01*
X167487776Y-102086523D01*
X167483641Y-102089628D01*
X167327033Y-102253509D01*
X167324119Y-102257781D01*
X167324118Y-102257782D01*
X167271200Y-102335357D01*
X167199294Y-102440768D01*
X167187652Y-102465849D01*
X167107269Y-102639019D01*
X167103854Y-102646375D01*
X167043277Y-102864810D01*
X167019189Y-103090205D01*
X133858500Y-103090205D01*
X133858500Y-101650062D01*
X151932493Y-101650062D01*
X151941789Y-101662077D01*
X151992994Y-101697931D01*
X152002489Y-101703414D01*
X152199947Y-101795490D01*
X152210239Y-101799236D01*
X152420688Y-101855625D01*
X152431481Y-101857528D01*
X152648525Y-101876517D01*
X152659475Y-101876517D01*
X152876519Y-101857528D01*
X152887312Y-101855625D01*
X153097761Y-101799236D01*
X153108053Y-101795490D01*
X153305511Y-101703414D01*
X153315006Y-101697931D01*
X153367048Y-101661491D01*
X153375424Y-101651012D01*
X153368356Y-101637566D01*
X152666812Y-100936022D01*
X152652868Y-100928408D01*
X152651035Y-100928539D01*
X152644420Y-100932790D01*
X151938923Y-101638287D01*
X151932493Y-101650062D01*
X133858500Y-101650062D01*
X133858500Y-100569475D01*
X151341483Y-100569475D01*
X151360472Y-100786519D01*
X151362375Y-100797312D01*
X151418764Y-101007761D01*
X151422510Y-101018053D01*
X151514586Y-101215511D01*
X151520069Y-101225006D01*
X151556509Y-101277048D01*
X151566988Y-101285424D01*
X151580434Y-101278356D01*
X152281978Y-100576812D01*
X152288356Y-100565132D01*
X153018408Y-100565132D01*
X153018539Y-100566965D01*
X153022790Y-100573580D01*
X153728287Y-101279077D01*
X153740062Y-101285507D01*
X153752077Y-101276211D01*
X153787931Y-101225006D01*
X153793414Y-101215511D01*
X153885490Y-101018053D01*
X153889236Y-101007761D01*
X153945625Y-100797312D01*
X153947528Y-100786519D01*
X153966517Y-100569475D01*
X153966517Y-100558525D01*
X153947528Y-100341481D01*
X153945625Y-100330688D01*
X153889236Y-100120239D01*
X153885490Y-100109947D01*
X153793414Y-99912489D01*
X153787931Y-99902994D01*
X153751491Y-99850952D01*
X153741012Y-99842576D01*
X153727566Y-99849644D01*
X153026022Y-100551188D01*
X153018408Y-100565132D01*
X152288356Y-100565132D01*
X152289592Y-100562868D01*
X152289461Y-100561035D01*
X152285210Y-100554420D01*
X151579713Y-99848923D01*
X151567938Y-99842493D01*
X151555923Y-99851789D01*
X151520069Y-99902994D01*
X151514586Y-99912489D01*
X151422510Y-100109947D01*
X151418764Y-100120239D01*
X151362375Y-100330688D01*
X151360472Y-100341481D01*
X151341483Y-100558525D01*
X151341483Y-100569475D01*
X133858500Y-100569475D01*
X133858500Y-99384062D01*
X137494493Y-99384062D01*
X137503789Y-99396077D01*
X137554994Y-99431931D01*
X137564489Y-99437414D01*
X137761947Y-99529490D01*
X137772239Y-99533236D01*
X137982688Y-99589625D01*
X137993481Y-99591528D01*
X138210525Y-99610517D01*
X138221475Y-99610517D01*
X138438519Y-99591528D01*
X138449312Y-99589625D01*
X138659761Y-99533236D01*
X138670053Y-99529490D01*
X138867511Y-99437414D01*
X138877006Y-99431931D01*
X138929048Y-99395491D01*
X138937424Y-99385012D01*
X138930356Y-99371566D01*
X138228812Y-98670022D01*
X138214868Y-98662408D01*
X138213035Y-98662539D01*
X138206420Y-98666790D01*
X137500923Y-99372287D01*
X137494493Y-99384062D01*
X133858500Y-99384062D01*
X133858500Y-98303475D01*
X136903483Y-98303475D01*
X136922472Y-98520519D01*
X136924375Y-98531312D01*
X136980764Y-98741761D01*
X136984510Y-98752053D01*
X137076586Y-98949511D01*
X137082069Y-98959006D01*
X137118509Y-99011048D01*
X137128988Y-99019424D01*
X137142434Y-99012356D01*
X137843978Y-98310812D01*
X137850356Y-98299132D01*
X138580408Y-98299132D01*
X138580539Y-98300965D01*
X138584790Y-98307580D01*
X139290287Y-99013077D01*
X139302062Y-99019507D01*
X139314077Y-99010211D01*
X139349934Y-98959002D01*
X139356591Y-98947472D01*
X139407973Y-98898479D01*
X139477687Y-98885042D01*
X139543598Y-98911429D01*
X139574829Y-98947472D01*
X139576153Y-98949765D01*
X139578477Y-98954749D01*
X139709802Y-99142300D01*
X139871700Y-99304198D01*
X139876208Y-99307355D01*
X139876211Y-99307357D01*
X139947884Y-99357543D01*
X140059251Y-99435523D01*
X140064233Y-99437846D01*
X140064238Y-99437849D01*
X140260765Y-99529490D01*
X140266757Y-99532284D01*
X140272065Y-99533706D01*
X140272067Y-99533707D01*
X140482598Y-99590119D01*
X140482600Y-99590119D01*
X140487913Y-99591543D01*
X140716000Y-99611498D01*
X140944087Y-99591543D01*
X140949400Y-99590119D01*
X140949402Y-99590119D01*
X141159933Y-99533707D01*
X141159935Y-99533706D01*
X141165243Y-99532284D01*
X141171235Y-99529490D01*
X141367762Y-99437849D01*
X141367767Y-99437846D01*
X141372749Y-99435523D01*
X141484116Y-99357543D01*
X141555789Y-99307357D01*
X141555792Y-99307355D01*
X141560300Y-99304198D01*
X141722198Y-99142300D01*
X141853523Y-98954749D01*
X141855846Y-98949767D01*
X141855849Y-98949762D01*
X141947961Y-98752225D01*
X141947961Y-98752224D01*
X141950284Y-98747243D01*
X141958720Y-98715762D01*
X142008119Y-98531402D01*
X142008119Y-98531400D01*
X142009543Y-98526087D01*
X142029498Y-98298000D01*
X143212502Y-98298000D01*
X143232457Y-98526087D01*
X143233881Y-98531400D01*
X143233881Y-98531402D01*
X143283281Y-98715762D01*
X143291716Y-98747243D01*
X143294039Y-98752224D01*
X143294039Y-98752225D01*
X143386151Y-98949762D01*
X143386154Y-98949767D01*
X143388477Y-98954749D01*
X143519802Y-99142300D01*
X143681700Y-99304198D01*
X143686208Y-99307355D01*
X143686211Y-99307357D01*
X143757884Y-99357543D01*
X143869251Y-99435523D01*
X143874233Y-99437846D01*
X143874238Y-99437849D01*
X144070765Y-99529490D01*
X144076757Y-99532284D01*
X144082065Y-99533706D01*
X144082067Y-99533707D01*
X144292598Y-99590119D01*
X144292600Y-99590119D01*
X144297913Y-99591543D01*
X144526000Y-99611498D01*
X144754087Y-99591543D01*
X144759400Y-99590119D01*
X144759402Y-99590119D01*
X144969933Y-99533707D01*
X144969935Y-99533706D01*
X144975243Y-99532284D01*
X144981235Y-99529490D01*
X145177762Y-99437849D01*
X145177767Y-99437846D01*
X145182749Y-99435523D01*
X145256243Y-99384062D01*
X146304493Y-99384062D01*
X146313789Y-99396077D01*
X146364994Y-99431931D01*
X146374489Y-99437414D01*
X146571947Y-99529490D01*
X146582239Y-99533236D01*
X146792688Y-99589625D01*
X146803481Y-99591528D01*
X147020525Y-99610517D01*
X147031475Y-99610517D01*
X147248519Y-99591528D01*
X147259312Y-99589625D01*
X147469761Y-99533236D01*
X147480053Y-99529490D01*
X147677511Y-99437414D01*
X147687006Y-99431931D01*
X147739048Y-99395491D01*
X147747424Y-99385012D01*
X147740356Y-99371566D01*
X147038812Y-98670022D01*
X147024868Y-98662408D01*
X147023035Y-98662539D01*
X147016420Y-98666790D01*
X146310923Y-99372287D01*
X146304493Y-99384062D01*
X145256243Y-99384062D01*
X145294116Y-99357543D01*
X145365789Y-99307357D01*
X145365792Y-99307355D01*
X145370300Y-99304198D01*
X145532198Y-99142300D01*
X145663523Y-98954749D01*
X145665847Y-98949765D01*
X145667171Y-98947472D01*
X145718553Y-98898479D01*
X145788267Y-98885043D01*
X145854178Y-98911429D01*
X145885409Y-98947472D01*
X145892066Y-98959002D01*
X145928509Y-99011048D01*
X145938988Y-99019424D01*
X145952434Y-99012356D01*
X146653978Y-98310812D01*
X146660356Y-98299132D01*
X147390408Y-98299132D01*
X147390539Y-98300965D01*
X147394790Y-98307580D01*
X148100287Y-99013077D01*
X148112062Y-99019507D01*
X148124077Y-99010211D01*
X148159931Y-98959006D01*
X148165414Y-98949511D01*
X148257490Y-98752053D01*
X148261236Y-98741761D01*
X148317625Y-98531312D01*
X148319528Y-98520519D01*
X148338517Y-98303475D01*
X148338517Y-98292525D01*
X148319528Y-98075481D01*
X148317625Y-98064688D01*
X148317441Y-98064000D01*
X151340502Y-98064000D01*
X151360457Y-98292087D01*
X151361881Y-98297400D01*
X151361881Y-98297402D01*
X151381856Y-98371947D01*
X151419716Y-98513243D01*
X151422039Y-98518224D01*
X151422039Y-98518225D01*
X151514151Y-98715762D01*
X151514154Y-98715767D01*
X151516477Y-98720749D01*
X151538517Y-98752225D01*
X151631517Y-98885042D01*
X151647802Y-98908300D01*
X151809700Y-99070198D01*
X151814208Y-99073355D01*
X151814211Y-99073357D01*
X151906230Y-99137789D01*
X151997251Y-99201523D01*
X152002235Y-99203847D01*
X152004528Y-99205171D01*
X152053521Y-99256553D01*
X152066957Y-99326267D01*
X152040571Y-99392178D01*
X152004528Y-99423409D01*
X151992998Y-99430066D01*
X151940952Y-99466509D01*
X151932576Y-99476988D01*
X151939644Y-99490434D01*
X152641188Y-100191978D01*
X152655132Y-100199592D01*
X152656965Y-100199461D01*
X152663580Y-100195210D01*
X153112121Y-99746669D01*
X154923001Y-99746669D01*
X154923371Y-99753490D01*
X154928895Y-99804352D01*
X154932521Y-99819604D01*
X154977676Y-99940054D01*
X154986214Y-99955649D01*
X155062715Y-100057724D01*
X155075276Y-100070285D01*
X155177351Y-100146786D01*
X155192946Y-100155324D01*
X155313394Y-100200478D01*
X155328649Y-100204105D01*
X155379514Y-100209631D01*
X155386328Y-100210000D01*
X155683885Y-100210000D01*
X155699124Y-100205525D01*
X155700329Y-100204135D01*
X155702000Y-100196452D01*
X155702000Y-99228004D01*
X156192500Y-99228004D01*
X156207277Y-99378713D01*
X156207968Y-99381002D01*
X156210000Y-99401724D01*
X156210000Y-100191884D01*
X156214475Y-100207123D01*
X156215865Y-100208328D01*
X156223548Y-100209999D01*
X156525669Y-100209999D01*
X156532490Y-100209629D01*
X156583352Y-100204105D01*
X156598604Y-100200479D01*
X156719056Y-100155323D01*
X156734466Y-100146886D01*
X156803823Y-100131716D01*
X156832235Y-100137040D01*
X157017180Y-100194290D01*
X157023305Y-100194934D01*
X157023306Y-100194934D01*
X157212622Y-100214832D01*
X157212623Y-100214832D01*
X157218750Y-100215476D01*
X157328090Y-100205525D01*
X157414457Y-100197665D01*
X157414460Y-100197664D01*
X157420596Y-100197106D01*
X157426502Y-100195368D01*
X157426506Y-100195367D01*
X157609120Y-100141620D01*
X157609119Y-100141620D01*
X157615029Y-100139881D01*
X157620486Y-100137028D01*
X157620489Y-100137027D01*
X157772182Y-100057724D01*
X157794460Y-100046077D01*
X157794462Y-100046077D01*
X157794645Y-100045981D01*
X157794663Y-100046016D01*
X157860441Y-100026111D01*
X157921409Y-100041271D01*
X158093565Y-100134356D01*
X158279711Y-100191978D01*
X158287180Y-100194290D01*
X158286768Y-100195621D01*
X158344438Y-100226673D01*
X160113145Y-101995379D01*
X160122247Y-102005522D01*
X160145968Y-102035025D01*
X160150696Y-102038992D01*
X160184421Y-102067291D01*
X160188069Y-102070472D01*
X160189881Y-102072115D01*
X160192075Y-102074309D01*
X160225349Y-102101642D01*
X160226147Y-102102304D01*
X160297474Y-102162154D01*
X160302144Y-102164722D01*
X160306261Y-102168103D01*
X160364145Y-102199140D01*
X160388086Y-102211977D01*
X160389245Y-102212606D01*
X160465381Y-102254462D01*
X160465389Y-102254465D01*
X160470787Y-102257433D01*
X160475869Y-102259045D01*
X160480563Y-102261562D01*
X160569531Y-102288762D01*
X160570559Y-102289082D01*
X160659306Y-102317235D01*
X160664602Y-102317829D01*
X160669698Y-102319387D01*
X160762257Y-102328790D01*
X160763393Y-102328911D01*
X160797008Y-102332681D01*
X160809730Y-102334108D01*
X160809734Y-102334108D01*
X160813227Y-102334500D01*
X160816754Y-102334500D01*
X160817739Y-102334555D01*
X160823419Y-102335002D01*
X160852825Y-102337989D01*
X160860337Y-102338752D01*
X160860339Y-102338752D01*
X160866462Y-102339374D01*
X160912108Y-102335059D01*
X160923967Y-102334500D01*
X162441260Y-102334500D01*
X162513531Y-102357287D01*
X162665251Y-102463523D01*
X162670233Y-102465846D01*
X162670238Y-102465849D01*
X162867775Y-102557961D01*
X162872757Y-102560284D01*
X162878065Y-102561706D01*
X162878067Y-102561707D01*
X163088598Y-102618119D01*
X163088600Y-102618119D01*
X163093913Y-102619543D01*
X163322000Y-102639498D01*
X163550087Y-102619543D01*
X163555400Y-102618119D01*
X163555402Y-102618119D01*
X163765933Y-102561707D01*
X163765935Y-102561706D01*
X163771243Y-102560284D01*
X163776225Y-102557961D01*
X163973762Y-102465849D01*
X163973767Y-102465846D01*
X163978749Y-102463523D01*
X164083611Y-102390098D01*
X164161789Y-102335357D01*
X164161792Y-102335355D01*
X164166300Y-102332198D01*
X164328198Y-102170300D01*
X164334165Y-102161779D01*
X164398003Y-102070608D01*
X164459523Y-101982749D01*
X164461846Y-101977767D01*
X164461849Y-101977762D01*
X164553961Y-101780225D01*
X164553961Y-101780224D01*
X164556284Y-101775243D01*
X164563632Y-101747822D01*
X164614119Y-101559402D01*
X164614119Y-101559400D01*
X164615543Y-101554087D01*
X164635498Y-101326000D01*
X164615543Y-101097913D01*
X164614119Y-101092598D01*
X164557707Y-100882067D01*
X164557706Y-100882065D01*
X164556284Y-100876757D01*
X164553961Y-100871775D01*
X164461849Y-100674238D01*
X164461846Y-100674233D01*
X164459523Y-100669251D01*
X164328198Y-100481700D01*
X164166300Y-100319802D01*
X164161792Y-100316645D01*
X164161789Y-100316643D01*
X164009487Y-100210000D01*
X163978749Y-100188477D01*
X163973765Y-100186153D01*
X163971472Y-100184829D01*
X163922479Y-100133447D01*
X163909043Y-100063733D01*
X163935429Y-99997822D01*
X163971472Y-99966591D01*
X163983002Y-99959934D01*
X164035048Y-99923491D01*
X164043424Y-99913012D01*
X164036356Y-99899566D01*
X163334812Y-99198022D01*
X163320868Y-99190408D01*
X163319035Y-99190539D01*
X163312420Y-99194790D01*
X162606923Y-99900287D01*
X162600493Y-99912062D01*
X162609789Y-99924077D01*
X162660998Y-99959934D01*
X162672528Y-99966591D01*
X162721521Y-100017973D01*
X162734958Y-100087687D01*
X162708571Y-100153598D01*
X162672528Y-100184829D01*
X162670235Y-100186153D01*
X162665251Y-100188477D01*
X162627491Y-100214917D01*
X162513531Y-100294713D01*
X162441260Y-100317500D01*
X161339925Y-100317500D01*
X161271804Y-100297498D01*
X161250830Y-100280595D01*
X159801709Y-98831475D01*
X162009483Y-98831475D01*
X162028472Y-99048519D01*
X162030375Y-99059312D01*
X162086764Y-99269761D01*
X162090510Y-99280053D01*
X162182586Y-99477511D01*
X162188069Y-99487006D01*
X162224509Y-99539048D01*
X162234988Y-99547424D01*
X162248434Y-99540356D01*
X162949978Y-98838812D01*
X162956356Y-98827132D01*
X163686408Y-98827132D01*
X163686539Y-98828965D01*
X163690790Y-98835580D01*
X164396287Y-99541077D01*
X164408062Y-99547507D01*
X164420077Y-99538211D01*
X164455931Y-99487006D01*
X164461414Y-99477511D01*
X164553490Y-99280053D01*
X164557236Y-99269761D01*
X164613625Y-99059312D01*
X164615528Y-99048519D01*
X164634517Y-98831475D01*
X164634517Y-98820525D01*
X164615528Y-98603481D01*
X164613625Y-98592688D01*
X164557236Y-98382239D01*
X164553490Y-98371947D01*
X164461414Y-98174489D01*
X164455931Y-98164994D01*
X164419491Y-98112952D01*
X164409012Y-98104576D01*
X164395566Y-98111644D01*
X163694022Y-98813188D01*
X163686408Y-98827132D01*
X162956356Y-98827132D01*
X162957592Y-98824868D01*
X162957461Y-98823035D01*
X162953210Y-98816420D01*
X162247713Y-98110923D01*
X162235938Y-98104493D01*
X162223923Y-98113789D01*
X162188069Y-98164994D01*
X162182586Y-98174489D01*
X162090510Y-98371947D01*
X162086764Y-98382239D01*
X162030375Y-98592688D01*
X162028472Y-98603481D01*
X162009483Y-98820525D01*
X162009483Y-98831475D01*
X159801709Y-98831475D01*
X159545407Y-98575173D01*
X159513880Y-98522496D01*
X159511087Y-98513243D01*
X159456142Y-98331258D01*
X159360990Y-98152302D01*
X159232890Y-97995237D01*
X159195066Y-97963946D01*
X159081472Y-97869973D01*
X159081469Y-97869971D01*
X159076722Y-97866044D01*
X158898435Y-97769644D01*
X158799402Y-97738988D01*
X162600576Y-97738988D01*
X162607644Y-97752434D01*
X163309188Y-98453978D01*
X163323132Y-98461592D01*
X163324965Y-98461461D01*
X163331580Y-98457210D01*
X164037077Y-97751713D01*
X164043507Y-97739938D01*
X164034211Y-97727923D01*
X163983006Y-97692069D01*
X163973511Y-97686586D01*
X163776053Y-97594510D01*
X163765761Y-97590764D01*
X163555312Y-97534375D01*
X163544519Y-97532472D01*
X163327475Y-97513483D01*
X163316525Y-97513483D01*
X163099481Y-97532472D01*
X163088688Y-97534375D01*
X162878239Y-97590764D01*
X162867947Y-97594510D01*
X162670489Y-97686586D01*
X162660994Y-97692069D01*
X162608952Y-97728509D01*
X162600576Y-97738988D01*
X158799402Y-97738988D01*
X158763657Y-97727923D01*
X158710707Y-97711532D01*
X158710704Y-97711531D01*
X158704820Y-97709710D01*
X158698695Y-97709066D01*
X158698694Y-97709066D01*
X158509378Y-97689168D01*
X158509377Y-97689168D01*
X158503250Y-97688524D01*
X158424709Y-97695672D01*
X158307543Y-97706335D01*
X158307540Y-97706336D01*
X158301404Y-97706894D01*
X158295498Y-97708632D01*
X158295494Y-97708633D01*
X158159442Y-97748676D01*
X158106971Y-97764119D01*
X158101514Y-97766972D01*
X158101511Y-97766973D01*
X158017163Y-97811069D01*
X157927540Y-97857923D01*
X157927538Y-97857923D01*
X157927355Y-97858019D01*
X157927337Y-97857984D01*
X157861559Y-97877889D01*
X157800591Y-97862729D01*
X157791815Y-97857984D01*
X157628435Y-97769644D01*
X157493657Y-97727923D01*
X157440707Y-97711532D01*
X157440704Y-97711531D01*
X157434820Y-97709710D01*
X157428695Y-97709066D01*
X157428694Y-97709066D01*
X157239378Y-97689168D01*
X157239377Y-97689168D01*
X157233250Y-97688524D01*
X157154709Y-97695672D01*
X157037543Y-97706335D01*
X157037540Y-97706336D01*
X157031404Y-97706894D01*
X157025498Y-97708632D01*
X157025494Y-97708633D01*
X156934187Y-97735507D01*
X156836971Y-97764119D01*
X156836771Y-97763441D01*
X156770727Y-97769956D01*
X156733677Y-97756680D01*
X156719063Y-97748679D01*
X156598606Y-97703522D01*
X156583351Y-97699895D01*
X156532486Y-97694369D01*
X156525672Y-97694000D01*
X156228115Y-97694000D01*
X156212876Y-97698475D01*
X156211671Y-97699865D01*
X156210000Y-97707548D01*
X156210000Y-98505758D01*
X156209215Y-98519803D01*
X156192500Y-98668817D01*
X156192500Y-99228004D01*
X155702000Y-99228004D01*
X155702000Y-99224115D01*
X155697525Y-99208876D01*
X155696135Y-99207671D01*
X155688452Y-99206000D01*
X154941116Y-99206000D01*
X154925877Y-99210475D01*
X154924672Y-99211865D01*
X154923001Y-99219548D01*
X154923001Y-99746669D01*
X153112121Y-99746669D01*
X153369077Y-99489713D01*
X153375507Y-99477938D01*
X153366211Y-99465923D01*
X153315002Y-99430066D01*
X153303472Y-99423409D01*
X153254479Y-99372027D01*
X153241042Y-99302313D01*
X153267429Y-99236402D01*
X153303472Y-99205171D01*
X153305765Y-99203847D01*
X153310749Y-99201523D01*
X153401770Y-99137789D01*
X153493789Y-99073357D01*
X153493792Y-99073355D01*
X153498300Y-99070198D01*
X153660198Y-98908300D01*
X153676484Y-98885042D01*
X153769483Y-98752225D01*
X153791523Y-98720749D01*
X153793846Y-98715767D01*
X153793849Y-98715762D01*
X153810579Y-98679885D01*
X154923000Y-98679885D01*
X154927475Y-98695124D01*
X154928865Y-98696329D01*
X154936548Y-98698000D01*
X155683885Y-98698000D01*
X155699124Y-98693525D01*
X155700329Y-98692135D01*
X155702000Y-98684452D01*
X155702000Y-97712116D01*
X155697525Y-97696877D01*
X155696135Y-97695672D01*
X155688452Y-97694001D01*
X155386331Y-97694001D01*
X155379510Y-97694371D01*
X155328648Y-97699895D01*
X155313396Y-97703521D01*
X155192946Y-97748676D01*
X155177351Y-97757214D01*
X155075276Y-97833715D01*
X155062715Y-97846276D01*
X154986214Y-97948351D01*
X154977676Y-97963946D01*
X154932522Y-98084394D01*
X154928895Y-98099649D01*
X154923369Y-98150514D01*
X154923000Y-98157328D01*
X154923000Y-98679885D01*
X153810579Y-98679885D01*
X153885961Y-98518225D01*
X153885961Y-98518224D01*
X153888284Y-98513243D01*
X153926145Y-98371947D01*
X153946119Y-98297402D01*
X153946119Y-98297400D01*
X153947543Y-98292087D01*
X153967498Y-98064000D01*
X153947543Y-97835913D01*
X153929298Y-97767822D01*
X153889707Y-97620067D01*
X153889706Y-97620065D01*
X153888284Y-97614757D01*
X153870480Y-97576576D01*
X153793849Y-97412238D01*
X153793846Y-97412233D01*
X153791523Y-97407251D01*
X153660198Y-97219700D01*
X153498300Y-97057802D01*
X153493792Y-97054645D01*
X153493789Y-97054643D01*
X153393617Y-96984502D01*
X153310749Y-96926477D01*
X153305767Y-96924154D01*
X153305762Y-96924151D01*
X153108225Y-96832039D01*
X153108224Y-96832039D01*
X153103243Y-96829716D01*
X153097935Y-96828294D01*
X153097933Y-96828293D01*
X152887402Y-96771881D01*
X152887400Y-96771881D01*
X152882087Y-96770457D01*
X152654000Y-96750502D01*
X152425913Y-96770457D01*
X152420600Y-96771881D01*
X152420598Y-96771881D01*
X152210067Y-96828293D01*
X152210065Y-96828294D01*
X152204757Y-96829716D01*
X152199776Y-96832039D01*
X152199775Y-96832039D01*
X152002238Y-96924151D01*
X152002233Y-96924154D01*
X151997251Y-96926477D01*
X151914383Y-96984502D01*
X151814211Y-97054643D01*
X151814208Y-97054645D01*
X151809700Y-97057802D01*
X151647802Y-97219700D01*
X151516477Y-97407251D01*
X151514154Y-97412233D01*
X151514151Y-97412238D01*
X151437520Y-97576576D01*
X151419716Y-97614757D01*
X151418294Y-97620065D01*
X151418293Y-97620067D01*
X151378702Y-97767822D01*
X151360457Y-97835913D01*
X151340502Y-98064000D01*
X148317441Y-98064000D01*
X148261236Y-97854239D01*
X148257490Y-97843947D01*
X148165414Y-97646489D01*
X148159931Y-97636994D01*
X148123491Y-97584952D01*
X148113012Y-97576576D01*
X148099566Y-97583644D01*
X147398022Y-98285188D01*
X147390408Y-98299132D01*
X146660356Y-98299132D01*
X146661592Y-98296868D01*
X146661461Y-98295035D01*
X146657210Y-98288420D01*
X145951713Y-97582923D01*
X145939938Y-97576493D01*
X145927923Y-97585789D01*
X145892066Y-97636998D01*
X145885409Y-97648528D01*
X145834027Y-97697521D01*
X145764313Y-97710958D01*
X145698402Y-97684571D01*
X145667171Y-97648528D01*
X145665847Y-97646235D01*
X145663523Y-97641251D01*
X145532198Y-97453700D01*
X145370300Y-97291802D01*
X145365792Y-97288645D01*
X145365789Y-97288643D01*
X145254886Y-97210988D01*
X146304576Y-97210988D01*
X146311644Y-97224434D01*
X147013188Y-97925978D01*
X147027132Y-97933592D01*
X147028965Y-97933461D01*
X147035580Y-97929210D01*
X147741077Y-97223713D01*
X147747507Y-97211938D01*
X147738211Y-97199923D01*
X147687006Y-97164069D01*
X147677511Y-97158586D01*
X147480053Y-97066510D01*
X147469761Y-97062764D01*
X147259312Y-97006375D01*
X147248519Y-97004472D01*
X147031475Y-96985483D01*
X147020525Y-96985483D01*
X146803481Y-97004472D01*
X146792688Y-97006375D01*
X146582239Y-97062764D01*
X146571947Y-97066510D01*
X146374489Y-97158586D01*
X146364994Y-97164069D01*
X146312952Y-97200509D01*
X146304576Y-97210988D01*
X145254886Y-97210988D01*
X145239920Y-97200509D01*
X145182749Y-97160477D01*
X145177767Y-97158154D01*
X145177762Y-97158151D01*
X144980225Y-97066039D01*
X144980224Y-97066039D01*
X144975243Y-97063716D01*
X144969935Y-97062294D01*
X144969933Y-97062293D01*
X144759402Y-97005881D01*
X144759400Y-97005881D01*
X144754087Y-97004457D01*
X144526000Y-96984502D01*
X144297913Y-97004457D01*
X144292600Y-97005881D01*
X144292598Y-97005881D01*
X144082067Y-97062293D01*
X144082065Y-97062294D01*
X144076757Y-97063716D01*
X144071776Y-97066039D01*
X144071775Y-97066039D01*
X143874238Y-97158151D01*
X143874233Y-97158154D01*
X143869251Y-97160477D01*
X143812080Y-97200509D01*
X143686211Y-97288643D01*
X143686208Y-97288645D01*
X143681700Y-97291802D01*
X143519802Y-97453700D01*
X143388477Y-97641251D01*
X143386154Y-97646233D01*
X143386151Y-97646238D01*
X143298730Y-97833715D01*
X143291716Y-97848757D01*
X143290294Y-97854065D01*
X143290293Y-97854067D01*
X143251187Y-98000013D01*
X143232457Y-98069913D01*
X143212502Y-98298000D01*
X142029498Y-98298000D01*
X142009543Y-98069913D01*
X141990813Y-98000013D01*
X141951707Y-97854067D01*
X141951706Y-97854065D01*
X141950284Y-97848757D01*
X141943270Y-97833715D01*
X141855849Y-97646238D01*
X141855846Y-97646233D01*
X141853523Y-97641251D01*
X141722198Y-97453700D01*
X141560300Y-97291802D01*
X141555792Y-97288645D01*
X141555789Y-97288643D01*
X141429920Y-97200509D01*
X141372749Y-97160477D01*
X141367767Y-97158154D01*
X141367762Y-97158151D01*
X141170225Y-97066039D01*
X141170224Y-97066039D01*
X141165243Y-97063716D01*
X141159935Y-97062294D01*
X141159933Y-97062293D01*
X140949402Y-97005881D01*
X140949400Y-97005881D01*
X140944087Y-97004457D01*
X140716000Y-96984502D01*
X140487913Y-97004457D01*
X140482600Y-97005881D01*
X140482598Y-97005881D01*
X140272067Y-97062293D01*
X140272065Y-97062294D01*
X140266757Y-97063716D01*
X140261776Y-97066039D01*
X140261775Y-97066039D01*
X140064238Y-97158151D01*
X140064233Y-97158154D01*
X140059251Y-97160477D01*
X140002080Y-97200509D01*
X139876211Y-97288643D01*
X139876208Y-97288645D01*
X139871700Y-97291802D01*
X139709802Y-97453700D01*
X139578477Y-97641251D01*
X139576153Y-97646235D01*
X139574829Y-97648528D01*
X139523447Y-97697521D01*
X139453733Y-97710957D01*
X139387822Y-97684571D01*
X139356591Y-97648528D01*
X139349934Y-97636998D01*
X139313491Y-97584952D01*
X139303012Y-97576576D01*
X139289566Y-97583644D01*
X138588022Y-98285188D01*
X138580408Y-98299132D01*
X137850356Y-98299132D01*
X137851592Y-98296868D01*
X137851461Y-98295035D01*
X137847210Y-98288420D01*
X137141713Y-97582923D01*
X137129938Y-97576493D01*
X137117923Y-97585789D01*
X137082069Y-97636994D01*
X137076586Y-97646489D01*
X136984510Y-97843947D01*
X136980764Y-97854239D01*
X136924375Y-98064688D01*
X136922472Y-98075481D01*
X136903483Y-98292525D01*
X136903483Y-98303475D01*
X133858500Y-98303475D01*
X133858500Y-97210988D01*
X137494576Y-97210988D01*
X137501644Y-97224434D01*
X138203188Y-97925978D01*
X138217132Y-97933592D01*
X138218965Y-97933461D01*
X138225580Y-97929210D01*
X138931077Y-97223713D01*
X138937507Y-97211938D01*
X138928211Y-97199923D01*
X138877006Y-97164069D01*
X138867511Y-97158586D01*
X138670053Y-97066510D01*
X138659761Y-97062764D01*
X138449312Y-97006375D01*
X138438519Y-97004472D01*
X138221475Y-96985483D01*
X138210525Y-96985483D01*
X137993481Y-97004472D01*
X137982688Y-97006375D01*
X137772239Y-97062764D01*
X137761947Y-97066510D01*
X137564489Y-97158586D01*
X137554994Y-97164069D01*
X137502952Y-97200509D01*
X137494576Y-97210988D01*
X133858500Y-97210988D01*
X133858500Y-94996000D01*
X136882502Y-94996000D01*
X136902457Y-95224087D01*
X136903881Y-95229400D01*
X136903881Y-95229402D01*
X136941963Y-95371523D01*
X136961716Y-95445243D01*
X136964039Y-95450224D01*
X136964039Y-95450225D01*
X137056151Y-95647762D01*
X137056154Y-95647767D01*
X137058477Y-95652749D01*
X137189802Y-95840300D01*
X137351700Y-96002198D01*
X137356208Y-96005355D01*
X137356211Y-96005357D01*
X137434389Y-96060098D01*
X137539251Y-96133523D01*
X137544233Y-96135846D01*
X137544238Y-96135849D01*
X137740765Y-96227490D01*
X137746757Y-96230284D01*
X137752065Y-96231706D01*
X137752067Y-96231707D01*
X137962598Y-96288119D01*
X137962600Y-96288119D01*
X137967913Y-96289543D01*
X138196000Y-96309498D01*
X138424087Y-96289543D01*
X138429400Y-96288119D01*
X138429402Y-96288119D01*
X138639933Y-96231707D01*
X138639935Y-96231706D01*
X138645243Y-96230284D01*
X138651235Y-96227490D01*
X138847762Y-96135849D01*
X138847767Y-96135846D01*
X138852749Y-96133523D01*
X138926243Y-96082062D01*
X139974493Y-96082062D01*
X139983789Y-96094077D01*
X140034994Y-96129931D01*
X140044489Y-96135414D01*
X140241947Y-96227490D01*
X140252239Y-96231236D01*
X140462688Y-96287625D01*
X140473481Y-96289528D01*
X140690525Y-96308517D01*
X140701475Y-96308517D01*
X140918519Y-96289528D01*
X140929312Y-96287625D01*
X141139761Y-96231236D01*
X141150053Y-96227490D01*
X141347511Y-96135414D01*
X141357006Y-96129931D01*
X141409048Y-96093491D01*
X141417424Y-96083012D01*
X141410356Y-96069566D01*
X140708812Y-95368022D01*
X140694868Y-95360408D01*
X140693035Y-95360539D01*
X140686420Y-95364790D01*
X139980923Y-96070287D01*
X139974493Y-96082062D01*
X138926243Y-96082062D01*
X138957611Y-96060098D01*
X139035789Y-96005357D01*
X139035792Y-96005355D01*
X139040300Y-96002198D01*
X139202198Y-95840300D01*
X139333523Y-95652749D01*
X139335847Y-95647765D01*
X139337171Y-95645472D01*
X139388553Y-95596479D01*
X139458267Y-95583043D01*
X139524178Y-95609429D01*
X139555409Y-95645472D01*
X139562066Y-95657002D01*
X139598509Y-95709048D01*
X139608988Y-95717424D01*
X139622434Y-95710356D01*
X140323978Y-95008812D01*
X140330356Y-94997132D01*
X141060408Y-94997132D01*
X141060539Y-94998965D01*
X141064790Y-95005580D01*
X141770287Y-95711077D01*
X141782062Y-95717507D01*
X141794077Y-95708211D01*
X141829931Y-95657006D01*
X141835414Y-95647511D01*
X141927490Y-95450053D01*
X141931236Y-95439761D01*
X141987625Y-95229312D01*
X141989528Y-95218519D01*
X142008517Y-95001475D01*
X142008517Y-94990525D01*
X141989528Y-94773481D01*
X141987625Y-94762688D01*
X141931236Y-94552239D01*
X141927490Y-94541947D01*
X141835414Y-94344489D01*
X141829931Y-94334994D01*
X141793491Y-94282952D01*
X141783012Y-94274576D01*
X141769566Y-94281644D01*
X141068022Y-94983188D01*
X141060408Y-94997132D01*
X140330356Y-94997132D01*
X140331592Y-94994868D01*
X140331461Y-94993035D01*
X140327210Y-94986420D01*
X139621713Y-94280923D01*
X139609938Y-94274493D01*
X139597923Y-94283789D01*
X139562066Y-94334998D01*
X139555409Y-94346528D01*
X139504027Y-94395521D01*
X139434313Y-94408958D01*
X139368402Y-94382571D01*
X139337171Y-94346528D01*
X139335847Y-94344235D01*
X139333523Y-94339251D01*
X139248429Y-94217724D01*
X139205357Y-94156211D01*
X139205355Y-94156208D01*
X139202198Y-94151700D01*
X139040300Y-93989802D01*
X139035792Y-93986645D01*
X139035789Y-93986643D01*
X138924886Y-93908988D01*
X139974576Y-93908988D01*
X139981644Y-93922434D01*
X140683188Y-94623978D01*
X140697132Y-94631592D01*
X140698965Y-94631461D01*
X140705580Y-94627210D01*
X141411077Y-93921713D01*
X141417507Y-93909938D01*
X141408211Y-93897923D01*
X141357006Y-93862069D01*
X141347511Y-93856586D01*
X141150053Y-93764510D01*
X141139761Y-93760764D01*
X140929312Y-93704375D01*
X140918519Y-93702472D01*
X140701475Y-93683483D01*
X140690525Y-93683483D01*
X140473481Y-93702472D01*
X140462688Y-93704375D01*
X140252239Y-93760764D01*
X140241947Y-93764510D01*
X140044489Y-93856586D01*
X140034994Y-93862069D01*
X139982952Y-93898509D01*
X139974576Y-93908988D01*
X138924886Y-93908988D01*
X138921578Y-93906672D01*
X138852749Y-93858477D01*
X138847767Y-93856154D01*
X138847762Y-93856151D01*
X138650225Y-93764039D01*
X138650224Y-93764039D01*
X138645243Y-93761716D01*
X138639935Y-93760294D01*
X138639933Y-93760293D01*
X138429402Y-93703881D01*
X138429400Y-93703881D01*
X138424087Y-93702457D01*
X138196000Y-93682502D01*
X137967913Y-93702457D01*
X137962600Y-93703881D01*
X137962598Y-93703881D01*
X137752067Y-93760293D01*
X137752065Y-93760294D01*
X137746757Y-93761716D01*
X137741776Y-93764039D01*
X137741775Y-93764039D01*
X137544238Y-93856151D01*
X137544233Y-93856154D01*
X137539251Y-93858477D01*
X137470422Y-93906672D01*
X137356211Y-93986643D01*
X137356208Y-93986645D01*
X137351700Y-93989802D01*
X137189802Y-94151700D01*
X137186645Y-94156208D01*
X137186643Y-94156211D01*
X137143571Y-94217724D01*
X137058477Y-94339251D01*
X137056154Y-94344233D01*
X137056151Y-94344238D01*
X136964039Y-94541775D01*
X136961716Y-94546757D01*
X136960294Y-94552065D01*
X136960293Y-94552067D01*
X136923809Y-94688225D01*
X136902457Y-94767913D01*
X136882502Y-94996000D01*
X133858500Y-94996000D01*
X133858500Y-93388004D01*
X142984500Y-93388004D01*
X142999277Y-93538713D01*
X143057858Y-93732742D01*
X143153010Y-93911698D01*
X143156904Y-93916472D01*
X143156905Y-93916474D01*
X143207353Y-93978329D01*
X143281110Y-94068763D01*
X143285857Y-94072690D01*
X143285859Y-94072692D01*
X143432528Y-94194027D01*
X143432531Y-94194029D01*
X143437278Y-94197956D01*
X143615565Y-94294356D01*
X143712372Y-94324323D01*
X143803293Y-94352468D01*
X143803296Y-94352469D01*
X143809180Y-94354290D01*
X143815305Y-94354934D01*
X143815306Y-94354934D01*
X144004622Y-94374832D01*
X144004623Y-94374832D01*
X144010750Y-94375476D01*
X144120090Y-94365525D01*
X144206457Y-94357665D01*
X144206460Y-94357664D01*
X144212596Y-94357106D01*
X144218502Y-94355368D01*
X144218506Y-94355367D01*
X144359909Y-94313749D01*
X144407029Y-94299881D01*
X144412486Y-94297028D01*
X144412489Y-94297027D01*
X144540155Y-94230285D01*
X144586460Y-94206077D01*
X144586462Y-94206077D01*
X144586645Y-94205981D01*
X144586663Y-94206016D01*
X144652441Y-94186111D01*
X144713409Y-94201271D01*
X144885565Y-94294356D01*
X144982372Y-94324323D01*
X145073293Y-94352468D01*
X145073296Y-94352469D01*
X145079180Y-94354290D01*
X145085305Y-94354934D01*
X145085306Y-94354934D01*
X145274622Y-94374832D01*
X145274623Y-94374832D01*
X145280750Y-94375476D01*
X145390090Y-94365525D01*
X145476457Y-94357665D01*
X145476460Y-94357664D01*
X145482596Y-94357106D01*
X145488502Y-94355368D01*
X145488506Y-94355367D01*
X145624558Y-94315324D01*
X145677029Y-94299881D01*
X145677229Y-94300559D01*
X145743273Y-94294044D01*
X145780323Y-94307320D01*
X145794937Y-94315321D01*
X145915394Y-94360478D01*
X145930649Y-94364105D01*
X145981514Y-94369631D01*
X145988328Y-94370000D01*
X146285885Y-94370000D01*
X146301124Y-94365525D01*
X146302329Y-94364135D01*
X146304000Y-94356452D01*
X146304000Y-94351884D01*
X146812000Y-94351884D01*
X146816475Y-94367123D01*
X146817865Y-94368328D01*
X146825548Y-94369999D01*
X147127669Y-94369999D01*
X147134490Y-94369629D01*
X147185352Y-94364105D01*
X147200604Y-94360479D01*
X147321054Y-94315324D01*
X147336649Y-94306786D01*
X147438724Y-94230285D01*
X147451285Y-94217724D01*
X147527786Y-94115649D01*
X147536324Y-94100054D01*
X147581478Y-93979606D01*
X147585105Y-93964351D01*
X147590631Y-93913486D01*
X147591000Y-93906672D01*
X147591000Y-93726000D01*
X153880502Y-93726000D01*
X153900457Y-93954087D01*
X153901881Y-93959400D01*
X153901881Y-93959402D01*
X153953408Y-94151700D01*
X153959716Y-94175243D01*
X153962039Y-94180224D01*
X153962039Y-94180225D01*
X154054151Y-94377762D01*
X154054154Y-94377767D01*
X154056477Y-94382749D01*
X154059634Y-94387257D01*
X154175156Y-94552239D01*
X154187802Y-94570300D01*
X154349700Y-94732198D01*
X154354208Y-94735355D01*
X154354211Y-94735357D01*
X154393244Y-94762688D01*
X154537251Y-94863523D01*
X154542233Y-94865846D01*
X154542238Y-94865849D01*
X154739775Y-94957961D01*
X154744757Y-94960284D01*
X154750065Y-94961706D01*
X154750067Y-94961707D01*
X154960598Y-95018119D01*
X154960600Y-95018119D01*
X154965913Y-95019543D01*
X155194000Y-95039498D01*
X155422087Y-95019543D01*
X155427400Y-95018119D01*
X155427402Y-95018119D01*
X155637933Y-94961707D01*
X155637935Y-94961706D01*
X155643243Y-94960284D01*
X155648225Y-94957961D01*
X155845762Y-94865849D01*
X155845767Y-94865846D01*
X155850749Y-94863523D01*
X155994756Y-94762688D01*
X156033789Y-94735357D01*
X156033792Y-94735355D01*
X156038300Y-94732198D01*
X156200198Y-94570300D01*
X156212845Y-94552239D01*
X156249057Y-94500522D01*
X162039273Y-94500522D01*
X162086764Y-94677761D01*
X162090510Y-94688053D01*
X162182586Y-94885511D01*
X162188069Y-94895007D01*
X162313028Y-95073467D01*
X162320084Y-95081875D01*
X162474125Y-95235916D01*
X162482533Y-95242972D01*
X162660993Y-95367931D01*
X162670489Y-95373414D01*
X162867947Y-95465490D01*
X162878239Y-95469236D01*
X163050503Y-95515394D01*
X163064599Y-95515058D01*
X163068000Y-95507116D01*
X163068000Y-95501967D01*
X163576000Y-95501967D01*
X163579973Y-95515498D01*
X163588522Y-95516727D01*
X163765761Y-95469236D01*
X163776053Y-95465490D01*
X163973511Y-95373414D01*
X163983007Y-95367931D01*
X164161467Y-95242972D01*
X164169875Y-95235916D01*
X164323916Y-95081875D01*
X164330972Y-95073467D01*
X164455931Y-94895007D01*
X164461414Y-94885511D01*
X164553490Y-94688053D01*
X164557236Y-94677761D01*
X164603394Y-94505497D01*
X164603058Y-94491401D01*
X164595116Y-94488000D01*
X163594115Y-94488000D01*
X163578876Y-94492475D01*
X163577671Y-94493865D01*
X163576000Y-94501548D01*
X163576000Y-95501967D01*
X163068000Y-95501967D01*
X163068000Y-94506115D01*
X163063525Y-94490876D01*
X163062135Y-94489671D01*
X163054452Y-94488000D01*
X162054033Y-94488000D01*
X162040502Y-94491973D01*
X162039273Y-94500522D01*
X156249057Y-94500522D01*
X156328366Y-94387257D01*
X156331523Y-94382749D01*
X156333846Y-94377767D01*
X156333849Y-94377762D01*
X156400886Y-94234000D01*
X169628502Y-94234000D01*
X169648457Y-94462087D01*
X169649881Y-94467400D01*
X169649881Y-94467402D01*
X169669856Y-94541947D01*
X169707716Y-94683243D01*
X169710039Y-94688224D01*
X169710039Y-94688225D01*
X169802151Y-94885762D01*
X169802154Y-94885767D01*
X169804477Y-94890749D01*
X169935802Y-95078300D01*
X170097700Y-95240198D01*
X170102208Y-95243355D01*
X170102211Y-95243357D01*
X170180389Y-95298098D01*
X170285251Y-95371523D01*
X170290233Y-95373846D01*
X170290238Y-95373849D01*
X170443345Y-95445243D01*
X170492757Y-95468284D01*
X170498065Y-95469706D01*
X170498067Y-95469707D01*
X170708598Y-95526119D01*
X170708600Y-95526119D01*
X170713913Y-95527543D01*
X170942000Y-95547498D01*
X171170087Y-95527543D01*
X171175400Y-95526119D01*
X171175402Y-95526119D01*
X171385933Y-95469707D01*
X171385935Y-95469706D01*
X171391243Y-95468284D01*
X171440655Y-95445243D01*
X171593762Y-95373849D01*
X171593767Y-95373846D01*
X171598749Y-95371523D01*
X171703611Y-95298098D01*
X171781789Y-95243357D01*
X171781792Y-95243355D01*
X171786300Y-95240198D01*
X171948198Y-95078300D01*
X172079523Y-94890749D01*
X172081846Y-94885767D01*
X172081849Y-94885762D01*
X172173961Y-94688225D01*
X172173961Y-94688224D01*
X172176284Y-94683243D01*
X172214145Y-94541947D01*
X172234119Y-94467402D01*
X172234119Y-94467400D01*
X172235543Y-94462087D01*
X172255498Y-94234000D01*
X172235543Y-94005913D01*
X172225244Y-93967478D01*
X172177707Y-93790067D01*
X172177706Y-93790065D01*
X172176284Y-93784757D01*
X172158262Y-93746109D01*
X172081849Y-93582238D01*
X172081846Y-93582233D01*
X172079523Y-93577251D01*
X171954488Y-93398683D01*
X171951357Y-93394211D01*
X171951355Y-93394208D01*
X171948198Y-93389700D01*
X171786300Y-93227802D01*
X171781792Y-93224645D01*
X171781789Y-93224643D01*
X171703611Y-93169902D01*
X171598749Y-93096477D01*
X171593767Y-93094154D01*
X171593762Y-93094151D01*
X171396225Y-93002039D01*
X171396224Y-93002039D01*
X171391243Y-92999716D01*
X171385935Y-92998294D01*
X171385933Y-92998293D01*
X171175402Y-92941881D01*
X171175400Y-92941881D01*
X171170087Y-92940457D01*
X170942000Y-92920502D01*
X170713913Y-92940457D01*
X170708600Y-92941881D01*
X170708598Y-92941881D01*
X170498067Y-92998293D01*
X170498065Y-92998294D01*
X170492757Y-92999716D01*
X170487776Y-93002039D01*
X170487775Y-93002039D01*
X170290238Y-93094151D01*
X170290233Y-93094154D01*
X170285251Y-93096477D01*
X170180389Y-93169902D01*
X170102211Y-93224643D01*
X170102208Y-93224645D01*
X170097700Y-93227802D01*
X169935802Y-93389700D01*
X169932645Y-93394208D01*
X169932643Y-93394211D01*
X169929512Y-93398683D01*
X169804477Y-93577251D01*
X169802154Y-93582233D01*
X169802151Y-93582238D01*
X169725738Y-93746109D01*
X169707716Y-93784757D01*
X169706294Y-93790065D01*
X169706293Y-93790067D01*
X169658756Y-93967478D01*
X169648457Y-94005913D01*
X169628502Y-94234000D01*
X156400886Y-94234000D01*
X156425961Y-94180225D01*
X156425961Y-94180224D01*
X156428284Y-94175243D01*
X156434593Y-94151700D01*
X156485288Y-93962503D01*
X162040606Y-93962503D01*
X162040942Y-93976599D01*
X162048884Y-93980000D01*
X163049885Y-93980000D01*
X163065124Y-93975525D01*
X163066329Y-93974135D01*
X163068000Y-93966452D01*
X163068000Y-93961885D01*
X163576000Y-93961885D01*
X163580475Y-93977124D01*
X163581865Y-93978329D01*
X163589548Y-93980000D01*
X164589967Y-93980000D01*
X164603498Y-93976027D01*
X164604727Y-93967478D01*
X164557236Y-93790239D01*
X164553490Y-93779947D01*
X164461414Y-93582489D01*
X164455931Y-93572993D01*
X164330972Y-93394533D01*
X164323916Y-93386125D01*
X164169875Y-93232084D01*
X164161467Y-93225028D01*
X163983007Y-93100069D01*
X163973511Y-93094586D01*
X163776053Y-93002510D01*
X163765761Y-92998764D01*
X163593497Y-92952606D01*
X163579401Y-92952942D01*
X163576000Y-92960884D01*
X163576000Y-93961885D01*
X163068000Y-93961885D01*
X163068000Y-92966033D01*
X163064027Y-92952502D01*
X163055478Y-92951273D01*
X162878239Y-92998764D01*
X162867947Y-93002510D01*
X162670489Y-93094586D01*
X162660993Y-93100069D01*
X162482533Y-93225028D01*
X162474125Y-93232084D01*
X162320084Y-93386125D01*
X162313028Y-93394533D01*
X162188069Y-93572993D01*
X162182586Y-93582489D01*
X162090510Y-93779947D01*
X162086764Y-93790239D01*
X162040606Y-93962503D01*
X156485288Y-93962503D01*
X156486119Y-93959402D01*
X156486119Y-93959400D01*
X156487543Y-93954087D01*
X156507498Y-93726000D01*
X156487543Y-93497913D01*
X156460954Y-93398683D01*
X156429707Y-93282067D01*
X156429706Y-93282065D01*
X156428284Y-93276757D01*
X156343134Y-93094151D01*
X156333849Y-93074238D01*
X156333846Y-93074233D01*
X156331523Y-93069251D01*
X156200198Y-92881700D01*
X156038300Y-92719802D01*
X156033792Y-92716645D01*
X156033789Y-92716643D01*
X155955611Y-92661902D01*
X155850749Y-92588477D01*
X155845767Y-92586154D01*
X155845762Y-92586151D01*
X155648225Y-92494039D01*
X155648224Y-92494039D01*
X155643243Y-92491716D01*
X155637935Y-92490294D01*
X155637933Y-92490293D01*
X155427402Y-92433881D01*
X155427400Y-92433881D01*
X155422087Y-92432457D01*
X155194000Y-92412502D01*
X154965913Y-92432457D01*
X154960600Y-92433881D01*
X154960598Y-92433881D01*
X154750067Y-92490293D01*
X154750065Y-92490294D01*
X154744757Y-92491716D01*
X154739776Y-92494039D01*
X154739775Y-92494039D01*
X154542238Y-92586151D01*
X154542233Y-92586154D01*
X154537251Y-92588477D01*
X154432389Y-92661902D01*
X154354211Y-92716643D01*
X154354208Y-92716645D01*
X154349700Y-92719802D01*
X154187802Y-92881700D01*
X154056477Y-93069251D01*
X154054154Y-93074233D01*
X154054151Y-93074238D01*
X154044866Y-93094151D01*
X153959716Y-93276757D01*
X153958294Y-93282065D01*
X153958293Y-93282067D01*
X153927046Y-93398683D01*
X153900457Y-93497913D01*
X153880502Y-93726000D01*
X147591000Y-93726000D01*
X147591000Y-93384115D01*
X147586525Y-93368876D01*
X147585135Y-93367671D01*
X147577452Y-93366000D01*
X146830115Y-93366000D01*
X146814876Y-93370475D01*
X146813671Y-93371865D01*
X146812000Y-93379548D01*
X146812000Y-94351884D01*
X146304000Y-94351884D01*
X146304000Y-93558242D01*
X146304785Y-93544197D01*
X146321107Y-93398683D01*
X146321500Y-93395183D01*
X146321500Y-92839885D01*
X146812000Y-92839885D01*
X146816475Y-92855124D01*
X146817865Y-92856329D01*
X146825548Y-92858000D01*
X147572884Y-92858000D01*
X147588123Y-92853525D01*
X147589328Y-92852135D01*
X147590999Y-92844452D01*
X147590999Y-92317331D01*
X147590629Y-92310510D01*
X147585105Y-92259648D01*
X147581479Y-92244396D01*
X147536324Y-92123946D01*
X147527786Y-92108351D01*
X147451285Y-92006276D01*
X147438724Y-91993715D01*
X147336649Y-91917214D01*
X147321054Y-91908676D01*
X147200606Y-91863522D01*
X147185351Y-91859895D01*
X147134486Y-91854369D01*
X147127672Y-91854000D01*
X146830115Y-91854000D01*
X146814876Y-91858475D01*
X146813671Y-91859865D01*
X146812000Y-91867548D01*
X146812000Y-92839885D01*
X146321500Y-92839885D01*
X146321500Y-92835996D01*
X146306723Y-92685287D01*
X146306032Y-92682998D01*
X146304000Y-92662276D01*
X146304000Y-91872116D01*
X146299525Y-91856877D01*
X146298135Y-91855672D01*
X146290452Y-91854001D01*
X145988331Y-91854001D01*
X145981510Y-91854371D01*
X145930648Y-91859895D01*
X145915396Y-91863521D01*
X145794944Y-91908677D01*
X145779534Y-91917114D01*
X145710177Y-91932284D01*
X145681764Y-91926960D01*
X145672587Y-91924119D01*
X145496820Y-91869710D01*
X145490695Y-91869066D01*
X145490694Y-91869066D01*
X145301378Y-91849168D01*
X145301377Y-91849168D01*
X145295250Y-91848524D01*
X145216709Y-91855672D01*
X145099543Y-91866335D01*
X145099540Y-91866336D01*
X145093404Y-91866894D01*
X145087498Y-91868632D01*
X145087494Y-91868633D01*
X144951442Y-91908676D01*
X144898971Y-91924119D01*
X144893514Y-91926972D01*
X144893511Y-91926973D01*
X144809163Y-91971069D01*
X144719540Y-92017923D01*
X144719538Y-92017923D01*
X144719355Y-92018019D01*
X144719337Y-92017984D01*
X144653559Y-92037889D01*
X144592591Y-92022729D01*
X144583815Y-92017984D01*
X144420435Y-91929644D01*
X144323628Y-91899677D01*
X144232707Y-91871532D01*
X144232704Y-91871531D01*
X144226820Y-91869710D01*
X144220695Y-91869066D01*
X144220694Y-91869066D01*
X144031378Y-91849168D01*
X144031377Y-91849168D01*
X144025250Y-91848524D01*
X143946709Y-91855672D01*
X143829543Y-91866335D01*
X143829540Y-91866336D01*
X143823404Y-91866894D01*
X143817498Y-91868632D01*
X143817494Y-91868633D01*
X143681442Y-91908676D01*
X143628971Y-91924119D01*
X143623514Y-91926972D01*
X143623511Y-91926973D01*
X143539163Y-91971069D01*
X143449355Y-92018019D01*
X143291399Y-92145019D01*
X143161119Y-92300281D01*
X143158155Y-92305673D01*
X143158152Y-92305677D01*
X143087672Y-92433881D01*
X143063477Y-92477891D01*
X143002193Y-92671084D01*
X143001507Y-92677201D01*
X143001506Y-92677205D01*
X142996728Y-92719802D01*
X142984500Y-92828817D01*
X142984500Y-93388004D01*
X133858500Y-93388004D01*
X133858500Y-91694000D01*
X136755502Y-91694000D01*
X136775457Y-91922087D01*
X136776881Y-91927400D01*
X136776881Y-91927402D01*
X136825367Y-92108351D01*
X136834716Y-92143243D01*
X136837039Y-92148224D01*
X136837039Y-92148225D01*
X136929151Y-92345762D01*
X136929154Y-92345767D01*
X136931477Y-92350749D01*
X137062802Y-92538300D01*
X137224700Y-92700198D01*
X137229208Y-92703355D01*
X137229211Y-92703357D01*
X137307389Y-92758098D01*
X137412251Y-92831523D01*
X137417233Y-92833846D01*
X137417238Y-92833849D01*
X137613765Y-92925490D01*
X137619757Y-92928284D01*
X137625065Y-92929706D01*
X137625067Y-92929707D01*
X137835598Y-92986119D01*
X137835600Y-92986119D01*
X137840913Y-92987543D01*
X138069000Y-93007498D01*
X138297087Y-92987543D01*
X138302400Y-92986119D01*
X138302402Y-92986119D01*
X138512933Y-92929707D01*
X138512935Y-92929706D01*
X138518243Y-92928284D01*
X138524235Y-92925490D01*
X138720762Y-92833849D01*
X138720767Y-92833846D01*
X138725749Y-92831523D01*
X138799243Y-92780062D01*
X139847493Y-92780062D01*
X139856789Y-92792077D01*
X139907994Y-92827931D01*
X139917489Y-92833414D01*
X140114947Y-92925490D01*
X140125239Y-92929236D01*
X140335688Y-92985625D01*
X140346481Y-92987528D01*
X140563525Y-93006517D01*
X140574475Y-93006517D01*
X140791519Y-92987528D01*
X140802312Y-92985625D01*
X141012761Y-92929236D01*
X141023053Y-92925490D01*
X141220511Y-92833414D01*
X141230006Y-92827931D01*
X141282048Y-92791491D01*
X141290424Y-92781012D01*
X141283356Y-92767566D01*
X140581812Y-92066022D01*
X140567868Y-92058408D01*
X140566035Y-92058539D01*
X140559420Y-92062790D01*
X139853923Y-92768287D01*
X139847493Y-92780062D01*
X138799243Y-92780062D01*
X138830611Y-92758098D01*
X138908789Y-92703357D01*
X138908792Y-92703355D01*
X138913300Y-92700198D01*
X139075198Y-92538300D01*
X139206523Y-92350749D01*
X139208847Y-92345765D01*
X139210171Y-92343472D01*
X139261553Y-92294479D01*
X139331267Y-92281043D01*
X139397178Y-92307429D01*
X139428409Y-92343472D01*
X139435066Y-92355002D01*
X139471509Y-92407048D01*
X139481988Y-92415424D01*
X139495434Y-92408356D01*
X140196978Y-91706812D01*
X140203356Y-91695132D01*
X140933408Y-91695132D01*
X140933539Y-91696965D01*
X140937790Y-91703580D01*
X141643287Y-92409077D01*
X141655062Y-92415507D01*
X141667077Y-92406211D01*
X141702931Y-92355006D01*
X141708414Y-92345511D01*
X141800490Y-92148053D01*
X141804236Y-92137761D01*
X141860625Y-91927312D01*
X141862528Y-91916519D01*
X141881517Y-91699475D01*
X141881517Y-91688525D01*
X141862528Y-91471481D01*
X141860625Y-91460688D01*
X141804236Y-91250239D01*
X141800490Y-91239947D01*
X141708414Y-91042489D01*
X141702931Y-91032994D01*
X141666491Y-90980952D01*
X141656012Y-90972576D01*
X141642566Y-90979644D01*
X140941022Y-91681188D01*
X140933408Y-91695132D01*
X140203356Y-91695132D01*
X140204592Y-91692868D01*
X140204461Y-91691035D01*
X140200210Y-91684420D01*
X139494713Y-90978923D01*
X139482938Y-90972493D01*
X139470923Y-90981789D01*
X139435066Y-91032998D01*
X139428409Y-91044528D01*
X139377027Y-91093521D01*
X139307313Y-91106958D01*
X139241402Y-91080571D01*
X139210171Y-91044528D01*
X139208847Y-91042235D01*
X139206523Y-91037251D01*
X139127904Y-90924972D01*
X139078357Y-90854211D01*
X139078355Y-90854208D01*
X139075198Y-90849700D01*
X138913300Y-90687802D01*
X138908792Y-90684645D01*
X138908789Y-90684643D01*
X138797886Y-90606988D01*
X139847576Y-90606988D01*
X139854644Y-90620434D01*
X140556188Y-91321978D01*
X140570132Y-91329592D01*
X140571965Y-91329461D01*
X140578580Y-91325210D01*
X141139656Y-90764134D01*
X159219500Y-90764134D01*
X159226255Y-90826316D01*
X159277385Y-90962705D01*
X159364739Y-91079261D01*
X159481295Y-91166615D01*
X159617684Y-91217745D01*
X159679866Y-91224500D01*
X161376134Y-91224500D01*
X161438316Y-91217745D01*
X161574705Y-91166615D01*
X161691261Y-91079261D01*
X161778615Y-90962705D01*
X161829745Y-90826316D01*
X161836500Y-90764134D01*
X161836500Y-90182522D01*
X166865273Y-90182522D01*
X166912764Y-90359761D01*
X166916510Y-90370053D01*
X167008586Y-90567511D01*
X167014069Y-90577007D01*
X167139028Y-90755467D01*
X167146084Y-90763875D01*
X167300125Y-90917916D01*
X167308533Y-90924972D01*
X167486993Y-91049931D01*
X167496489Y-91055414D01*
X167693947Y-91147490D01*
X167704239Y-91151236D01*
X167876503Y-91197394D01*
X167890599Y-91197058D01*
X167894000Y-91189116D01*
X167894000Y-91183967D01*
X168402000Y-91183967D01*
X168405973Y-91197498D01*
X168414522Y-91198727D01*
X168591761Y-91151236D01*
X168602053Y-91147490D01*
X168799511Y-91055414D01*
X168809007Y-91049931D01*
X168987467Y-90924972D01*
X168995875Y-90917916D01*
X169149916Y-90763875D01*
X169156972Y-90755467D01*
X169281931Y-90577007D01*
X169287414Y-90567511D01*
X169379490Y-90370053D01*
X169383236Y-90359761D01*
X169429394Y-90187497D01*
X169429058Y-90173401D01*
X169421116Y-90170000D01*
X168420115Y-90170000D01*
X168404876Y-90174475D01*
X168403671Y-90175865D01*
X168402000Y-90183548D01*
X168402000Y-91183967D01*
X167894000Y-91183967D01*
X167894000Y-90188115D01*
X167889525Y-90172876D01*
X167888135Y-90171671D01*
X167880452Y-90170000D01*
X166880033Y-90170000D01*
X166866502Y-90173973D01*
X166865273Y-90182522D01*
X161836500Y-90182522D01*
X161836500Y-89644503D01*
X166866606Y-89644503D01*
X166866942Y-89658599D01*
X166874884Y-89662000D01*
X167875885Y-89662000D01*
X167891124Y-89657525D01*
X167892329Y-89656135D01*
X167894000Y-89648452D01*
X167894000Y-89643885D01*
X168402000Y-89643885D01*
X168406475Y-89659124D01*
X168407865Y-89660329D01*
X168415548Y-89662000D01*
X169415967Y-89662000D01*
X169429498Y-89658027D01*
X169430727Y-89649478D01*
X169383236Y-89472239D01*
X169379490Y-89461947D01*
X169287414Y-89264489D01*
X169281931Y-89254993D01*
X169156972Y-89076533D01*
X169149916Y-89068125D01*
X168995875Y-88914084D01*
X168987467Y-88907028D01*
X168809007Y-88782069D01*
X168799511Y-88776586D01*
X168602053Y-88684510D01*
X168591761Y-88680764D01*
X168419497Y-88634606D01*
X168405401Y-88634942D01*
X168402000Y-88642884D01*
X168402000Y-89643885D01*
X167894000Y-89643885D01*
X167894000Y-88648033D01*
X167890027Y-88634502D01*
X167881478Y-88633273D01*
X167704239Y-88680764D01*
X167693947Y-88684510D01*
X167496489Y-88776586D01*
X167486993Y-88782069D01*
X167308533Y-88907028D01*
X167300125Y-88914084D01*
X167146084Y-89068125D01*
X167139028Y-89076533D01*
X167014069Y-89254993D01*
X167008586Y-89264489D01*
X166916510Y-89461947D01*
X166912764Y-89472239D01*
X166866606Y-89644503D01*
X161836500Y-89644503D01*
X161836500Y-89067866D01*
X161829745Y-89005684D01*
X161778615Y-88869295D01*
X161691261Y-88752739D01*
X161574705Y-88665385D01*
X161438316Y-88614255D01*
X161376134Y-88607500D01*
X159679866Y-88607500D01*
X159617684Y-88614255D01*
X159481295Y-88665385D01*
X159364739Y-88752739D01*
X159277385Y-88869295D01*
X159226255Y-89005684D01*
X159219500Y-89067866D01*
X159219500Y-90764134D01*
X141139656Y-90764134D01*
X141284077Y-90619713D01*
X141290507Y-90607938D01*
X141281211Y-90595923D01*
X141230006Y-90560069D01*
X141220511Y-90554586D01*
X141023053Y-90462510D01*
X141012761Y-90458764D01*
X140802312Y-90402375D01*
X140791519Y-90400472D01*
X140574475Y-90381483D01*
X140563525Y-90381483D01*
X140346481Y-90400472D01*
X140335688Y-90402375D01*
X140125239Y-90458764D01*
X140114947Y-90462510D01*
X139917489Y-90554586D01*
X139907994Y-90560069D01*
X139855952Y-90596509D01*
X139847576Y-90606988D01*
X138797886Y-90606988D01*
X138782920Y-90596509D01*
X138725749Y-90556477D01*
X138720767Y-90554154D01*
X138720762Y-90554151D01*
X138523225Y-90462039D01*
X138523224Y-90462039D01*
X138518243Y-90459716D01*
X138512935Y-90458294D01*
X138512933Y-90458293D01*
X138302402Y-90401881D01*
X138302400Y-90401881D01*
X138297087Y-90400457D01*
X138069000Y-90380502D01*
X137840913Y-90400457D01*
X137835600Y-90401881D01*
X137835598Y-90401881D01*
X137625067Y-90458293D01*
X137625065Y-90458294D01*
X137619757Y-90459716D01*
X137614776Y-90462039D01*
X137614775Y-90462039D01*
X137417238Y-90554151D01*
X137417233Y-90554154D01*
X137412251Y-90556477D01*
X137355080Y-90596509D01*
X137229211Y-90684643D01*
X137229208Y-90684645D01*
X137224700Y-90687802D01*
X137062802Y-90849700D01*
X137059645Y-90854208D01*
X137059643Y-90854211D01*
X137010096Y-90924972D01*
X136931477Y-91037251D01*
X136929154Y-91042233D01*
X136929151Y-91042238D01*
X136856753Y-91197498D01*
X136834716Y-91244757D01*
X136833294Y-91250065D01*
X136833293Y-91250067D01*
X136812019Y-91329461D01*
X136775457Y-91465913D01*
X136755502Y-91694000D01*
X133858500Y-91694000D01*
X133858500Y-88138000D01*
X136755502Y-88138000D01*
X136775457Y-88366087D01*
X136776881Y-88371400D01*
X136776881Y-88371402D01*
X136814025Y-88510022D01*
X136834716Y-88587243D01*
X136837039Y-88592224D01*
X136837039Y-88592225D01*
X136929151Y-88789762D01*
X136929154Y-88789767D01*
X136931477Y-88794749D01*
X136934634Y-88799257D01*
X137015037Y-88914084D01*
X137062802Y-88982300D01*
X137224700Y-89144198D01*
X137229208Y-89147355D01*
X137229211Y-89147357D01*
X137307389Y-89202098D01*
X137412251Y-89275523D01*
X137417233Y-89277846D01*
X137417238Y-89277849D01*
X137613765Y-89369490D01*
X137619757Y-89372284D01*
X137625065Y-89373706D01*
X137625067Y-89373707D01*
X137835598Y-89430119D01*
X137835600Y-89430119D01*
X137840913Y-89431543D01*
X138069000Y-89451498D01*
X138297087Y-89431543D01*
X138302400Y-89430119D01*
X138302402Y-89430119D01*
X138512933Y-89373707D01*
X138512935Y-89373706D01*
X138518243Y-89372284D01*
X138524235Y-89369490D01*
X138720762Y-89277849D01*
X138720767Y-89277846D01*
X138725749Y-89275523D01*
X138799243Y-89224062D01*
X139847493Y-89224062D01*
X139856789Y-89236077D01*
X139907994Y-89271931D01*
X139917489Y-89277414D01*
X140114947Y-89369490D01*
X140125239Y-89373236D01*
X140335688Y-89429625D01*
X140346481Y-89431528D01*
X140563525Y-89450517D01*
X140574475Y-89450517D01*
X140791519Y-89431528D01*
X140802312Y-89429625D01*
X141012761Y-89373236D01*
X141023053Y-89369490D01*
X141220511Y-89277414D01*
X141230006Y-89271931D01*
X141282048Y-89235491D01*
X141290424Y-89225012D01*
X141283356Y-89211566D01*
X140581812Y-88510022D01*
X140567868Y-88502408D01*
X140566035Y-88502539D01*
X140559420Y-88506790D01*
X139853923Y-89212287D01*
X139847493Y-89224062D01*
X138799243Y-89224062D01*
X138830611Y-89202098D01*
X138908789Y-89147357D01*
X138908792Y-89147355D01*
X138913300Y-89144198D01*
X139075198Y-88982300D01*
X139122964Y-88914084D01*
X139203369Y-88799253D01*
X139206523Y-88794749D01*
X139208847Y-88789765D01*
X139210171Y-88787472D01*
X139261553Y-88738479D01*
X139331267Y-88725043D01*
X139397178Y-88751429D01*
X139428409Y-88787472D01*
X139435066Y-88799002D01*
X139471509Y-88851048D01*
X139481988Y-88859424D01*
X139495434Y-88852356D01*
X140196978Y-88150812D01*
X140203356Y-88139132D01*
X140933408Y-88139132D01*
X140933539Y-88140965D01*
X140937790Y-88147580D01*
X141643287Y-88853077D01*
X141655062Y-88859507D01*
X141667077Y-88850211D01*
X141702931Y-88799006D01*
X141708414Y-88789511D01*
X141800490Y-88592053D01*
X141804236Y-88581761D01*
X141860625Y-88371312D01*
X141862528Y-88360519D01*
X141881517Y-88143475D01*
X141881517Y-88132525D01*
X141862528Y-87915481D01*
X141860625Y-87904688D01*
X141804236Y-87694239D01*
X141800490Y-87683947D01*
X141708414Y-87486489D01*
X141702931Y-87476994D01*
X141666491Y-87424952D01*
X141656012Y-87416576D01*
X141642566Y-87423644D01*
X140941022Y-88125188D01*
X140933408Y-88139132D01*
X140203356Y-88139132D01*
X140204592Y-88136868D01*
X140204461Y-88135035D01*
X140200210Y-88128420D01*
X139494713Y-87422923D01*
X139482938Y-87416493D01*
X139470923Y-87425789D01*
X139435066Y-87476998D01*
X139428409Y-87488528D01*
X139377027Y-87537521D01*
X139307313Y-87550958D01*
X139241402Y-87524571D01*
X139210171Y-87488528D01*
X139208847Y-87486235D01*
X139206523Y-87481251D01*
X139105644Y-87337181D01*
X139078357Y-87298211D01*
X139078355Y-87298208D01*
X139075198Y-87293700D01*
X138913300Y-87131802D01*
X138908792Y-87128645D01*
X138908789Y-87128643D01*
X138830343Y-87073715D01*
X138797886Y-87050988D01*
X139847576Y-87050988D01*
X139854644Y-87064434D01*
X140556188Y-87765978D01*
X140570132Y-87773592D01*
X140571965Y-87773461D01*
X140578580Y-87769210D01*
X141284077Y-87063713D01*
X141290507Y-87051938D01*
X141281211Y-87039923D01*
X141230006Y-87004069D01*
X141220511Y-86998586D01*
X141023053Y-86906510D01*
X141012761Y-86902764D01*
X140802312Y-86846375D01*
X140791519Y-86844472D01*
X140574475Y-86825483D01*
X140563525Y-86825483D01*
X140346481Y-86844472D01*
X140335688Y-86846375D01*
X140125239Y-86902764D01*
X140114947Y-86906510D01*
X139917489Y-86998586D01*
X139907994Y-87004069D01*
X139855952Y-87040509D01*
X139847576Y-87050988D01*
X138797886Y-87050988D01*
X138725749Y-87000477D01*
X138720767Y-86998154D01*
X138720762Y-86998151D01*
X138523225Y-86906039D01*
X138523224Y-86906039D01*
X138518243Y-86903716D01*
X138512935Y-86902294D01*
X138512933Y-86902293D01*
X138302402Y-86845881D01*
X138302400Y-86845881D01*
X138297087Y-86844457D01*
X138069000Y-86824502D01*
X137840913Y-86844457D01*
X137835600Y-86845881D01*
X137835598Y-86845881D01*
X137625067Y-86902293D01*
X137625065Y-86902294D01*
X137619757Y-86903716D01*
X137614776Y-86906039D01*
X137614775Y-86906039D01*
X137417238Y-86998151D01*
X137417233Y-86998154D01*
X137412251Y-87000477D01*
X137307657Y-87073715D01*
X137229211Y-87128643D01*
X137229208Y-87128645D01*
X137224700Y-87131802D01*
X137062802Y-87293700D01*
X137059645Y-87298208D01*
X137059643Y-87298211D01*
X137032356Y-87337181D01*
X136931477Y-87481251D01*
X136929154Y-87486233D01*
X136929151Y-87486238D01*
X136905238Y-87537521D01*
X136834716Y-87688757D01*
X136833294Y-87694065D01*
X136833293Y-87694067D01*
X136812019Y-87773461D01*
X136775457Y-87909913D01*
X136755502Y-88138000D01*
X133858500Y-88138000D01*
X133858500Y-85090000D01*
X136755502Y-85090000D01*
X136775457Y-85318087D01*
X136776881Y-85323400D01*
X136776881Y-85323402D01*
X136814025Y-85462022D01*
X136834716Y-85539243D01*
X136837039Y-85544224D01*
X136837039Y-85544225D01*
X136929151Y-85741762D01*
X136929154Y-85741767D01*
X136931477Y-85746749D01*
X137062802Y-85934300D01*
X137224700Y-86096198D01*
X137229208Y-86099355D01*
X137229211Y-86099357D01*
X137307389Y-86154098D01*
X137412251Y-86227523D01*
X137417233Y-86229846D01*
X137417238Y-86229849D01*
X137547407Y-86290547D01*
X137619757Y-86324284D01*
X137625065Y-86325706D01*
X137625067Y-86325707D01*
X137835598Y-86382119D01*
X137835600Y-86382119D01*
X137840913Y-86383543D01*
X138069000Y-86403498D01*
X138297087Y-86383543D01*
X138302400Y-86382119D01*
X138302402Y-86382119D01*
X138512933Y-86325707D01*
X138512935Y-86325706D01*
X138518243Y-86324284D01*
X138590593Y-86290547D01*
X138720762Y-86229849D01*
X138720767Y-86229846D01*
X138725749Y-86227523D01*
X138799243Y-86176062D01*
X139847493Y-86176062D01*
X139856789Y-86188077D01*
X139907994Y-86223931D01*
X139917489Y-86229414D01*
X140114947Y-86321490D01*
X140125239Y-86325236D01*
X140335688Y-86381625D01*
X140346481Y-86383528D01*
X140563525Y-86402517D01*
X140574475Y-86402517D01*
X140791519Y-86383528D01*
X140802312Y-86381625D01*
X141012761Y-86325236D01*
X141023053Y-86321490D01*
X141220511Y-86229414D01*
X141230006Y-86223931D01*
X141282048Y-86187491D01*
X141290424Y-86177012D01*
X141283356Y-86163566D01*
X141192485Y-86072695D01*
X145200251Y-86072695D01*
X145200548Y-86077848D01*
X145200548Y-86077851D01*
X145202171Y-86106000D01*
X145213110Y-86295715D01*
X145214247Y-86300761D01*
X145214248Y-86300767D01*
X145231680Y-86378115D01*
X145262222Y-86513639D01*
X145346266Y-86720616D01*
X145348965Y-86725020D01*
X145460182Y-86906510D01*
X145462987Y-86911088D01*
X145609250Y-87079938D01*
X145781126Y-87222632D01*
X145974000Y-87335338D01*
X145978825Y-87337180D01*
X145978826Y-87337181D01*
X146051612Y-87364975D01*
X146182692Y-87415030D01*
X146187760Y-87416061D01*
X146187763Y-87416062D01*
X146295017Y-87437883D01*
X146401597Y-87459567D01*
X146406772Y-87459757D01*
X146406774Y-87459757D01*
X146619673Y-87467564D01*
X146619677Y-87467564D01*
X146624837Y-87467753D01*
X146629957Y-87467097D01*
X146629959Y-87467097D01*
X146841288Y-87440025D01*
X146841289Y-87440025D01*
X146846416Y-87439368D01*
X146894467Y-87424952D01*
X147055429Y-87376661D01*
X147055434Y-87376659D01*
X147060384Y-87375174D01*
X147260994Y-87276896D01*
X147442860Y-87147173D01*
X147551091Y-87039319D01*
X147613462Y-87005404D01*
X147684268Y-87010592D01*
X147741030Y-87053238D01*
X147758012Y-87084341D01*
X147780201Y-87143529D01*
X147802385Y-87202705D01*
X147889739Y-87319261D01*
X148006295Y-87406615D01*
X148142684Y-87457745D01*
X148204866Y-87464500D01*
X150001134Y-87464500D01*
X150063316Y-87457745D01*
X150199705Y-87406615D01*
X150316261Y-87319261D01*
X150403615Y-87202705D01*
X150454745Y-87066316D01*
X150461500Y-87004134D01*
X150461500Y-86106000D01*
X153880502Y-86106000D01*
X153900457Y-86334087D01*
X153901881Y-86339400D01*
X153901881Y-86339402D01*
X153949851Y-86518425D01*
X153959716Y-86555243D01*
X153962039Y-86560224D01*
X153962039Y-86560225D01*
X154054151Y-86757762D01*
X154054154Y-86757767D01*
X154056477Y-86762749D01*
X154100404Y-86825483D01*
X154163078Y-86914990D01*
X154187802Y-86950300D01*
X154349700Y-87112198D01*
X154354208Y-87115355D01*
X154354211Y-87115357D01*
X154394445Y-87143529D01*
X154537251Y-87243523D01*
X154542233Y-87245846D01*
X154542238Y-87245849D01*
X154738765Y-87337490D01*
X154744757Y-87340284D01*
X154750065Y-87341706D01*
X154750067Y-87341707D01*
X154960598Y-87398119D01*
X154960600Y-87398119D01*
X154965913Y-87399543D01*
X155194000Y-87419498D01*
X155422087Y-87399543D01*
X155427400Y-87398119D01*
X155427402Y-87398119D01*
X155637933Y-87341707D01*
X155637935Y-87341706D01*
X155643243Y-87340284D01*
X155649235Y-87337490D01*
X155845762Y-87245849D01*
X155845767Y-87245846D01*
X155850749Y-87243523D01*
X155993555Y-87143529D01*
X156033789Y-87115357D01*
X156033792Y-87115355D01*
X156038300Y-87112198D01*
X156200198Y-86950300D01*
X156224923Y-86914990D01*
X156287596Y-86825483D01*
X156331523Y-86762749D01*
X156333846Y-86757767D01*
X156333849Y-86757762D01*
X156425961Y-86560225D01*
X156425961Y-86560224D01*
X156428284Y-86555243D01*
X156438150Y-86518425D01*
X156486119Y-86339402D01*
X156486119Y-86339400D01*
X156487543Y-86334087D01*
X156507498Y-86106000D01*
X159214502Y-86106000D01*
X159234457Y-86334087D01*
X159235881Y-86339400D01*
X159235881Y-86339402D01*
X159283851Y-86518425D01*
X159293716Y-86555243D01*
X159296039Y-86560224D01*
X159296039Y-86560225D01*
X159388151Y-86757762D01*
X159388154Y-86757767D01*
X159390477Y-86762749D01*
X159434404Y-86825483D01*
X159497078Y-86914990D01*
X159521802Y-86950300D01*
X159683700Y-87112198D01*
X159688208Y-87115355D01*
X159688211Y-87115357D01*
X159728445Y-87143529D01*
X159871251Y-87243523D01*
X159876233Y-87245846D01*
X159876238Y-87245849D01*
X160072765Y-87337490D01*
X160078757Y-87340284D01*
X160084065Y-87341706D01*
X160084067Y-87341707D01*
X160294598Y-87398119D01*
X160294600Y-87398119D01*
X160299913Y-87399543D01*
X160528000Y-87419498D01*
X160756087Y-87399543D01*
X160761400Y-87398119D01*
X160761402Y-87398119D01*
X160971933Y-87341707D01*
X160971935Y-87341706D01*
X160977243Y-87340284D01*
X160983235Y-87337490D01*
X161179762Y-87245849D01*
X161179767Y-87245846D01*
X161184749Y-87243523D01*
X161327555Y-87143529D01*
X161367789Y-87115357D01*
X161367792Y-87115355D01*
X161372300Y-87112198D01*
X161534198Y-86950300D01*
X161558923Y-86914990D01*
X161621596Y-86825483D01*
X161665523Y-86762749D01*
X161667846Y-86757767D01*
X161667849Y-86757762D01*
X161759961Y-86560225D01*
X161759961Y-86560224D01*
X161762284Y-86555243D01*
X161772150Y-86518425D01*
X161811245Y-86372522D01*
X166865273Y-86372522D01*
X166912764Y-86549761D01*
X166916510Y-86560053D01*
X167008586Y-86757511D01*
X167014069Y-86767007D01*
X167139028Y-86945467D01*
X167146084Y-86953875D01*
X167300125Y-87107916D01*
X167308533Y-87114972D01*
X167486993Y-87239931D01*
X167496489Y-87245414D01*
X167693947Y-87337490D01*
X167704239Y-87341236D01*
X167876503Y-87387394D01*
X167890599Y-87387058D01*
X167894000Y-87379116D01*
X167894000Y-87373967D01*
X168402000Y-87373967D01*
X168405973Y-87387498D01*
X168414522Y-87388727D01*
X168591761Y-87341236D01*
X168602053Y-87337490D01*
X168799511Y-87245414D01*
X168809007Y-87239931D01*
X168987467Y-87114972D01*
X168995875Y-87107916D01*
X169149916Y-86953875D01*
X169156972Y-86945467D01*
X169281931Y-86767007D01*
X169287414Y-86757511D01*
X169379490Y-86560053D01*
X169383236Y-86549761D01*
X169429394Y-86377497D01*
X169429058Y-86363401D01*
X169421116Y-86360000D01*
X168420115Y-86360000D01*
X168404876Y-86364475D01*
X168403671Y-86365865D01*
X168402000Y-86373548D01*
X168402000Y-87373967D01*
X167894000Y-87373967D01*
X167894000Y-86378115D01*
X167889525Y-86362876D01*
X167888135Y-86361671D01*
X167880452Y-86360000D01*
X166880033Y-86360000D01*
X166866502Y-86363973D01*
X166865273Y-86372522D01*
X161811245Y-86372522D01*
X161820119Y-86339402D01*
X161820119Y-86339400D01*
X161821543Y-86334087D01*
X161841498Y-86106000D01*
X161821543Y-85877913D01*
X161814600Y-85852000D01*
X161809912Y-85834503D01*
X166866606Y-85834503D01*
X166866942Y-85848599D01*
X166874884Y-85852000D01*
X167875885Y-85852000D01*
X167891124Y-85847525D01*
X167892329Y-85846135D01*
X167894000Y-85838452D01*
X167894000Y-85833885D01*
X168402000Y-85833885D01*
X168406475Y-85849124D01*
X168407865Y-85850329D01*
X168415548Y-85852000D01*
X169415967Y-85852000D01*
X169429498Y-85848027D01*
X169430727Y-85839478D01*
X169383236Y-85662239D01*
X169379490Y-85651947D01*
X169287414Y-85454489D01*
X169281931Y-85444993D01*
X169156972Y-85266533D01*
X169149916Y-85258125D01*
X168995875Y-85104084D01*
X168987467Y-85097028D01*
X168809007Y-84972069D01*
X168799511Y-84966586D01*
X168602053Y-84874510D01*
X168591761Y-84870764D01*
X168419497Y-84824606D01*
X168405401Y-84824942D01*
X168402000Y-84832884D01*
X168402000Y-85833885D01*
X167894000Y-85833885D01*
X167894000Y-84838033D01*
X167890027Y-84824502D01*
X167881478Y-84823273D01*
X167704239Y-84870764D01*
X167693947Y-84874510D01*
X167496489Y-84966586D01*
X167486993Y-84972069D01*
X167308533Y-85097028D01*
X167300125Y-85104084D01*
X167146084Y-85258125D01*
X167139028Y-85266533D01*
X167014069Y-85444993D01*
X167008586Y-85454489D01*
X166916510Y-85651947D01*
X166912764Y-85662239D01*
X166866606Y-85834503D01*
X161809912Y-85834503D01*
X161763707Y-85662067D01*
X161763706Y-85662065D01*
X161762284Y-85656757D01*
X161705011Y-85533933D01*
X161667849Y-85454238D01*
X161667846Y-85454233D01*
X161665523Y-85449251D01*
X161534198Y-85261700D01*
X161372300Y-85099802D01*
X161367792Y-85096645D01*
X161367789Y-85096643D01*
X161232780Y-85002109D01*
X161184749Y-84968477D01*
X161179767Y-84966154D01*
X161179762Y-84966151D01*
X160982225Y-84874039D01*
X160982224Y-84874039D01*
X160977243Y-84871716D01*
X160971935Y-84870294D01*
X160971933Y-84870293D01*
X160761402Y-84813881D01*
X160761400Y-84813881D01*
X160756087Y-84812457D01*
X160528000Y-84792502D01*
X160299913Y-84812457D01*
X160294600Y-84813881D01*
X160294598Y-84813881D01*
X160084067Y-84870293D01*
X160084065Y-84870294D01*
X160078757Y-84871716D01*
X160073776Y-84874039D01*
X160073775Y-84874039D01*
X159876238Y-84966151D01*
X159876233Y-84966154D01*
X159871251Y-84968477D01*
X159823220Y-85002109D01*
X159688211Y-85096643D01*
X159688208Y-85096645D01*
X159683700Y-85099802D01*
X159521802Y-85261700D01*
X159390477Y-85449251D01*
X159388154Y-85454233D01*
X159388151Y-85454238D01*
X159350989Y-85533933D01*
X159293716Y-85656757D01*
X159292294Y-85662065D01*
X159292293Y-85662067D01*
X159241400Y-85852000D01*
X159234457Y-85877913D01*
X159214502Y-86106000D01*
X156507498Y-86106000D01*
X156487543Y-85877913D01*
X156480600Y-85852000D01*
X156429707Y-85662067D01*
X156429706Y-85662065D01*
X156428284Y-85656757D01*
X156371011Y-85533933D01*
X156333849Y-85454238D01*
X156333846Y-85454233D01*
X156331523Y-85449251D01*
X156200198Y-85261700D01*
X156038300Y-85099802D01*
X156033792Y-85096645D01*
X156033789Y-85096643D01*
X155898780Y-85002109D01*
X155850749Y-84968477D01*
X155845767Y-84966154D01*
X155845762Y-84966151D01*
X155648225Y-84874039D01*
X155648224Y-84874039D01*
X155643243Y-84871716D01*
X155637935Y-84870294D01*
X155637933Y-84870293D01*
X155427402Y-84813881D01*
X155427400Y-84813881D01*
X155422087Y-84812457D01*
X155194000Y-84792502D01*
X154965913Y-84812457D01*
X154960600Y-84813881D01*
X154960598Y-84813881D01*
X154750067Y-84870293D01*
X154750065Y-84870294D01*
X154744757Y-84871716D01*
X154739776Y-84874039D01*
X154739775Y-84874039D01*
X154542238Y-84966151D01*
X154542233Y-84966154D01*
X154537251Y-84968477D01*
X154489220Y-85002109D01*
X154354211Y-85096643D01*
X154354208Y-85096645D01*
X154349700Y-85099802D01*
X154187802Y-85261700D01*
X154056477Y-85449251D01*
X154054154Y-85454233D01*
X154054151Y-85454238D01*
X154016989Y-85533933D01*
X153959716Y-85656757D01*
X153958294Y-85662065D01*
X153958293Y-85662067D01*
X153907400Y-85852000D01*
X153900457Y-85877913D01*
X153880502Y-86106000D01*
X150461500Y-86106000D01*
X150461500Y-85207866D01*
X150454745Y-85145684D01*
X150403615Y-85009295D01*
X150316261Y-84892739D01*
X150199705Y-84805385D01*
X150063316Y-84754255D01*
X150001134Y-84747500D01*
X148204866Y-84747500D01*
X148142684Y-84754255D01*
X148006295Y-84805385D01*
X147889739Y-84892739D01*
X147802385Y-85009295D01*
X147799233Y-85017703D01*
X147757919Y-85127907D01*
X147715277Y-85184671D01*
X147648716Y-85209371D01*
X147579367Y-85194163D01*
X147546743Y-85168476D01*
X147496151Y-85112875D01*
X147496142Y-85112866D01*
X147492670Y-85109051D01*
X147488619Y-85105852D01*
X147488615Y-85105848D01*
X147321414Y-84973800D01*
X147321410Y-84973798D01*
X147317359Y-84970598D01*
X147310092Y-84966586D01*
X147265136Y-84941769D01*
X147121789Y-84862638D01*
X147116920Y-84860914D01*
X147116916Y-84860912D01*
X146916087Y-84789795D01*
X146916083Y-84789794D01*
X146911212Y-84788069D01*
X146906119Y-84787162D01*
X146906116Y-84787161D01*
X146696373Y-84749800D01*
X146696367Y-84749799D01*
X146691284Y-84748894D01*
X146617452Y-84747992D01*
X146473081Y-84746228D01*
X146473079Y-84746228D01*
X146467911Y-84746165D01*
X146247091Y-84779955D01*
X146034756Y-84849357D01*
X145836607Y-84952507D01*
X145832474Y-84955610D01*
X145832471Y-84955612D01*
X145662100Y-85083530D01*
X145657965Y-85086635D01*
X145618525Y-85127907D01*
X145564280Y-85184671D01*
X145503629Y-85248138D01*
X145500715Y-85252410D01*
X145500714Y-85252411D01*
X145491300Y-85266211D01*
X145377743Y-85432680D01*
X145283688Y-85635305D01*
X145223989Y-85850570D01*
X145200251Y-86072695D01*
X141192485Y-86072695D01*
X140581812Y-85462022D01*
X140567868Y-85454408D01*
X140566035Y-85454539D01*
X140559420Y-85458790D01*
X139853923Y-86164287D01*
X139847493Y-86176062D01*
X138799243Y-86176062D01*
X138830611Y-86154098D01*
X138908789Y-86099357D01*
X138908792Y-86099355D01*
X138913300Y-86096198D01*
X139075198Y-85934300D01*
X139206523Y-85746749D01*
X139208847Y-85741765D01*
X139210171Y-85739472D01*
X139261553Y-85690479D01*
X139331267Y-85677043D01*
X139397178Y-85703429D01*
X139428409Y-85739472D01*
X139435066Y-85751002D01*
X139471509Y-85803048D01*
X139481988Y-85811424D01*
X139495434Y-85804356D01*
X140196978Y-85102812D01*
X140203356Y-85091132D01*
X140933408Y-85091132D01*
X140933539Y-85092965D01*
X140937790Y-85099580D01*
X141643287Y-85805077D01*
X141655062Y-85811507D01*
X141667077Y-85802211D01*
X141702931Y-85751006D01*
X141708414Y-85741511D01*
X141800490Y-85544053D01*
X141804236Y-85533761D01*
X141860625Y-85323312D01*
X141862528Y-85312519D01*
X141881517Y-85095475D01*
X141881517Y-85084525D01*
X141862528Y-84867481D01*
X141860625Y-84856688D01*
X141804236Y-84646239D01*
X141800490Y-84635947D01*
X141708414Y-84438489D01*
X141702931Y-84428994D01*
X141666491Y-84376952D01*
X141656012Y-84368576D01*
X141642566Y-84375644D01*
X140941022Y-85077188D01*
X140933408Y-85091132D01*
X140203356Y-85091132D01*
X140204592Y-85088868D01*
X140204461Y-85087035D01*
X140200210Y-85080420D01*
X139494713Y-84374923D01*
X139482938Y-84368493D01*
X139470923Y-84377789D01*
X139435066Y-84428998D01*
X139428409Y-84440528D01*
X139377027Y-84489521D01*
X139307313Y-84502958D01*
X139241402Y-84476571D01*
X139210171Y-84440528D01*
X139208847Y-84438235D01*
X139206523Y-84433251D01*
X139075198Y-84245700D01*
X138913300Y-84083802D01*
X138908792Y-84080645D01*
X138908789Y-84080643D01*
X138797886Y-84002988D01*
X139847576Y-84002988D01*
X139854644Y-84016434D01*
X140556188Y-84717978D01*
X140570132Y-84725592D01*
X140571965Y-84725461D01*
X140578580Y-84721210D01*
X141284077Y-84015713D01*
X141290507Y-84003938D01*
X141281211Y-83991923D01*
X141230006Y-83956069D01*
X141220511Y-83950586D01*
X141023053Y-83858510D01*
X141012761Y-83854764D01*
X140802312Y-83798375D01*
X140791519Y-83796472D01*
X140574475Y-83777483D01*
X140563525Y-83777483D01*
X140346481Y-83796472D01*
X140335688Y-83798375D01*
X140125239Y-83854764D01*
X140114947Y-83858510D01*
X139917489Y-83950586D01*
X139907994Y-83956069D01*
X139855952Y-83992509D01*
X139847576Y-84002988D01*
X138797886Y-84002988D01*
X138782920Y-83992509D01*
X138725749Y-83952477D01*
X138720767Y-83950154D01*
X138720762Y-83950151D01*
X138523225Y-83858039D01*
X138523224Y-83858039D01*
X138518243Y-83855716D01*
X138512935Y-83854294D01*
X138512933Y-83854293D01*
X138302402Y-83797881D01*
X138302400Y-83797881D01*
X138297087Y-83796457D01*
X138069000Y-83776502D01*
X137840913Y-83796457D01*
X137835600Y-83797881D01*
X137835598Y-83797881D01*
X137625067Y-83854293D01*
X137625065Y-83854294D01*
X137619757Y-83855716D01*
X137614776Y-83858039D01*
X137614775Y-83858039D01*
X137417238Y-83950151D01*
X137417233Y-83950154D01*
X137412251Y-83952477D01*
X137355080Y-83992509D01*
X137229211Y-84080643D01*
X137229208Y-84080645D01*
X137224700Y-84083802D01*
X137062802Y-84245700D01*
X136931477Y-84433251D01*
X136929154Y-84438233D01*
X136929151Y-84438238D01*
X136905238Y-84489521D01*
X136834716Y-84640757D01*
X136833294Y-84646065D01*
X136833293Y-84646067D01*
X136785481Y-84824502D01*
X136775457Y-84861913D01*
X136755502Y-85090000D01*
X133858500Y-85090000D01*
X133858500Y-82125417D01*
X141977577Y-82125417D01*
X141986874Y-82137433D01*
X142029869Y-82167538D01*
X142039355Y-82173016D01*
X142230793Y-82262285D01*
X142241085Y-82266031D01*
X142445109Y-82320699D01*
X142455904Y-82322602D01*
X142666325Y-82341012D01*
X142677275Y-82341012D01*
X142887696Y-82322602D01*
X142898491Y-82320699D01*
X143102515Y-82266031D01*
X143112807Y-82262285D01*
X143304245Y-82173016D01*
X143313731Y-82167538D01*
X143357564Y-82136847D01*
X143365939Y-82126369D01*
X143358871Y-82112921D01*
X142684612Y-81438662D01*
X142670668Y-81431048D01*
X142668835Y-81431179D01*
X142662220Y-81435430D01*
X141984007Y-82113643D01*
X141977577Y-82125417D01*
X133858500Y-82125417D01*
X133858500Y-81072115D01*
X141397428Y-81072115D01*
X141415838Y-81282536D01*
X141417741Y-81293331D01*
X141472409Y-81497355D01*
X141476155Y-81507647D01*
X141565423Y-81699081D01*
X141570903Y-81708572D01*
X141601594Y-81752405D01*
X141612071Y-81760780D01*
X141625518Y-81753712D01*
X142299778Y-81079452D01*
X142306156Y-81067772D01*
X143036208Y-81067772D01*
X143036339Y-81069605D01*
X143040590Y-81076220D01*
X143718803Y-81754433D01*
X143730577Y-81760863D01*
X143742593Y-81751566D01*
X143772697Y-81708572D01*
X143778177Y-81699081D01*
X143867445Y-81507647D01*
X143871191Y-81497355D01*
X143925859Y-81293331D01*
X143927762Y-81282536D01*
X143946172Y-81072115D01*
X143946172Y-81061165D01*
X143927762Y-80850744D01*
X143925859Y-80839949D01*
X143871191Y-80635925D01*
X143867445Y-80625633D01*
X143778177Y-80434199D01*
X143772697Y-80424708D01*
X143742006Y-80380875D01*
X143731529Y-80372500D01*
X143718082Y-80379568D01*
X143043822Y-81053828D01*
X143036208Y-81067772D01*
X142306156Y-81067772D01*
X142307392Y-81065508D01*
X142307261Y-81063675D01*
X142303010Y-81057060D01*
X141624797Y-80378847D01*
X141613023Y-80372417D01*
X141601007Y-80381714D01*
X141570903Y-80424708D01*
X141565423Y-80434199D01*
X141476155Y-80625633D01*
X141472409Y-80635925D01*
X141417741Y-80839949D01*
X141415838Y-80850744D01*
X141397428Y-81061165D01*
X141397428Y-81072115D01*
X133858500Y-81072115D01*
X133858500Y-78358000D01*
X133878502Y-78289879D01*
X133932158Y-78243386D01*
X133984500Y-78232000D01*
X141463933Y-78232000D01*
X141532054Y-78252002D01*
G37*
%TD.AperFunction*%
%TD*%
M02*
